<svg height="502pt" viewBox="0 -36 502.84875 502" width="502pt" xmlns="http://www.w3.org/2000/svg"><path d="m329.414062 430.195312c-1.804687 0-3.410156-1.15625-3.980468-2.867187-.570313-1.714844.019531-3.601563 1.464844-4.6875l17.273437-12.632813-34.011719 19.59375c-1.9375 1.0625-4.367187.441407-5.558594-1.421874-1.1875-1.863282-.730468-4.328126 1.050782-5.636719l4.710937-3.300781-17.953125 10.359374c-1.921875 1.097657-4.367187.519532-5.585937-1.324218-1.222657-1.847656-.800781-4.324219.960937-5.660156l22.585938-16.9375-41.523438 23.921874c-1.929687 1.113282-4.394531.523438-5.613281-1.339843-1.21875-1.867188-.765625-4.359375 1.03125-5.679688l18.027344-13.234375-35.089844 20.253906c-1.890625 1.070313-4.28125.523438-5.519531-1.257812-1.238282-1.78125-.914063-4.214844.75-5.609375l31.84375-26.214844-57.335938 33.082031c-1.925781 1.101563-4.378906.515626-5.59375-1.34375-1.21875-1.855468-.777344-4.339843 1.003906-5.667968l19.421876-14.359375-37.023438 21.371093c-1.929688 1.113282-4.394531.523438-5.613281-1.339843-1.21875-1.867188-.765625-4.359375 1.03125-5.679688l17.675781-12.957031-34.597656 19.976562c-1.929688 1.132813-4.40625.550782-5.632813-1.316406-1.226562-1.871094-.773437-4.375 1.035157-5.695312l19.488281-14.410156-37.117188 21.421874c-1.914062 1.066407-4.328125.480469-5.542969-1.347656-1.210937-1.828125-.8125-4.28125.917969-5.628906l23.628907-17.921875-43.132813 24.898437c-1.882813 1.058594-4.265625.519532-5.503906-1.253906-1.238281-1.773437-.925781-4.195312.71875-5.597656l32.507812-27.136719-58.863281 33.988281c-1.875 1.0625-4.25.53125-5.496094-1.226562s-.957031-4.175781.667969-5.589844l33.574219-28.707031-54.464844 31.476563c-1.933594 1.109374-4.398438.511718-5.609375-1.359376-1.210937-1.871093-.75-4.363281 1.054687-5.675781l8.171876-5.875-11.210938 6.464844c-1.921875 1.097656-4.363281.519531-5.585938-1.324219-1.222656-1.847656-.800781-4.320312.960938-5.660156l8.519531-6.414062-10.015625 5.777343c-1.84375.988281-4.136718.46875-5.371094-1.226562-1.238281-1.691407-1.035156-4.035157.46875-5.488281l14.851563-13.355469-17.820313 10.230469c-1.855468 1.148437-4.277343.683593-5.578124-1.066407-1.300782-1.75-1.042969-4.203125.589843-5.648437l6.070313-5.730469-7.554688 4.355469c-1.789062 1.03125-4.058594.605468-5.359375-.996094-1.296875-1.605469-1.234375-3.917969.148438-5.449219l2.199219-2.417969-1.546876.839844c-1.484374.851563-3.339843.71875-4.6875-.34375-1.34375-1.058594-1.910156-2.832031-1.429687-4.476562l2.039063-6.929688c-.699219-.363281-1.285157-.921875-1.679688-1.605468-1.152344-2.003907-.46875-4.5625 1.527344-5.722657l4.199218-2.425781c1.484376-.859375 3.34375-.726562 4.695313.332031 1.347656 1.0625 1.914063 2.839844 1.429687 4.484375l-1.234374 4.199219 15.628906-8.914063c1.789062-1.03125 4.0625-.609374 5.359375.996094 1.296875 1.605469 1.238281 3.914063-.144531 5.449219l-2.207032 2.425781 15.402344-8.871094c1.851562-1.148437 4.277344-.683593 5.574219 1.066407 1.300781 1.75 1.042969 4.203125-.589844 5.648437l-6.058594 5.722656 21.519531-12.421874c1.84375-.992188 4.136719-.46875 5.375 1.222656 1.234376 1.691406 1.03125 4.035156-.472656 5.492187l-14.859375 13.363281 34.867188-20.144531c1.921875-1.101562 4.363281-.523437 5.585937 1.324219 1.222656 1.84375.800782 4.320312-.960937 5.65625l-8.542969 6.429688 23.265625-13.429688c1.933594-1.109375 4.398437-.511719 5.609375 1.359375 1.214844 1.871094.75 4.363281-1.050781 5.675781l-8.160157 5.875 22.394532-12.925781c1.875-1.078125 4.265625-.558594 5.519531 1.207031 1.25 1.765625.953125 4.195313-.683594 5.609375l-33.574219 28.703125 61.566407-35.542968c1.882812-1.082032 4.277343-.546876 5.523437 1.234374 1.246094 1.777344.929688 4.214844-.730468 5.613282l-32.507813 27.136718 58.886719-34.003906c1.917968-1.089844 4.351562-.511718 5.570312 1.328125 1.222656 1.835938.8125 4.304688-.9375 5.648438l-23.628906 17.929687 43.144531-24.914062c1.929688-1.132813 4.40625-.554688 5.632813 1.316406 1.226562 1.871094.773437 4.375-1.035156 5.691406l-19.453126 14.394532 37.097657-21.417969c1.929687-1.113281 4.394531-.527344 5.613281 1.339843 1.21875 1.863282.765625 4.359376-1.03125 5.675782l-17.625 12.953125 34.605469-19.984375c1.925781-1.105469 4.378906-.515625 5.597656 1.339844 1.214844 1.859374.773437 4.339843-1.007813 5.667968l-19.4375 14.378906 37.066407-21.398437c1.886719-1.070313 4.277343-.523437 5.515625 1.257813 1.238281 1.78125.914062 4.214843-.75 5.609374l-31.878906 26.230469 57.378906-33.121093c1.929687-1.113282 4.394531-.527344 5.613281 1.339843 1.21875 1.863281.765625 4.359375-1.03125 5.675781l-18.003906 13.210938 35.078125-20.242188c1.917968-1.101562 4.363281-.523437 5.585937 1.324219 1.21875 1.84375.800781 4.320313-.960937 5.65625l-22.597656 16.988281 41.539062-23.976562c1.945312-1.105469 4.410156-.492188 5.609375 1.390625 1.203125 1.882813.71875 4.378906-1.101563 5.675781l-4.65625 3.265625 17.917969-10.351562c1.929688-1.085938 4.371094-.492188 5.578125 1.363281 1.210938 1.855469.769532 4.328125-1.003906 5.65625l-17.304688 12.664062 34.109376-19.691406c1.925781-1.101562 4.378906-.515625 5.597656 1.34375 1.214844 1.855469.773437 4.339844-1.007813 5.664063l-18.65625 13.742187 35.988281-20.765625c1.910157-1.148437 4.386719-.605469 5.636719 1.238281 1.253907 1.84375.847657 4.34375-.925781 5.695313l-28.867188 22.820313 42.808594-24.71875c1.933594-1.109376 4.398438-.511719 5.609375 1.359374 1.214844 1.871094.75 4.363282-1.050781 5.675782l-7.976562 5.765625 3.460937-1.988281c1.878906-1.078126 4.269531-.542969 5.515625 1.230468 1.246094 1.773438.933594 4.203125-.714844 5.609375l-20.195312 17.03125c1.585937.496094 2.730468 1.886719 2.914062 3.542969.179688 1.65625-.632812 3.261719-2.074218 4.09375l-31.894532 18.464844c-1.882812 1.074218-4.273437.542968-5.519531-1.234375-1.242187-1.773438-.933594-4.203125.71875-5.605469l14.265625-12.019531-32.699219 18.777343c-1.933593 1.109376-4.398437.511719-5.609375-1.359374-1.214844-1.871094-.75-4.363282 1.050782-5.675782l7.941406-5.75-22.152344 12.785156c-1.902344 1.089844-4.324219.53125-5.558594-1.285156-1.230468-1.816406-.855468-4.273437.859375-5.640625l28.847657-22.820312-51.527344 29.746093c-1.925782 1.101563-4.378906.515626-5.59375-1.34375-1.21875-1.855468-.777344-4.339843 1.003906-5.667968l18.632812-13.714844-35.933593 20.726562c-.632813.382813-1.355469.585938-2.097657.59375zm0 0" fill="#636c77"/><path d="m55.722656 363.292969c-1.875 0-3.519531-1.242188-4.035156-3.039063-.515625-1.800781.222656-3.726562 1.808594-4.71875l199.453125-124.464844-207.140625 119.632813c-1.980469 1.054687-4.441406.371094-5.585938-1.558594-1.144531-1.929687-.570312-4.421875 1.304688-5.652343l128.019531-78.175782-123.738281 71.394532c-1.984375 1.09375-4.476563.417968-5.636719-1.527344-1.160156-1.949219-.5625-4.464844 1.347656-5.683594l147.648438-90.515625-143.359375 82.769531c-1.984375 1.078125-4.464844.394532-5.617188-1.550781-1.148437-1.941406-.554687-4.449219 1.34375-5.667969l114.210938-69.589844-109.9375 63.488282c-1.988282 1.132812-4.519532.460937-5.6875-1.507813-1.167969-1.96875-.542969-4.511719 1.40625-5.710937l124.652344-76.0625-120.378907 69.488281c-1.976562 1.089844-4.460937.417969-5.625-1.515625-1.160156-1.9375-.582031-4.445312 1.3125-5.675781l208.15625-129.730469-203.84375 117.675781c-1.980469 1.058594-4.441406.371094-5.585937-1.558593-1.148438-1.929688-.570313-4.417969 1.304687-5.648438l120.328125-73.402344-116.046875 66.996094c-1.972656 1.054688-4.429687.375-5.578125-1.546875-1.148437-1.917969-.589844-4.402344 1.273438-5.644531l181.523437-112.699219-177.21875 102.308594c-1.984375 1.113281-4.496093.449219-5.660156-1.503907-1.167969-1.953124-.566406-4.480468 1.355469-5.699218l151.164062-93.773438-146.882812 84.773438c-1.980469 1.109375-4.476563.449218-5.648438-1.492188-1.167968-1.941406-.585937-4.460937 1.316406-5.691406l160.84375-101.265625-156.488281 90.347656c-1.980469 1.203125-4.5625.570313-5.765625-1.410156-1.203125-1.984375-.574218-4.566406 1.410156-5.765625l154.136719-98.433594-149.78125 86.480469c-1.984375 1.199219-4.5625.558594-5.761719-1.421875-1.199218-1.984375-.5625-4.566406 1.421876-5.765625l113.546874-71.988281-109.207031 63.042968c-1.972656 1.054688-4.429687.375-5.578125-1.546874-1.148437-1.921876-.589844-4.40625 1.273438-5.648438l37.390625-23.214844-33.085938 19.128906c-1.972656 1.121094-4.476562.476563-5.65625-1.460937-1.183593-1.933594-.613281-4.457031 1.28125-5.699219l95.90625-61.96875-91.488281 52.878906c-1.972656 1.144532-4.496094.511719-5.6875-1.433593-1.191406-1.941407-.617188-4.480469 1.296875-5.71875l80.191406-52.296875-75.84375 43.71875c-1.972656 1.070312-4.4375.398437-5.59375-1.523438-1.160156-1.925781-.597656-4.417968 1.269531-5.660156l3.5-2.207031c-1.980468.628906-4.128906-.289063-5.039062-2.160157-.914062-1.867187-.320312-4.125 1.398438-5.300781l71.796874-49.101562-67.332031 38.867187c-1.945312 1.160156-4.457031.570313-5.679687-1.335937s-.714844-4.433594 1.148437-5.722657l60.054688-42.804687-55.523438 32.085937c-1.945312 1.089844-4.398437.46875-5.589843-1.414062-1.195313-1.878906-.710938-4.363281 1.097656-5.660156l27.09375-18.824219-22.601563 13.050781c-1.953125 1.1875-4.5.59375-5.722656-1.335937-1.226563-1.929688-.683594-4.488281 1.222656-5.75l9.753907-6.789063-5.253907 3.03125c-1.882812 1.074219-4.273437.539063-5.515625-1.234375-1.246094-1.773437-.9375-4.203125.714844-5.609375l25.84375-21.761718-21.042969 12.152343c-1.808593 1.046875-4.109375.601563-5.398437-1.039062-1.289063-1.640625-1.179688-3.980469.261718-5.492188l14.125-14.847656-8.988281 5.1875c-1.757812 1.019531-3.992187.628906-5.304687-.921875-1.300782-1.558594-1.300782-3.824219 0-5.378906l4.195312-5.121094c-.894531-.34375-1.648437-.988281-2.121094-1.820312-1.160156-2.007813-.476562-4.574219 1.527344-5.734376l13.695313-7.914062c1.761719-1.027344 4.003906-.640625 5.320312.914062 1.316407 1.554688 1.324219 3.832032.019531 5.398438l-1.402343 1.675781 14.027343-8.054687c1.804688-1.046875 4.105469-.605469 5.398438 1.039062 1.289062 1.640625 1.179688 3.980469-.261719 5.488282l-14.128906 14.824218 37.023437-21.351562c1.882813-1.09375 4.292969-.566406 5.542969 1.214844 1.253907 1.78125.933594 4.222656-.730469 5.625l-25.84375 21.738281 49.519532-28.605469c1.945312-1.117188 4.425781-.503906 5.632812 1.386719 1.203125 1.894531.703125 4.402343-1.132812 5.6875l-9.769532 6.808593 24.0625-13.855468c1.945313-1.085938 4.398438-.46875 5.589844 1.414062 1.195313 1.878906.710938 4.363282-1.097656 5.660156l-27.09375 18.808594 44.878906-25.882812c1.9375-1.105469 4.402344-.503906 5.609375 1.375 1.207031 1.875.734375 4.371094-1.078125 5.671875l-60.054687 42.808593 86.300781-49.855468c1.949219-1.085938 4.40625-.457032 5.59375 1.429687s.691406 4.371094-1.128906 5.660157l-71.789063 49.109374 97.367188-56.234374c1.980469-1.144532 4.511719-.488282 5.691406 1.472656 1.179687 1.960937.570313 4.507812-1.371094 5.71875l-1.273437.800781 13.832031-7.957031c1.972656-1.214844 4.558594-.601563 5.773437 1.375 1.214844 1.972656.597657 4.558594-1.375 5.773437l-80.210937 52.265625 102.996094-59.414062c1.972656-1.125 4.476562-.476563 5.660156 1.457031 1.179687 1.9375.613281 4.460937-1.285156 5.699219l-95.886719 61.929687 119.714844-69.085937c1.988281-1.191406 4.566406-.546875 5.757812 1.441406s.546875 4.566406-1.445312 5.757812l-37.476563 23.199219 52.710938-30.398437c1.984375-1.203125 4.566406-.566406 5.769531 1.417968 1.199219 1.984376.5625 4.566407-1.421875 5.765626l-113.5625 71.964843 137.148437-79.148437c1.984376-1.207032 4.566407-.578125 5.773438 1.402344 1.203125 1.984374.574219 4.566406-1.40625 5.773437l-154.148438 98.402344 182.921876-105.578125c1.976562-1.109375 4.472656-.449219 5.644531 1.492187 1.167969 1.941407.585937 4.460938-1.316407 5.691407l-160.800781 101.242187 187.871094-108.425781c1.980469-1.117188 4.492187-.453125 5.660156 1.5s.566407 4.480468-1.355469 5.699218l-151.242187 93.78125 174.242187-100.597656c1.980469-1.117187 4.492188-.449218 5.660157 1.503906 1.167969 1.953126.566406 4.480469-1.355469 5.699219l-181.449219 112.65625 190.472657-109.953125c1.988281-1.132812 4.519531-.464844 5.6875 1.503906 1.167968 1.96875.542968 4.511719-1.40625 5.714844l-120.355469 73.390625 117.777343-67.984375c1.285157-.773437 2.886719-.796875 4.195313-.070312 1.3125.730468 2.132813 2.101562 2.160156 3.601562.023438 1.5-.753906 2.898438-2.042969 3.667969l-208.15625 129.738281 203.859376-117.710937c1.992187-1.132813 4.519531-.460938 5.6875 1.507812 1.167968 1.96875.542968 4.511719-1.40625 5.710938l-124.648438 76.070312 120.375-69.496093c1.984375-1.082032 4.46875-.394532 5.617188 1.546874 1.152343 1.945313.558593 4.449219-1.34375 5.671876l-114.148438 69.519531 109.886719-63.425781c1.980469-1.097657 4.476562-.421876 5.636719 1.523437 1.15625 1.949219.5625 4.464844-1.347657 5.683594l-147.589843 90.472656 143.308593-82.734375c1.988281-1.132812 4.519531-.460938 5.6875 1.507812s.539063 4.511719-1.40625 5.710938l-128.050781 78.195312 123.785156-71.472656c1.976563-1.085937 4.460938-.417968 5.625 1.519532 1.160156 1.9375.582032 4.445312-1.308594 5.675781l-199.429687 124.449219 195.121094-112.65625c1.992187-1.109376 4.5-.429688 5.65625 1.53125 1.160156 1.964843.539062 4.488281-1.390625 5.695312l-50.363282 30.519531 46.105469-26.625c1.984375-1.199219 4.566407-.5625 5.761719 1.421875 1.199219 1.984375.5625 4.5625-1.421875 5.761719l-173.097656 109.117187 168.769531-97.40625c1.988281-1.1875 4.566406-.535156 5.75 1.453126 1.1875 1.992187.535156 4.570312-1.453125 5.753906l-71.949219 44.210937 67.660156-39.082031c1.980469-1.117188 4.492188-.449219 5.660157 1.503906s.566406 4.480469-1.355469 5.699219l-75.945312 47.003906 71.65625-41.371093c1.980468-1.203126 4.5625-.574219 5.765624 1.410156 1.203126 1.980468.570313 4.5625-1.410156 5.765625l-120.09375 76.515625 115.746094-66.832032c1.992188-1.183593 4.566406-.53125 5.753906 1.457032 1.1875 1.992187.535156 4.566406-1.457031 5.753906l-5.363281 3.289062 1.074218-.609374c1.976563-1.128907 4.492188-.480469 5.671876 1.46875 1.179687 1.945312.59375 4.476562-1.324219 5.707031l-67.414063 42.671875 63.074219-36.429688c1.972656-1.179687 4.523437-.554687 5.730469 1.398438 1.203125 1.953125.617187 4.515625-1.324219 5.746094l-90.847656 59.644531 86.453125-49.90625c1.945312-1.085938 4.402344-.457031 5.589844 1.429687 1.1875 1.886719.691406 4.371094-1.125 5.660156l-88.132813 60.199219 83.691406-48.304687c1.941407-1.074219 4.382813-.453125 5.574219 1.417968 1.191406 1.871094.71875 4.34375-1.074219 5.648438l-69.097656 48.328125 64.632813-37.289063c1.953124-1.097656 4.429687-.460937 5.613281 1.441407 1.183593 1.902343.664062 4.402343-1.183594 5.675781l-20.304687 13.488281 15.855468-9.148437c1.953125-1.082032 4.410156-.445313 5.59375 1.445312 1.183594 1.894532.675782 4.382813-1.152344 5.664063l-10.25 6.921875 5.816407-3.355469c1.921875-1.101563 4.367187-.519531 5.585937 1.324219 1.222656 1.84375.800782 4.320312-.960937 5.660156l-28.929688 21.738281 24.339844-14.042969c1.925781-1.09375 4.367187-.503906 5.582031 1.34375 1.214844 1.847657.785156 4.324219-.980468 5.65625l-7.457032 5.546876 2.863282-1.675782c1.882812-1.089844 4.28125-.5625 5.535156 1.210938 1.25 1.777344.941406 4.214844-.714844 5.621094l-9.425781 8.054687 4.574219-2.640625c1.632812-.957031 3.707031-.679688 5.035156.667969 1.328125 1.339843 1.597656 3.402343.664062 5.039062l-6.976562 12.085938 1.25-.714844c1.300781-.824219 2.953125-.875 4.296875-.121094 1.347656.75 2.171875 2.179688 2.152343 3.71875-.023437 1.542969-.886718 2.949219-2.25 3.664063l-14.75 8.519531c-1.640624.9375-3.707031.65625-5.046874-.679687-1.335938-1.335938-1.613282-3.402344-.675782-5.046876l6.964844-12.085937-30.886719 17.828125c-1.878906 1.066406-4.257812.535156-5.503906-1.226562-1.242187-1.765626-.949219-4.183594.6875-5.597657l9.40625-7.964843-25.699219 14.832031c-1.925781 1.09375-4.367187.503906-5.582031-1.34375-1.214844-1.851563-.785156-4.324219.980469-5.65625l7.421875-5.523438-21.707031 12.53125c-1.917969 1.101563-4.363282.519531-5.585938-1.324219-1.21875-1.84375-.800781-4.320312.960938-5.660156l28.925781-21.730468-49.800781 28.730468c-1.949219 1.082032-4.410157.445313-5.589844-1.445312-1.183594-1.894532-.675782-4.382813 1.152344-5.664063l10.230468-6.90625-24.339844 14.035157c-1.960937 1.113281-4.453124.480468-5.640624-1.4375-1.191407-1.914063-.652344-4.429688 1.214843-5.691407l20.261719-13.511719-35.761719 20.648438c-1.945312 1.117188-4.425781.503906-5.632812-1.390625-1.203125-1.890625-.703125-4.398437 1.132812-5.6875l69.136719-48.351563-96.019531 55.445313c-1.957031 1.132813-4.457031.519531-5.660157-1.394531-1.203124-1.914063-.675781-4.4375 1.195313-5.707032l88.128906-60.171874-116.625 67.300781c-1.964843 1.117187-4.464843.476562-5.648437-1.449219-1.1875-1.925781-.632813-4.445312 1.25-5.695312l90.847656-59.644532-115.71875 66.804688c-1.285156.773437-2.882812.804687-4.195312.082031s-2.140626-2.09375-2.171876-3.59375c-.027343-1.496094.746094-2.898437 2.027344-3.671875l67.449219-42.683594-86.402344 49.882813c-1.988281 1.1875-4.566406.535156-5.753906-1.457031-1.183594-1.988282-.535156-4.566407 1.457031-5.753907l5.414063-3.355469-18.222657 10.574219c-1.980468 1.203125-4.5625.574219-5.765624-1.410156-1.203126-1.980469-.570313-4.5625 1.410156-5.765625l120.117187-76.515625-145.039062 83.710937c-1.976563 1.070313-4.449219.390626-5.601563-1.539062-1.152344-1.933594-.578125-4.433594 1.304688-5.664062l75.777344-46.871094-93.679688 54.089844c-1.992188 1.1875-4.566406.535156-5.753906-1.457032-1.1875-1.992187-.535156-4.566406 1.457031-5.753906l72.183594-44.324219-89.316407 51.542969c-1.980468 1.199219-4.5625.5625-5.761718-1.421875-1.195313-1.984375-.558594-4.566406 1.425781-5.761719l173.070313-109.117187-201.5 116.324219c-1.996094 1.183593-4.574219.523437-5.753907-1.472657-1.183593-1.996093-.523437-4.570312 1.472657-5.753906l50.21875-30.433594-65.234376 37.671875c-.636718.371094-1.359374.570313-2.097656.570313zm0 0" fill="#636c77"/><path d="m128.914062 287.507812c-1.878906 0-3.53125-1.246093-4.042968-3.054687-.511719-1.808594.242187-3.734375 1.84375-4.71875l48.203125-29.679687-63.898438 36.855468c-1.96875 1.066406-4.429687.402344-5.589843-1.511718-1.160157-1.914063-.613282-4.402344 1.238281-5.65625l151.476562-96.121094-175.5625 101.359375c-1.984375 1.097656-4.480469.421875-5.640625-1.527344-1.15625-1.945313-.558594-4.460937 1.351563-5.683594l59.457031-36.324219-58.367188 33.714844c-1.976562 1.027344-4.410156.332032-5.546874-1.582031-1.136719-1.917969-.578126-4.386719 1.273437-5.628906l42.128906-25.648438-37.855469 21.824219c-1.976562 1.105469-4.476562.445312-5.644531-1.496094-1.171875-1.941406-.589843-4.460937 1.3125-5.691406l163.203125-102.785156-158.871094 91.730468c-1.976562 1.109376-4.476562.449219-5.644531-1.492187-1.171875-1.941406-.589843-4.460937 1.3125-5.691406l136.445313-85.957031-132.121094 76.253906c-1.976562 1.160156-4.515625.519531-5.707031-1.4375-1.191407-1.957032-.59375-4.507813 1.34375-5.730469l138.714843-89.0625-134.351562 77.5625c-1.980469 1.074219-4.453125.394531-5.605469-1.535156-1.152343-1.933594-.578125-4.433594 1.308594-5.664063l29.738281-18.375-25.441406 14.691406c-1.992188 1.183594-4.566406.53125-5.753906-1.457031-1.1875-1.992187-.535156-4.566406 1.457031-5.753906l15.796875-9.769531-11.5 6.636718c-1.976562 1.109376-4.476562.445313-5.644531-1.492187-1.171875-1.941406-.589844-4.460937 1.3125-5.691406l49.394531-31.183594-45.0625 26.023437c-1.972656 1.121094-4.476562.472657-5.660156-1.460937-1.179688-1.9375-.609375-4.460937 1.285156-5.699219l65.050781-42.042968-60.675781 35.023437c-1.949219 1.085937-4.402344.457031-5.59375-1.429687-1.1875-1.886719-.691406-4.375 1.128906-5.660157l82.917969-56.765625-78.453125 45.324219c-1.949219 1.132813-4.449219.523437-5.65625-1.378906-1.207031-1.90625-.691406-4.425781 1.164062-5.707031l62.054688-43.175782-57.5625 33.199219c-1.929688 1.097656-4.382812.5-5.59375-1.363281-1.210938-1.863282-.761719-4.34375 1.027344-5.664063l49.699218-36.167969-45.132812 26.0625c-1.949219 1.15625-4.464844.558594-5.683594-1.351562-1.21875-1.914062-.695312-4.445312 1.175782-5.722656l15.535156-10.914063-11.027344 6.371094c-1.898438 1.078125-4.308594.519531-5.539062-1.28125-1.230469-1.804687-.875-4.25.820312-5.625l24.570312-19.667969-19.851562 11.484375c-1.832031 1.054688-4.160156.585938-5.4375-1.097656-1.28125-1.683594-1.109375-4.054687.402344-5.535156l16.273437-16.011719-11.238281 6.503906c-1.574219.910156-3.554688.699219-4.90625-.515625-1.351562-1.214843-1.765625-3.164062-1.027344-4.824219l5.167969-11.640624c-1.988281.289062-3.902344-.875-4.5625-2.773438s.117187-3.996094 1.851563-5.007812l9.476562-5.457032c1.574219-.90625 3.554688-.699218 4.90625.515625 1.351562 1.214844 1.765625 3.164063 1.027344 4.824219l-4.96875 11.171875 28.613281-16.511719c1.828125-1.039062 4.144531-.566406 5.417969 1.109375 1.273437 1.671875 1.109375 4.03125-.378906 5.515625l-16.277344 16.015625 39.207031-22.640625c1.898437-1.078125 4.304687-.519531 5.539063 1.285156 1.230468 1.800782.871093 4.25-.824219 5.625l-24.566407 19.664063 46.039063-26.574219c1.941406-1.101562 4.40625-.488281 5.609375 1.394532 1.199219 1.882812.714844 4.378906-1.101562 5.675781l-15.539063 10.910156 31.097656-17.980469c1.933594-1.097656 4.386719-.5 5.59375 1.363282 1.210938 1.863281.761719 4.34375-1.027343 5.664062l-49.695313 36.167969 74.835937-43.195313c1.945313-1.113281 4.425782-.503906 5.628907 1.390625s.707031 4.398438-1.132813 5.6875l-62.042968 43.175781 87.015624-50.253906c1.949219-1.082031 4.402344-.453125 5.589844 1.433594s.695313 4.371094-1.125 5.660156l-82.933594 56.789063 110.640626-63.882813c1.976562-1.207031 4.558593-.585937 5.769531 1.390625 1.210937 1.976563.589843 4.5625-1.386719 5.769531l-65.015625 42.003907 85.183594-49.164063c1.984375-1.195312 4.5625-.558594 5.761719 1.425782 1.199218 1.984374.5625 4.5625-1.421876 5.761718l-49.40625 31.121094 66.4375-38.308594c1.980469-1.113281 4.492188-.449218 5.660157 1.503906 1.167969 1.953126.566406 4.480469-1.355469 5.699219l-15.8125 9.753907 29.375-16.980469c1.980469-1.074219 4.453125-.394531 5.605469 1.539062 1.152343 1.933594.578125 4.429688-1.308594 5.664063l-29.84375 18.464844 44.484375-25.644532c1.976562-1.15625 4.515625-.515625 5.707031 1.441406 1.191407 1.953126.59375 4.503907-1.34375 5.726563l-138.726562 89.054687 166.710937-96.222656c1.984375-1.195312 4.5625-.558594 5.761719 1.425782 1.199219 1.984374.5625 4.5625-1.421875 5.761718l-136.351562 85.871094 159.40625-92.042969c1.976562-1.105469 4.476562-.445312 5.648437 1.496094 1.167969 1.941406.585937 4.460937-1.316406 5.691406l-163.226563 102.808594 163.109375-94.171875c1.996094-1.179688 4.570313-.519531 5.75 1.476562 1.179688 1.996094.519531 4.570313-1.476562 5.75l-42.210938 25.707032 37.972657-21.921875c1.988281-1.132813 4.519531-.464844 5.6875 1.503906 1.167968 1.96875.539062 4.511719-1.410157 5.714844l-59.457031 36.277343 55.144531-31.839843c1.984375-1.195313 4.5625-.558594 5.761719 1.425781s.5625 4.5625-1.421875 5.761719l-151.527344 96.203125 147.195313-84.980469c1.976562-1.042969 4.421875-.355469 5.5625 1.5625 1.144531 1.917969.582031 4.398437-1.273438 5.636719l-48.179687 29.671875 43.890625-25.332031c1.972656-1.101563 4.460937-.445313 5.632812 1.484374 1.175782 1.929688.609375 4.441407-1.277344 5.683594l-117.941406 75.542969 113.585938-65.546875c1.96875-1.082031 4.4375-.421875 5.605468 1.492188 1.167969 1.917968.621094 4.414062-1.242187 5.667968l-96.867187 62.339844 92.472656-53.382812c1.957031-1.082032 4.417968-.4375 5.59375 1.464843 1.179687 1.898438.660156 4.390625-1.179688 5.660157l-98.339844 65.226562 93.957032-54.222656c1.960937-1.097656 4.4375-.453125 5.621094 1.457031 1.179687 1.914063.644531 4.414063-1.214844 5.675781l-67.230469 44.34375 62.824219-36.265625c1.964844-1.121093 4.464844-.480469 5.648437 1.445313 1.183594 1.925781.632813 4.445312-1.25 5.695312l-38.800781 25.40625 34.410156-19.859375c1.941406-1.136719 4.433594-.542969 5.652344 1.347657 1.21875 1.894531.730469 4.410156-1.109375 5.703124l-61.59375 44.074219 57.078125-32.941406c1.925781-1.121094 4.390625-.542969 5.613281 1.316406 1.226563 1.863281.785157 4.355469-1.007812 5.683594l-44.734375 33.421875 40.128906-23.175781c1.882812-1.078125 4.28125-.542969 5.523438 1.234375 1.246093 1.78125.929687 4.214844-.730469 5.613281l-33.238281 27.925781 28.445312-16.425781c1.851562-1.074219 4.214844-.582031 5.484375 1.140625s1.039063 4.125-.535156 5.574219l-16.15625 14.976562 11.207031-6.457031c1.5625-.90625 3.535156-.707031 4.886719.492188 1.355469 1.203124 1.785156 3.132812 1.070312 4.796874l-5.875 13.648438c2.035157-.679688 4.253907.289062 5.144531 2.242188.890626 1.953124.160157 4.261718-1.683593 5.351562l-10.132813 5.875c-1.566406.90625-3.535156.710938-4.886718-.492188-1.355469-1.199218-1.785157-3.132812-1.074219-4.792968l5.800781-13.523438-32.597656 18.75c-1.851563 1.078125-4.214844.585938-5.488282-1.136718-1.269531-1.722657-1.039062-4.125.535157-5.578126l16.148437-14.980468-37.527344 21.695312c-1.878906 1.058594-4.257812.519532-5.496093-1.25-1.234375-1.765625-.933594-4.183594.703125-5.589844l33.222656-27.898437-60.234375 34.738281c-1.917969 1.085938-4.351563.5-5.566406-1.34375-1.214844-1.839844-.792969-4.308594.960937-5.648437l44.753906-33.429688-70.027343 40.421875c-1.933594 1.09375-4.386719.488282-5.589844-1.378906-1.207031-1.867188-.746094-4.351562 1.050781-5.660156l61.597656-44.074219-88.542968 51.113281c-1.960938 1.097656-4.4375.457032-5.617188-1.457031-1.183594-1.910156-.648437-4.414063 1.210938-5.675781l38.785156-25.425782-56.402344 32.558594c-1.957031 1.082032-4.417968.4375-5.597656-1.460937-1.175781-1.902344-.65625-4.390625 1.183594-5.664063l67.273437-44.367187-89.214843 51.492187c-1.957032 1.082032-4.417969.4375-5.597657-1.460937-1.175781-1.902344-.65625-4.390625 1.183594-5.664063l98.34375-65.199218-125.289063 72.324218c-1.96875 1.121094-4.472656.476563-5.65625-1.457031-1.183593-1.9375-.613281-4.460937 1.285157-5.703125l96.867187-62.328125-120.410156 69.488281c-1.96875 1.082032-4.4375.425782-5.605469-1.492187-1.171875-1.917969-.625-4.414063 1.238281-5.667969l117.953126-75.539062-143.324219 82.699218c-.636719.382813-1.359375.585938-2.097657.597656zm0 0" fill="#4fc0e8"/><path d="m320.441406 339.027344c-1.121094.003906-2.195312-.445313-2.980468-1.242188-1.34375-1.359375-1.601563-3.453125-.628907-5.097656l3.46875-5.824219c-1.640625-.441406-2.847656-1.828125-3.066406-3.507812-.21875-1.683594.597656-3.332031 2.066406-4.179688l9.425781-5.429687c1.65625-.960938 3.75-.679688 5.09375.683594 1.339844 1.359374 1.59375 3.457031.613282 5.097656l-2.15625 3.628906 16.292968-9.402344c1.992188-1.042968 4.453126-.328125 5.578126 1.617188 1.125 1.949218.515624 4.4375-1.382813 5.644531l-30.214844 17.449219c-.640625.375-1.367187.566406-2.109375.5625zm0 0" fill="#a9b0bb"/><path d="m358.261719 388.230469c-1.839844-.003907-3.46875-1.207031-4.007813-2.96875-.539062-1.761719.132813-3.671875 1.660156-4.703125l.878907-.605469-13.351563 7.679687c-1.9375 1.09375-4.386718.488282-5.59375-1.378906-1.203125-1.867187-.742187-4.351562 1.050782-5.664062l23.863281-17.121094-41.847657 24.164062c-1.929687 1.113282-4.394531.527344-5.613281-1.339843-1.21875-1.863281-.769531-4.359375 1.027344-5.675781l28.730469-21.042969-48.605469 28.058593c-1.917969 1.101563-4.363281.519532-5.585937-1.324218-1.21875-1.84375-.800782-4.320313.960937-5.660156l33.464844-25.179688-55.730469 32.164062c-1.847656.976563-4.128906.449219-5.359375-1.234374-1.230469-1.6875-1.03125-4.023438.464844-5.480469l16.871093-15.058594-37.769531 21.824219c-1.867187 1.0625-4.230469.546875-5.484375-1.195313-1.253906-1.742187-.992187-4.148437.605469-5.578125l15.648437-13.832031-35.714843 20.554687c-1.839844 1.105469-4.21875.648438-5.511719-1.0625-1.296875-1.710937-1.089844-4.125.472656-5.59375l18.324219-17.625-42.101563 24.28125c-1.816406 1.046876-4.132812.59375-5.417968-1.070312-1.28125-1.660156-1.140625-4.015625.332031-5.511719l19.054687-19.210937-44.6875 25.792968c-1.886718 1.066407-4.273437.523438-5.511718-1.253906-1.234375-1.777344-.917969-4.203125.734375-5.605468l11.691406-9.675782-28.664063 16.535156c-1.902343 1.113282-4.34375.5625-5.585937-1.261718-1.242187-1.828125-.855469-4.300782.878906-5.664063l9.234375-7.300781-24.660156 14.269531c-1.914062 1.074219-4.328125.496094-5.546875-1.328125-1.21875-1.820312-.828125-4.277344.894531-5.632812l19.792969-15.183594-38.351563 22.101562c-1.941406 1.046876-4.363281.410157-5.539062-1.457031-1.175781-1.867187-.707031-4.324219 1.074219-5.628906l2.328125-1.601563-15.027344 8.6875c-1.9375 1.125-4.414062.527344-5.628906-1.351562-1.214844-1.882812-.738282-4.386719 1.082031-5.691406l23.988281-17.199219-41.96875 24.242187c-1.902344 1.089844-4.324218.53125-5.558594-1.285156-1.230468-1.816406-.859374-4.273437.859376-5.640625l38.980468-30.785156-63.683594 36.738281c-1.894531 1.070313-4.296874.515625-5.527343-1.28125s-.882813-4.238281.800781-5.621094l39.03125-31.355468-46.105469 26.640625c-1.914062 1.082031-4.339843.503906-5.558593-1.324219-1.21875-1.832031-.820313-4.292969.917968-5.644531l18.667969-14.265625-15.109375 8.710937c-1.855469.929688-4.113281.363281-5.308594-1.332031-1.199218-1.695312-.976562-4.011719.523438-5.449219l12.867187-10.828125-8.074219 4.660156c-1.644531.917969-3.695312.628907-5.023437-.707031-1.328125-1.332031-1.605469-3.390625-.675781-5.027343l8.476562-14.957032-.292968.167969c-1.992188 1.042969-4.453126.328125-5.578126-1.617187-1.125-1.949219-.515624-4.4375 1.382813-5.644532l13.695313-7.914062c1.640624-.949219 3.714843-.679688 5.058593.65625 1.347657 1.332031 1.628907 3.402344.691407 5.050781l-8.527344 14.949219 36.007812-20.757813c1.882813-1.054687 4.257813-.515625 5.496094 1.25 1.238281 1.769531.933594 4.183594-.703125 5.589844l-12.898437 10.828125 30.660156-17.667969c1.910156-1.0625 4.320312-.476562 5.53125 1.347657 1.210937 1.820312.820312 4.265624-.898438 5.621093l-18.640625 14.183594 36.695313-21.152344c1.894531-1.070312 4.296875-.515625 5.527344 1.28125 1.230468 1.796875.882812 4.238281-.800782 5.621094l-39.066406 31.332031 66.308594-38.257812c1.90625-1.089844 4.328125-.53125 5.558594 1.285156 1.234374 1.8125.859374 4.273438-.855469 5.640625l-39.023438 30.808594 65.378907-37.769531c1.9375-1.121094 4.414062-.527344 5.628906 1.355468 1.214844 1.878906.738281 4.382813-1.082032 5.6875l-23.960937 17.191406 35.90625-20.726562c1.945313-1.070312 4.386719-.441406 5.574219 1.4375 1.183594 1.875.703125 4.351562-1.101563 5.648438l-2.519531 1.679687c1.945312-.90625 4.257812-.199219 5.363281 1.632813 1.109375 1.835937.65625 4.210937-1.046875 5.507812l-19.773437 15.183594 19.058593-11.011719c1.90625-1.113281 4.347657-.5625 5.589844 1.265625 1.238282 1.824219.855469 4.296875-.878906 5.660156l-9.277344 7.328125 21.992188-12.601562c1.882812-1.046875 4.257812-.496094 5.488281 1.273437 1.230469 1.769532.917969 4.183594-.71875 5.585938l-11.667969 9.660156 28.636719-16.519531c1.820313-1.046875 4.132813-.589844 5.417969 1.070312 1.285156 1.660157 1.140625 4.015625-.332032 5.511719l-19.050781 19.210938 44.695313-25.792969c1.835937-1.105469 4.214844-.648438 5.511718 1.066406 1.292969 1.710937 1.089844 4.121094-.476562 5.589844l-18.316406 17.628906 42.121094-24.34375c1.863281-1.0625 4.230468-.546875 5.484374 1.195313 1.253907 1.742187.988282 4.148437-.609374 5.578124l-15.636719 13.832032 37-21.359375c1.863281-1.074219 4.238281-.570313 5.496093 1.175781 1.261719 1.742188 1 4.15625-.605468 5.589844l-16.871094 15.039062 80.058594-46.171875c1.917968-1.097656 4.363281-.519531 5.585937 1.324219 1.21875 1.84375.800781 4.320312-.960937 5.660156l-33.464844 25.179688 55.765625-32.164063c1.929687-1.085937 4.371094-.492187 5.578125 1.363281 1.210938 1.855469.769531 4.328126-1.003906 5.65625l-28.753906 21.015626 48.605468-28.035157c1.933594-1.09375 4.386719-.488281 5.589844 1.378907 1.207031 1.871093.746094 4.351562-1.050781 5.664062l-23.886719 17.140625 41.925781-24.183594c1.949219-1.066406 4.394531-.429687 5.574219 1.453125 1.179688 1.882813.683594 4.359375-1.125 5.648438l-.839844.605468 13.351563-7.707031c1.921875-1.082031 4.355469-.496093 5.570312 1.347657 1.210938 1.839843.792969 4.308593-.960937 5.644531l-32.296875 24.066406 44.960937-26.023437c1.90625-1.097657 4.339844-.535157 5.570313 1.285156 1.234375 1.824218.851562 4.289062-.875 5.648437l-31.898438 25.039063 32.585938-18.792969c1.894531-1.058594 4.289062-.496094 5.511719 1.300781 1.222656 1.796875.875 4.226563-.804688 5.605469l-16.785156 13.429687 12.121094-6.992187c1.902343-1.105469 4.335937-.550781 5.574218 1.265625 1.238282 1.816406.863282 4.285156-.859375 5.652344l-2.863281 2.28125c1.230469-.085938 2.433594.386718 3.273438 1.285156 1.34375 1.402344 1.550781 3.539062.503906 5.171875l-7.050782 11.027344c1.808594-.414063 3.679688.386719 4.625 1.980469 1.160157 2.007812.472657 4.574218-1.535156 5.734374l-13.589844 7.847657c-1.667968.949219-3.773437.644531-5.105468-.742188-1.328125-1.390625-1.546875-3.503906-.523438-5.132812l6.847656-10.734375-29.035156 16.667968c-1.898437 1.078126-4.304687.519532-5.535156-1.28125-1.230469-1.804687-.875-4.25.820312-5.625l.519532-.421874-12.691406 7.328124c-1.898438 1.078126-4.304688.519532-5.535157-1.28125-1.234375-1.804687-.875-4.25.820313-5.625l16.785156-13.390624-35.152344 20.296874c-1.902344 1.078126-4.316406.507813-5.539062-1.304687-1.226563-1.8125-.851563-4.261719.855468-5.628906l31.894532-25.019531-55.394532 31.953124c-1.921874 1.085938-4.355468.496094-5.566406-1.34375-1.214844-1.84375-.796875-4.308593.957032-5.648437l32.257812-24.0625-53.792969 31.054687c-.636719.378907-1.359375.585938-2.101562.597657zm0 0" fill="#a9b0bb"/><path d="m265.3125 254.175781c-1.6875.003907-3.214844-1.003906-3.871094-2.5625-.660156-1.554687-.320312-3.351562.859375-4.5625l19.449219-19.941406-26.105469 15.105469c-1.777343 1.023437-4.035156.605468-5.332031-.980469-1.300781-1.585937-1.261719-3.878906.085938-5.421875l9.710937-10.996094-4.464844 2.578125c-1.472656.847657-3.308593.722657-4.652343-.3125-1.347657-1.039062-1.933594-2.78125-1.492188-4.421875l2.21875-8.125c-1.398438-.679687-2.308594-2.074218-2.367188-3.625-.054687-1.554687.75-3.011718 2.097657-3.785156l4.195312-2.425781c1.472657-.855469 3.3125-.734375 4.664063.304687 1.347656 1.035156 1.9375 2.785156 1.488281 4.425782l-1.527344 5.601562 17.902344-10.375c1.78125-1.03125 4.046875-.617188 5.351563.972656 1.304687 1.59375 1.257812 3.898438-.105469 5.4375l-9.710938 10.996094 30.160157-17.40625c1.8125-1.0625 4.132812-.613281 5.425781 1.042969 1.292969 1.660156 1.15625 4.019531-.316407 5.519531l-19.445312 19.945312 45.902344-26.507812c1.820312-1.0625 4.144531-.613281 5.433594 1.054688 1.289062 1.664062 1.144531 4.03125-.339844 5.523437l-19.304688 19.640625 45.382813-26.21875c1.855469-1.128906 4.261719-.65625 5.554687 1.085938 1.289063 1.742187 1.039063 4.183593-.578125 5.628906l-17.953125 16.9375 23.183594-13.429688c1.851562-1.089844 4.230469-.605468 5.507812 1.121094 1.277344 1.730469 1.039063 4.144531-.546874 5.59375l-6.503907 6.042969 1.550781-.898438c1.621094-.929687 3.660157-.679687 5.003907.613281 1.347656 1.296876 1.675781 3.324219.804687 4.976563l-4.078125 7.789063c1.824219.15625 3.339844 1.480468 3.738281 3.265624.402344 1.789063-.40625 3.632813-1.992187 4.550782l-9.410156 5.402344c-1.625.953124-3.683594.707031-5.035157-.601563-1.359374-1.289063-1.699218-3.316406-.839843-4.976563l3.441406-6.546874-21.109375 12.175781c-1.851562 1.09375-4.230469.609375-5.507812-1.121094-1.277344-1.726563-1.039063-4.144531.546874-5.59375l6.503907-6.035156-22.15625 12.785156c-1.855469 1.125-4.261719.65625-5.554688-1.085937-1.289062-1.742188-1.042969-4.183594.574219-5.628907l17.996094-16.871093-41.027344 23.6875c-1.816406 1.035156-4.117188.574218-5.394531-1.078126-1.28125-1.652343-1.148438-3.996093.308593-5.496093l19.304688-19.640625-45.523438 26.28125c-.636718.382812-1.359374.585937-2.101562.585937zm0 0" fill="#f4f6f8"/><path d="m265.296875 176.445312c-1.691406 0-3.21875-1.015624-3.871094-2.578124-.652343-1.558594-.304687-3.359376.882813-4.566407l14.269531-14.425781-35.695313 20.613281c-1.894531 1.09375-4.308593.554688-5.554687-1.238281-1.246094-1.796875-.902344-4.25.785156-5.636719l25.089844-20.714843-35.253906 20.347656c-1.90625 1.082031-4.328125.511718-5.554688-1.304688-1.222656-1.820312-.839843-4.277344.878907-5.636718l27.867187-21.714844-32.917969 19.003906c-1.933594 1.125-4.414062.539062-5.632812-1.335938-1.222656-1.875-.757813-4.378906 1.058594-5.691406l17.507812-12.789062-18.332031 10.582031c-1.917969 1.117187-4.375.546875-5.605469-1.300781-1.226562-1.847656-.804688-4.335938.964844-5.671875l25.378906-19.382813-24.742188 14.269532c-1.871093 1.074218-4.25.550781-5.503906-1.203126-1.253906-1.757812-.96875-4.175781.652344-5.597656l32.5-28.335937-27.648438 15.949219c-1.804687 1.042968-4.105468.605468-5.394531-1.035157-1.292969-1.636719-1.1875-3.972656.25-5.488281l17.171875-18.128906c-2.023437.445312-4.066406-.65625-4.8125-2.585938-.746094-1.933594.027344-4.121094 1.824219-5.152344l23.324219-13.429687c1.804687-1.042969 4.101562-.605469 5.394531 1.027344 1.292969 1.636719 1.191406 3.972656-.238281 5.488281l-16.710938 17.625 40.109375-23.160156c1.871094-1.070313 4.253907-.550782 5.503907 1.207031 1.253906 1.753906.972656 4.171875-.652344 5.59375l-32.496094 28.335937 43.796875-25.28125c1.914063-1.082031 4.339844-.503906 5.558594 1.324219 1.21875 1.832031.816406 4.292969-.917969 5.644531l-25.398438 19.386719 29.375-16.945312c1.933594-1.128907 4.410157-.539063 5.632813 1.335937s.757813 4.378906-1.058594 5.6875l-17.523437 12.792969 17.867187-10.316406c1.910157-1.082031 4.328125-.511719 5.554688 1.304687 1.226562 1.820313.84375 4.277344-.878907 5.636719l-27.875 21.722656 26.289063-15.183593c1.890625-1.09375 4.308594-.554688 5.550781 1.238281 1.246094 1.796875.90625 4.25-.78125 5.636719l-25.082031 20.714843 19.253906-11.097656c1.820313-.988281 4.085938-.503906 5.339844 1.140625 1.257813 1.640625 1.128906 3.957031-.300781 5.449219l-15.839844 16.007812c1.890625.023438 3.527344 1.308594 4.003906 3.136719.476563 1.828125-.328125 3.75-1.964844 4.691406l-23.332031 13.472656c-.628906.363282-1.339843.558594-2.066406.5625zm0 0" fill="#e4e8eb"/><path d="m247.183594 143.164062c-1.609375 0-3.078125-.925781-3.777344-2.378906-.695312-1.453125-.5-3.175781.503906-4.433594l5.457032-6.808593-8.652344 5.035156c-1.664063.957031-3.765625.664063-5.105469-.710937-1.34375-1.378907-1.578125-3.492188-.570313-5.128907l5.699219-9.234375c-2.050781.804688-4.371093-.109375-5.320312-2.097656-.949219-1.984375-.203125-4.367188 1.710937-5.457031l13.757813-7.9375c1.671875-.996094 3.808593-.707031 5.160156.691406s1.5625 3.542969.511719 5.183594l-5.648438 9.164062 13.597656-7.855469c1.75-1.011718 3.96875-.632812 5.285157.902344 1.316406 1.53125 1.351562 3.785156.085937 5.359375l-5.453125 6.796875 2.71875-1.570312c2.003907-1.136719 4.554688-.445313 5.707031 1.550781 1.15625 2 .480469 4.554687-1.511718 5.71875l-22.058594 12.742187c-.644531.332032-1.367188.496094-2.097656.46875zm0 0" fill="#a9b0bb"/><path d="m207.132812 253.933594c-1.808593 0-3.410156-1.15625-3.984374-2.871094-.570313-1.710938.019531-3.597656 1.464843-4.683594l3.179688-2.441406-16.28125 9.398438c-1.917969 1.109374-4.363281.539062-5.589844-1.300782-1.230469-1.839844-.816406-4.320312.9375-5.664062l2.921875-2.222656-15.945312 9.1875c-1.894532 1.082031-4.300782.535156-5.535157-1.257813-1.238281-1.792969-.898437-4.238281.78125-5.621094l10.785157-8.816406-27.21875 15.695313c-1.824219 1.058593-4.144532.597656-5.429688-1.074219-1.28125-1.664063-1.128906-4.023438.351562-5.511719l19.144532-19.304688-36.089844 20.847657c-1.84375.988281-4.132812.46875-5.371094-1.21875-1.234375-1.6875-1.039062-4.027344.460938-5.488281l11.441406-10.449219-7.378906 4.253906c-1.570313.910156-3.542969.707031-4.894532-.496094-1.351562-1.207031-1.777343-3.144531-1.058593-4.804687l5.316406-12.238282c-2.007813.355469-3.980469-.78125-4.675781-2.691406-.699219-1.914062.074218-4.054687 1.835937-5.074218l9.476563-5.480469c1.570312-.90625 3.542968-.707031 4.894531.5s1.78125 3.144531 1.058594 4.804687l-5.144531 11.859375 29.835937-17.222656c1.847656-1.015625 4.164063-.503906 5.410156 1.195313 1.246094 1.703124 1.035157 4.0625-.492187 5.519531l-11.445313 10.457031 29.855469-17.238281c1.816406-1 4.09375-.519531 5.355469 1.128906 1.257812 1.652344 1.121093 3.976563-.320313 5.46875l-19.136718 19.304687 44.910156-25.929687c1.894531-1.078125 4.300781-.53125 5.539062 1.261719 1.234375 1.792968.894532 4.234375-.785156 5.621094l-10.796875 8.824218 27.273437-15.746094c1.917969-1.148437 4.398438-.585937 5.640626 1.273438 1.238281 1.863281.804687 4.367188-.992188 5.699219l-2.894531 2.207031 15.796875-9.105469c1.914062-1.082031 4.339844-.503906 5.558594 1.324219 1.21875 1.832031.816406 4.292969-.917969 5.640625l-3.769531 2.886719c1.742187-.5625 3.648437.070312 4.710937 1.5625 1.0625 1.492187 1.035156 3.5-.070313 4.960937l-11.246093 14.941407 5.875-3.410157c1.488281-.855469 3.351562-.722656 4.699219.34375 1.347656 1.066407 1.910156 2.84375 1.421874 4.492188l-1.925781 6.414062c1.328125.730469 2.15625 2.121094 2.171875 3.632813.011719 1.515625-.789062 2.921875-2.101562 3.675781l-4.199219 2.410156c-1.488281.859375-3.355469.726563-4.703125-.34375-1.351562-1.066406-1.910156-2.851562-1.414062-4.5l1.066406-3.574219-14.570313 8.390626c-1.726562.988281-3.910156.628906-5.226562-.859376-1.320313-1.488281-1.410157-3.699218-.222657-5.292968l11.265626-14.90625-36.519532 21.058594c-.632812.382812-1.355468.589843-2.089844.597656zm0 0" fill="#b4df80"/><g fill="#262626"><path d="m502.78125 332.285156c-3.632812-13.371094-17.054688-19.144531-33.574219-21.277344v-289.277343c-7.964843-31.738281-81.199219-17.519531-104.824219-17.519531h-216.492187c-24.105469 0-77.605469-10.910157-100.144531 4.308593-12.589844 8.519531-10.363282 21.292969-10.363282 34.527344v267.878906c-13.917968 1.550781-25.703124 5.503907-30.90625 14.21875-14.21875 23.734375-4.339843 59.96875 22.882813 62.90625.402344 0 .835937.050781 1.207031.09375 23.726563 29.636719 34.414063 41.839844 71.921875 41.839844h161.03125c49.109375 0 98.773438 2.167969 147.839844 0 33.148437-1.457031 43.921875-17.71875 63.789063-42.804687 26.199218-3.785157 27.699218-20.691407 27.699218-53.953126 0-.09375-.066406-.144531-.074218-.226562.042968-.234375.042968-.476562.007812-.714844zm-453.246094-74.0625v-157.855468c0-18.691407-10.433594-82.046876 10.382813-91.4375 7.125-3.214844 23.878906 0 31.46875 0h254.234375c20.851562 0 103.804687-14.210938 111.40625 16.054687v285.085937c-18.175782.023438-36.34375.996094-54.421875 2.910157-7.761719-.21875-15.511719-.292969-23.222657-.265625-17.335937-1.21875-36.09375-3.167969-50.511718 2.640625-3.453125.164062-6.761719 1.417969-9.453125 3.585937-1.707031 1.523438-2.980469 3.472656-3.683594 5.648438-.46875.535156-.984375 1.015625-1.425781 1.59375-2.8125 3.675781 1.578125 9.324218-3 12.347656-2.414063 1.59375-8.105469-.730469-10.992188 0-11.753906 3.003906-28.414062 0-40.574218 0h-39.625c-15.832032 0-16.847657 1.089844-26.515626-8.191406-.570312-4.699219 0-9.519532-4.199218-12.765625-2.894532-2.015625-6.277344-3.21875-9.792969-3.484375-.65625-.242188-1.175781-.496094-1.957031-.738282-19.167969-5.875-49.226563 0-68.984375 0-11.550781 0-36.585938-3.761718-59.324219-3.214843-5.113281-12.203125.191406-39.039063.191406-51.914063zm344.820313 164.277344h-280.074219c-34.539062 0-47.070312-8.597656-67.480469-33.195312 31.433594 1.46875 64.109375-1.253907 95.105469-1.253907h171.34375 148.847656.4375c-22.242187 27.363281-32.425781 34.449219-68.179687 34.449219zm86.023437-41.96875c-1.492187.605469-3.074218.949219-4.683594 1.015625-1.550781-.238281-3.128906-.199219-4.667968.109375-5.757813-.175781-12.21875-1.125-15.726563-1.125h-385.476562c-28.328125 0-62.28125 5.609375-53.828125-38.542969 4.421875-23.15625 12.757812-21.050781 33.574218-21.050781h71.109376c11.160156 0 42.957031-5.992188 52.433593 0 11.421875 7.21875 3.53125 18.886719 17.777344 24.972656 6.914063 2.0625 14.195313 2.589844 21.335937 1.550782 10.492188.207031 20.988282-.199219 31.433594-1.207032 17.558594.269532 35.25.789063 52.71875-.066406 1.863282 0 3.683594 0 5.472656-.144531 7.398438 1.339843 15.023438-.433594 21.074219-4.902344 4.199219-4.523437 1.300781-17.859375 4.238281-20.203125 2.585938-2.070312 15.277344 0 18.46875 0h81.203126c6.714843 0 17.351562-1.324219 28.101562-1.417969h3.25c14.773438.253907 28.964844 3.359375 32.441406 16.039063.199219 14.1875 4.773438 37.804687-10.25 44.941406zm0 0"/><path d="m70.871094 182.941406v72.644532c0 7.773437-2.800782 22.746093 3.9375 29.007812 15.109375 13.992188 72.292968 3.402344 89.75 3.402344h176.378906c17.921875 0 74.433594 10.65625 90.179688-4.140625 8.578124-8.058594 4.601562-27.269531 4.601562-37.132813v-181.085937c0-12.976563 2.644531-23.890625-11.046875-29.578125-.828125-.3125-1.722656-.414063-2.601563-.304688-.132812 0-.21875-.050781-.359374-.050781h-286.359376c-18.308593 0-56.238281-8.753906-64.480468 13.296875-3.84375 10.238281 0 29.679688 0 40.1875zm12.324218-128.820312c4.75-11.015625.382813-6.128906 11.085938-9.535156 13.511719-4.308594 35.363281 0 49.519531 0h274.46875c15.945313 8.902343 5.160157 98.109374 5.160157 113.585937v70.582031c0 9.449219 5.121093 37.308594 0 45.324219-8.308594 12.992187-58.753907 5.035156-74.207032 5.035156h-222.804687c-8.257813 0-30.871094 4.40625-38.011719 0-14.984375-9.230469-5.210938-76.554687-5.210938-93.050781v-76.765625c0-14.058594-5.617187-42.175781 0-55.175781zm0 0"/><path d="m149.878906 253.957031c1.570313.3125 3.195313.230469 4.726563-.242187 6.90625-.484375 13.269531-1.234375 17.164062-1.234375h26.808594c1.292969.203125 2.609375.203125 3.902344 0h53.71875c1.761719 2.453125 6.984375 2.039062 9.804687 0h100.863282c.5-.027344.996093-.113281 1.476562-.257813 1.5625.015625 3.113281-.269531 4.566406-.839844 17.191406-7.117187 19.941406-37.644531 2.886719-45.753906-14.125-6.714844-46.785156-.125-61.984375-.125h-46.601562c-1.761719-2.453125-6.984376-2.039062-9.804688 0h-16.542969c-1.292969-.203125-2.609375-.203125-3.902343 0h-43.644532c-.546875 0-1.175781-.050781-1.738281-.058594-2.671875-1.992187-6.285156-2.171874-9.140625-.453124-14.957031-1.066407-33.28125-3.230469-45.542969.738281-14.671875 4.742187-27.808593 29.375-13.144531 43.410156 5.011719 4.777344 15.714844 5.296875 26.128906 4.816406zm60.777344-6.496093 29.5625-36.929688h15.335938v36.929688zm138.800781-36.929688c3.492188 0 13.925781-1.863281 17.015625 0 7.613282 4.617188 11.648438 30.300781 3.960938 36.929688h-102.609375v-36.929688zm-120.671875 0-29.5625 36.929688h-38.0625l29.570313-36.929688zm-95.929687 3.441406c4.054687-7.3125 32.8125-3.632812 44.714843-3.457031-9.601562 12.011719-19.207031 24.019531-28.816406 36.015625-14.109375-3.15625-26.070312-14.234375-15.898437-32.574219zm0 0"/><path d="m309.707031 123.238281c0-.132812-.09375-.191406-.109375-.308593-.015625-.117188.144532-.285157.132813-.445313-3.765625-70.109375-112.46875-65.5625-112.863281 2.878906-.371094 71.023438 109.207031 65.335938 112.839843-2.125zm-42.984375-43.265625c18.441406 7.652344 30.554688 25.550782 30.796875 45.515625-1.769531 27.589844-24.988281 53.761719-55.277343 43.644531-19.769532-6.792968-33.023438-25.410156-32.980469-46.3125-.007813-29.320312 27.53125-54.421874 57.460937-42.847656zm0 0"/><path d="m249.097656 143.695312c.566406.105469 1.144532.144532 1.722656.109376.199219 0 .410157-.058594.609376-.070313.386718 0 .773437-.082031 1.175781-.132813 11.203125.023438 20.929687-7.703124 23.445312-18.617187.484375-5.414063-1.382812-10.777344-5.125-14.71875-3.742187-3.945313-9-6.089844-14.433593-5.886719-11.410157-.800781-21.929688 6.191406-25.609376 17.023438-1.046874 5.457031.378907 11.101562 3.894532 15.40625 3.515625 4.304687 8.761718 6.828125 14.320312 6.886718zm.648438-33.003906c6.25-1.570312 12.144531 5.035156 13.65625 10.566406 1.410156 5.113282-.328125 15.6875-7.109375 16.550782-5.90625-.484375-10.949219-4.449219-12.820313-10.070313-1.886718-5.566406-.433594-15.367187 6.246094-17.046875zm0 0"/><path d="m52.371094 346.160156h-8.390625c-2.679688 0-6.398438 2.074219-6.714844 4.976563-.3125 3.199219 3.207031 4.097656 5.648437 4.097656h8.394532c2.675781 0 6.394531-2.066406 6.710937-4.96875.3125-3.199219-3.203125-4.105469-5.648437-4.105469zm0 0"/><path d="m96.152344 347.132812h-8.394532c-3.054687-.238281-6.042968 1.011719-8.015624 3.359376-1.351563 2.433593 1.160156 3.769531 3.359374 3.769531h8.394532c3.054687.238281 6.042968-1.011719 8.015625-3.359375 1.339843-2.433594-1.167969-3.769532-3.359375-3.769532zm0 0"/><path d="m146.824219 176.453125c1.914062 4.097656 11.441406 2.242187 11.816406-2.273437l15.570313-15.578126c1.804687-1.804687 1.367187-3.550781-1.125-4.199218-3.0625-.535156-6.210938.308594-8.59375 2.308594l-5.78125 5.777343v-47.316406c0-6.152344-12.289063-4.195313-12.289063 1.027344v44.339843l-4.894531-4.902343c-2.082032-2.070313-13.050782 2.46875-11.5 4.03125zm0 0"/><path d="m348.375 176.855469.101562.050781c2.417969 3.359375 11.667969 1.199219 11.667969-3.046875v-.257813c.039063-.15625.050781-.3125.039063-.472656l16.09375-16.089844c1.84375-1.855468-1.679688-1.726562-2.78125-1.679687-2.941406.109375-5.78125 1.085937-8.164063 2.8125l-5.1875 5.1875v-48.253906c0-5.875-12.253906-3.734375-12.253906 1.160156v43.988281l-5.039063-5.035156c-3.105468-3.105469-14.644531 1.46875-11.28125 4.835938zm0 0"/></g></svg>