<svg height="508pt" viewBox="0 -1 508.42297 508" width="508pt" xmlns="http://www.w3.org/2000/svg"><path d="m138.421875 129.160156c-1.929687 0-3.621094-1.296875-4.121094-3.160156-.5-1.867188.316407-3.835938 1.988281-4.800781l87.808594-50.671875c1.9375-1.09375 4.390625-.515625 5.632813 1.328125 1.246093 1.84375.867187 4.335937-.871094 5.722656l-17.28125 13.558594 35.710937-20.609375c1.917969-1.097656 4.355469-.550782 5.621094 1.257812s.941406 4.285156-.746094 5.707032l-22.828124 19.082031 45.125-26.046875c1.941406-1.097656 4.398437-.519532 5.644531 1.328125 1.246093 1.851562.859375 4.347656-.890625 5.730469l-15.964844 12.390624 33.695312-19.449218c1.917969-1.0625 4.328126-.503906 5.578126 1.292968 1.253906 1.800782.9375 4.257813-.730469 5.679688l-22.136719 18.320312 43.820312-25.292968c1.878907-1.046875 4.246094-.53125 5.515626 1.203125 1.273437 1.734375 1.054687 4.148437-.507813 5.625l-26.453125 24.046875 53.539062-30.875c1.933594-1.085938 4.378907-.511719 5.625 1.328125 1.242188 1.835937.871094 4.320312-.855468 5.714843l-17.714844 13.949219 36.371094-20.992187c1.941406-1.113282 4.421875-.535156 5.667968 1.328125 1.246094 1.863281.839844 4.375-.933593 5.746093l-14.335938 10.992188 30.132813-17.390625c1.953125-1.144531 4.460937-.566406 5.710937 1.320313 1.253907 1.890624.8125 4.425781-1.003906 5.78125l-10.972656 8.277343 18.433593-10.644531c1.953126-1.109375 4.4375-.511719 5.671876 1.367188 1.238281 1.882812.800781 4.398437-.996094 5.75l-1.707032 1.273437 3.320313-1.921875c1.808594-1.046875 4.113281-.628906 5.4375.992188 1.324219 1.621093 1.28125 3.960937-.105469 5.527343l-16.980468 19.148438 15.289062-8.820313c1.324219-.84375 3-.890625 4.371094-.125 1.367187.761719 2.207031 2.214844 2.1875 3.78125-.023438 1.566406-.902344 2.996094-2.289063 3.722656l-37.949219 21.921876c-1.808593 1.039062-4.101562.617187-5.421874-.996094-1.320313-1.613282-1.285157-3.945313.089843-5.511719l16.953125-19.183594-44.515625 25.691407c-1.957031 1.113281-4.441406.515624-5.675781-1.363282-1.234375-1.882812-.796875-4.398437 1-5.753906l1.707031-1.277344-14.558593 8.394532c-1.953126 1.121093-4.4375.53125-5.679688-1.34375s-.816406-4.394532.976562-5.753907l10.972657-8.261719-26.621094 15.359376c-1.945313 1.117187-4.421875.539062-5.671875-1.324219-1.246094-1.863281-.839844-4.375.933594-5.75l14.378906-11.023438-31.359375 18.097657c-1.9375 1.109374-4.398437.539062-5.652344-1.304688-1.25-1.84375-.871093-4.34375.875-5.734375l17.707031-13.941406-36.34375 20.980469c-1.878906 1.046874-4.246093.53125-5.519531-1.203126-1.273437-1.734374-1.054687-4.144531.507813-5.621093l26.453125-24.046875-53.535157 30.871094c-1.917968 1.066406-4.328124.507812-5.578124-1.292969-1.253907-1.796875-.9375-4.253907.730468-5.675781l22.125-18.324219-43.808594 25.292969c-1.941406 1.101562-4.398437.523437-5.644531-1.324219-1.246093-1.851563-.859375-4.347657.890625-5.730469l15.964844-12.390625-33.695312 19.445313c-1.914063 1.082031-4.335938.53125-5.59375-1.273438-1.257813-1.800781-.945313-4.261719.726562-5.6875l22.820312-19.066406-45.140624 26.027344c-1.9375 1.09375-4.390626.519531-5.636719-1.324219-1.242188-1.84375-.863281-4.335938.875-5.722657l17.296875-13.578124-35.722656 20.625c-.644532.386718-1.378907.597656-2.132813.605468zm0 0" fill="#636c77"/><path d="m62.125 171.222656c-1.871094 0-3.527344-1.226562-4.074219-3.015625-.550781-1.792969.132813-3.734375 1.6875-4.785156l37.03125-25-49.933593 28.789063c-1.964844 1.117187-4.457032.511718-5.6875-1.382813-1.230469-1.894531-.773438-4.417969 1.042968-5.757813l57.070313-41.472656-68.992188 39.824219c-1.878906 1.09375-4.28125.59375-5.574219-1.15625-1.292968-1.75-1.058593-4.195313.542969-5.667969l3.761719-3.492187-6.535156 3.78125c-1.683594.972656-3.8125.6875-5.179688-.695313-1.363281-1.382812-1.621094-3.515625-.625-5.183594l5.214844-8.765624-7.679688 4.414062c-1.4375.824219-3.222656.746094-4.578124-.203125-1.359376-.953125-2.042969-2.605469-1.753907-4.234375l.648438-3.671875c-2.054688.636719-4.261719-.355469-5.148438-2.316406-.886719-1.960938-.175781-4.273438 1.65625-5.398438l7.167969-4.128906c1.4375-.828125 3.226562-.75 4.585938.203125 1.355468.957031 2.039062 2.609375 1.746093 4.242188l-.628906 3.558593 13.875-7.976562c1.664063-.96875 3.769531-.683594 5.117187.691406 1.367188 1.378906 1.625 3.507813.632813 5.179687l-5.1875 8.753907 25.410156-14.625c1.882813-1.078125 4.273438-.574219 5.558594 1.171875s1.054687 4.175781-.53125 5.652344l-3.753906 3.484374 106.503906-61.511718c1.964844-1.113282 4.457031-.507813 5.6875 1.386718 1.230469 1.890626.773437 4.417969-1.046875 5.757813l-57.09375 41.496094 84.238281-48.640625c1.984375-1.085938 4.46875-.4375 5.667969 1.476562 1.199219 1.917969.699219 4.433594-1.144531 5.746094l-68.417969 46.199219c.328125.261719.617188.578125.851562.929687 1.265626 1.816406.925782 4.300782-.777343 5.714844l-17.613281 14.621094c.519531.355468.949218.824218 1.257812 1.371094 1.171875 2.039062.476562 4.640624-1.554688 5.820312l-27.9375 16.136719c-1.917968 1.082031-4.34375.53125-5.601562-1.277344-1.257812-1.804687-.9375-4.273437.746094-5.695313l6.433594-5.332031-24.953126 14.394531c-.644531.382813-1.378906.585938-2.132812.589844zm0 0" fill="#636c77"/><path d="m75.25 115.824219c-1.835938 0-3.464844-1.175781-4.046875-2.917969s.019531-3.660156 1.488281-4.761719l3.777344-2.910156c-1.691406.472656-3.503906-.128906-4.582031-1.519531-1.296875-1.707032-1.125-4.117188.402343-5.621094l21.027344-20.738281-15.941406 9.226562c-1.894531 1.046875-4.273438.511719-5.535156-1.246093-1.261719-1.757813-1.003906-4.183594.59375-5.640626l5.777344-5.121093-6.347657 3.660156c-1.777343 1.027344-4.035156.648437-5.371093-.910156-1.339844-1.554688-1.382813-3.84375-.097657-5.445313l14.042969-17.5625-39.917969 23.039063c-1.875 1.007812-4.207031.476562-5.464843-1.242188-1.253907-1.722656-1.050782-4.105469.480468-5.585937l14.15625-12.730469-33.960937 19.628906c-1.8125 1.035157-4.113281.605469-5.429688-1.015625-1.316406-1.625-1.265625-3.960937.121094-5.523437l17.640625-19.652344-4.269531 2.476563c-1.320313.839843-3 .886718-4.367188.125-1.367187-.765626-2.207031-2.21875-2.1875-3.785157.023438-1.566406.902344-2.996093 2.289063-3.722656l27.554687-15.90625c1.816407-1.046875 4.125-.621094 5.445313 1.007813 1.320312 1.628906 1.261718 3.976562-.136719 5.539062l-17.664063 19.625 46.027344-26.5625c1.875-1.007812 4.207032-.476562 5.464844 1.242188 1.253906 1.71875 1.050781 4.101562-.480469 5.582031l-14.15625 12.75 24.226563-13.976563c1.773437-1.03125 4.03125-.648437 5.371094.910156 1.339843 1.554688 1.378906 3.84375.097656 5.445313l-14.046875 17.546875 23.605469-13.613281c1.894531-1.078125 4.300781-.554688 5.574218 1.214843 1.273438 1.769532 1.007813 4.21875-.617187 5.671876l-5.777344 5.121093 8.019531-4.632812c1.859375-1.058594 4.214844-.578125 5.507813 1.125 1.296875 1.703125 1.128906 4.097656-.386719 5.605469l-21.109375 20.746093 25.085937-14.507812c1.945313-1.117188 4.421876-.535157 5.667969 1.328125 1.25 1.863281.839844 4.375-.933593 5.746094l-3.042969 2.347656 9-5.15625c1.324219-.839844 3-.886719 4.371093-.125 1.367188.765625 2.207032 2.21875 2.183594 3.785156-.019531 1.566406-.898437 2.996094-2.285156 3.722656l-64.710938 37.34375c-.644531.375-1.382812.574219-2.132812.570313zm0 0" fill="#636c77"/><path d="m101.933594 504.628906c-1.816406 0-3.4375-1.152344-4.03125-2.871094s-.035156-3.625 1.394531-4.75l6.828125-5.410156-21.53125 12.425782c-1.894531 1.0625-4.285156.535156-5.554688-1.230469-1.265624-1.765625-1.007812-4.199219.605469-5.65625l15.710938-13.824219-35.890625 20.710938c-1.878906 1.007812-4.210938.476562-5.464844-1.246094-1.253906-1.71875-1.050781-4.101563.480469-5.582032l16.65625-14.984374-37.863281 21.8125c-1.882813 1.109374-4.296876.617187-5.597657-1.140626-1.296875-1.757812-1.058593-4.214843.554688-5.6875l18-16.878906-35.234375 20.394532c-1.933594 1.117187-4.398438.558593-5.660156-1.285157-1.257813-1.839843-.886719-4.339843.855468-5.738281l5.066406-4.078125-2.148437 1.238281c-1.882813 1.109375-4.300781.617188-5.597656-1.140625-1.300781-1.757812-1.058594-4.214843.554687-5.6875l4.121094-3.855469c-1.746094.53125-3.636719-.105468-4.703125-1.582031-1.066406-1.480469-1.078125-3.472656-.023437-4.964843l4.136718-5.828126c-.714844-.378906-1.304687-.953124-1.707031-1.65625-.566406-.980468-.722656-2.144531-.429687-3.242187.292968-1.09375 1.011718-2.027344 1.992187-2.59375l10.050781-5.769531c1.738282-1 3.9375-.660156 5.289063.824218 1.347656 1.480469 1.484375 3.703126.328125 5.339844l-1.417969 1.996094 14.140625-8.160156c1.878906-1.058594 4.257812-.550782 5.535156 1.191406 1.28125 1.738281 1.058594 4.160156-.519531 5.636719l-3.753906 3.5 17.914062-10.328125c1.925781-1.109375 4.386719-.550782 5.644531 1.285156 1.261719 1.835938.898438 4.332031-.832031 5.730469l-5.070312 4.078125 19.226562-11.09375c1.882813-1.125 4.3125-.640625 5.621094 1.125 1.304687 1.765625 1.058594 4.230468-.570313 5.703125l-18.015624 16.894531 41.074218-23.703125c1.875-1.007813 4.207032-.476563 5.460938 1.242187 1.257812 1.722657 1.050781 4.105469-.480469 5.582032l-16.65625 14.988281 37.871094-21.855469c1.894531-1.066406 4.285156-.535156 5.554687 1.230469 1.269532 1.761719 1.007813 4.199219-.605468 5.65625l-15.699219 13.824219 35.890625-20.71875c1.933594-1.109375 4.398437-.539063 5.652344 1.304687 1.25 1.847657.871093 4.34375-.875 5.734375l-6.886719 5.417969 21.605469-12.464844c1.925781-1.085937 4.363281-.523437 5.613281 1.300781 1.25 1.820313.90625 4.296876-.796875 5.703126l-9.890625 8.003906 26.015625-15.019532c1.84375-1.050781 4.183594-.585937 5.484375 1.09375 1.300781 1.675782 1.171875 4.054688-.304688 5.582032l-19.566406 20 41.199219-23.78125c1.828125-1.046875 4.144531-.605469 5.460937 1.042968 1.3125 1.648438 1.226563 4.003907-.203125 5.554688l-17.210937 18.480469 17.484375-10.085938c1.585937-.910156 3.574218-.707031 4.945312.503907 1.371094 1.210937 1.820313 3.160156 1.113282 4.847656l-5.496094 12.960937c2.050781-.417969 4.105468.714844 4.84375 2.675781.738281 1.960938-.054688 4.167969-1.875 5.210938l-9.582032 5.519531c-1.589843.917969-3.589843.714844-4.964843-.5-1.371094-1.21875-1.8125-3.179687-1.09375-4.867187l5.339843-12.59375-31.121093 17.917968c-1.824219 1.046876-4.144531.605469-5.457031-1.042968-1.3125-1.644532-1.226563-4.003906.203124-5.550782l17.210938-18.476562-43.453125 25.054688c-1.84375 1.0625-4.191406.605468-5.5-1.078126-1.308594-1.679687-1.175781-4.070312.3125-5.597656l19.566406-20-46.207031 26.675782c-1.925781 1.082031-4.359375.519531-5.613281-1.300782-1.25-1.824218-.902344-4.296875.800781-5.707031l9.898438-8.003906-26.019532 15.011719c-.644531.386718-1.378906.597656-2.132812.605468zm0 0" fill="#cad0d7"/><path d="m15.851562 470.792969c-1.839843 0-3.46875-1.175781-4.050781-2.917969-.578125-1.742188.019531-3.660156 1.488281-4.761719l41.8125-30.667969-42.664062 24.644532c-1.929688 1.167968-4.433594.632812-5.71875-1.21875-1.28125-1.851563-.90625-4.382813.863281-5.777344l37.648438-31.183594-27.238281 15.695313c-1.832032 1.058593-4.164063.617187-5.480469-1.042969-1.316407-1.65625-1.21875-4.027344.230469-5.570312l18.773437-20.046876-7.984375 4.609376c-1.78125 1.027343-4.039062.636718-5.375-.921876-1.335938-1.5625-1.367188-3.855468-.078125-5.453124l5.800781-7.160157c-.375-.316406-.695312-.699219-.9375-1.125-1.179687-2.042969-.480468-4.652343 1.5625-5.828125l10.066406-5.804687c1.78125-1.015625 4.03125-.621094 5.363282.933593 1.328125 1.558594 1.363281 3.84375.082031 5.441407l-.851563 1.042969 12.867188-7.417969c1.828125-1.046875 4.148438-.601563 5.460938 1.050781 1.3125 1.648438 1.222656 4.007812-.214844 5.554688l-18.773438 20.046874 46.242188-26.652343c1.917968-1.082031 4.34375-.53125 5.601562 1.277343 1.261719 1.804688.9375 4.273438-.746094 5.695313l-37.648437 31.128906 66.109375-38.160156c1.960938-1.132813 4.46875-.535156 5.707031 1.359375 1.238281 1.898438.777344 4.433594-1.046875 5.773438l-41.753906 30.679687 65.519531-37.820313c1.972657-1.121093 4.480469-.5 5.699219 1.414063 1.222656 1.917969.730469 4.453125-1.117188 5.769531l-29.570312 20.710938 48.359375-27.914063c1.960937-1.148437 4.480469-.5625 5.726563 1.339844 1.25 1.902344.785156 4.445313-1.050782 5.785156l-43.109375 31.890625 67.601563-39.023437c1.984375-1.097657 4.484375-.453125 5.683594 1.472656 1.203124 1.925781.6875 4.453125-1.171876 5.753906l-12.253906 8.269531 15.824219-9.128906c1.929687-1.097656 4.375-.53125 5.628906 1.304688 1.25 1.832031.886719 4.320312-.835937 5.71875l-43.433594 34.636718 44.277344-25.558593c1.9375-1.09375 4.390625-.515625 5.636718 1.328125 1.246094 1.839844.863282 4.332031-.875 5.71875l-21.289062 16.660156 19.625-11.351562c1.917969-1.082032 4.34375-.53125 5.601562 1.277343 1.261719 1.804688.9375 4.273438-.746093 5.695313l-11.355469 9.386718 9.308594-5.375c1.753906-1.007812 3.96875-.648437 5.3125.859376 1.34375 1.511718 1.445312 3.753906.242187 5.378906l-10.402343 13.984375 8.714843-5.035157c1.335938-.789062 2.996094-.789062 4.335938 0 1.328125.800782 2.117187 2.257813 2.0625 3.808594l-.304688 8.71875c1.804688.257813 3.246094 1.632813 3.589844 3.421875.339844 1.789063-.492187 3.601563-2.074219 4.507813l-3.882812 2.226562c-1.34375.777344-3.003906.761719-4.332032-.039062-1.332031-.800782-2.121093-2.257813-2.066406-3.8125l.273438-7.625-19.941406 11.507812c-1.753907 1.019532-3.976563.664063-5.328126-.847656-1.347656-1.511719-1.445312-3.761719-.238281-5.386719l10.410157-13.988281-35.097657 20.265625c-1.914062 1.085937-4.339843.53125-5.597656-1.273437-1.261719-1.808594-.9375-4.273438.742187-5.695313l11.359376-9.386719-28.457032 16.433594c-1.914062.925781-4.21875.304688-5.402344-1.460938-1.183593-1.765624-.890624-4.132812.691407-5.554687l21.332031-16.664063-41.136719 23.75c-1.933593 1.09375-4.378906.527344-5.632812-1.304687-1.25-1.835937-.886719-4.320313.835937-5.71875l43.433594-34.648437-72.25 41.722656c-1.988281 1.097656-4.484375.453125-5.6875-1.472656-1.203125-1.925782-.6875-4.453126 1.171875-5.757813l12.320313-8.320313-27.039063 15.574219c-1.960937 1.152344-4.480469.5625-5.730469-1.335937-1.246094-1.902344-.785156-4.449219 1.054688-5.789063l43.074218-31.871093-67.609374 39.039062c-1.976563 1.121094-4.480469.5-5.703126-1.417969-1.21875-1.914062-.726562-4.449219 1.121094-5.765625l29.644532-20.746094-48.476563 27.957032c-.648437.378906-1.382813.578125-2.132813.578125zm0 0" fill="#e4e8eb"/><path d="m41.808594 402.476562c-1.886719-.003906-3.546875-1.242187-4.085938-3.046874-.539062-1.808594.171875-3.753907 1.746094-4.789063l46.347656-30.453125-59.632812 34.390625c-1.996094 1.132813-4.535156.484375-5.742188-1.472656-1.203125-1.957031-.644531-4.519531 1.269532-5.792969l50.894531-33.355469-46.421875 26.796875c-1.988282 1.132813-4.515625.496094-5.730469-1.445312-1.210937-1.941406-.679687-4.492188 1.207031-5.785156l50.671875-34.226563-46.15625 26.648437c-1.96875 1.082032-4.441406.453126-5.652343-1.441406-1.207032-1.894531-.742188-4.402344 1.070312-5.734375l45.328125-31.8125-40.746094 23.519531c-1.957031 1.109376-4.441406.511719-5.675781-1.367187s-.796875-4.394531 1-5.75l36.941406-27.375-32.265625 18.621094c-1.972656 1.136719-4.496093.523437-5.722656-1.394531-1.230469-1.917969-.734375-4.464844 1.121094-5.785157l4.207031-2.976562c-1.976562.878906-4.296875.140625-5.402344-1.71875-1.105468-1.863281-.640625-4.253907 1.078125-5.570313l7.140625-5.460937-2.421875 1.390625c-1.8125 1.050781-4.117187.628906-5.441406-.996094-1.324219-1.621094-1.273437-3.964844.117187-5.53125l13.0625-14.703125-7.738281 4.457031c-1.675781.957032-3.789062.667969-5.148437-.703125-1.359375-1.371093-1.628906-3.484375-.65625-5.152343l3.414062-5.761719c-1.125-.269531-2.089844-.996094-2.660156-2.003907-1.179688-2.039062-.484375-4.648437 1.550781-5.828124l9.601563-5.539063c1.675781-.964844 3.792968-.679687 5.15625.691406 1.363281 1.375 1.632812 3.492188.652344 5.164063l-2.15625 3.675781 16.511718-9.53125c1.808594-1.035156 4.105469-.609375 5.425782 1.003906 1.316406 1.617188 1.277343 3.949219-.101563 5.515625l-13.054687 14.710938 36.785156-21.230469c1.945312-1.101563 4.414062-.511719 5.652344 1.347656 1.238281 1.863281.832031 4.363281-.933594 5.734375l-7.148438 5.464844 21.742188-12.546875c1.96875-1.09375 4.449218-.472656 5.667968 1.425781 1.214844 1.894532.746094 4.410156-1.070312 5.742188l-4.027344 2.859375 17.382813-10.027344c1.957031-1.109375 4.4375-.511719 5.675781 1.367187 1.234375 1.878907.796875 4.398438-1 5.75l-36.890625 27.308594 59.734375-34.476562c1.96875-1.082032 4.441406-.449219 5.652344 1.445312 1.207031 1.894532.742187 4.398438-1.070313 5.730469l-45.335937 31.820313 67.558594-38.996094c1.980468-1.085938 4.464843-.4375 5.664062 1.476562 1.203125 1.914063.699219 4.433594-1.140625 5.742188l-50.671875 34.21875 71.789062-41.386719c1.992188-1.082031 4.484376-.417969 5.671876 1.511719 1.191406 1.925781.664062 4.449218-1.199219 5.742187l-50.902344 33.375 56.800781-32.785156c1.988282-1.082031 4.480469-.421875 5.667969 1.507813 1.191406 1.929687.664063 4.453124-1.199219 5.746093l-46.410156 30.464844 42.015625-24.226563c1.976563-1.105468 4.472656-.472656 5.683594 1.4375 1.214843 1.910157.722656 4.4375-1.117188 5.753907l-56.320312 39.066406 51.804687-29.867187c1.976563-1.089844 4.460938-.449219 5.667969 1.460937 1.203125 1.90625.714844 4.425781-1.117187 5.742187l-28.734376 19.738282 24.210938-13.980469c1.976562-1.152344 4.511719-.542969 5.746094 1.386719 1.234375 1.933594.722656 4.492187-1.15625 5.800781l-18.148438 12.722656 13.582032-7.84375c1.953124-1.117187 4.4375-.527343 5.679687 1.347657s.816406 4.394531-.976563 5.753906l-19.003906 14.257812 14.320313-8.269531c1.929687-1.132813 4.40625-.582031 5.675781 1.265625 1.265625 1.84375.894531 4.355469-.855469 5.75l-11.117187 8.996094 6.320312-3.644532c1.773438-1.027343 4.027344-.648437 5.367188.902344 1.34375 1.554688 1.390625 3.839844.113281 5.445313l-10.480469 13.167969 5.042969-2.910157c1.515625-.875 3.40625-.734375 4.777344.347657 1.371093 1.082031 1.945312 2.894531 1.445312 4.566406l-2.015625 6.691406c1.351563.742188 2.195313 2.152344 2.214844 3.691406.015625 1.539063-.796875 2.96875-2.128906 3.742188l-4.265625 2.464844c-1.515625.867187-3.402344.726562-4.769531-.355469-1.367188-1.082031-1.941407-2.886719-1.445313-4.558594l1.144531-3.824219-15.195312 8.761719c-1.777344 1.03125-4.03125.652344-5.375-.902344-1.339844-1.550781-1.382813-3.839843-.105469-5.445312l10.480469-13.167969-33.878906 19.558594c-1.925782 1.085937-4.359376.523437-5.609376-1.300782-1.253906-1.820312-.90625-4.296874.796876-5.703124l11.09375-8.996094-27.777344 16.035156c-1.949219 1.117188-4.4375.53125-5.675782-1.34375-1.242187-1.878906-.816406-4.394531.976563-5.753906l19.019531-14.363282-37.113281 21.488282c-1.972656 1.121094-4.480469.496094-5.703125-1.417969-1.21875-1.914063-.726562-4.449219 1.121094-5.769531l18.152344-12.730469-34.550782 19.949219c-1.984375 1.136718-4.507812.507812-5.726562-1.425782-1.21875-1.933593-.699219-4.480468 1.175781-5.78125l28.757813-19.75-46.746094 26.984376c-1.980469 1.152343-4.519532.535156-5.75-1.402344-1.226563-1.9375-.703125-4.5 1.183594-5.800782l56.320312-39.089843-80.210938 46.328125c-.65625.394531-1.402343.601562-2.167968.605468zm0 0" fill="#4fc0e8"/><path d="m98.5625 470.742188c-1.632812.003906-3.125-.929688-3.84375-2.398438-.714844-1.46875-.527344-3.21875.484375-4.503906l12.960937-16.53125-19.3125 11.144531c-1.652343.945313-3.726562.683594-5.089843-.644531-1.363281-1.324219-1.6875-3.394532-.789063-5.070313l6.417969-11.949219c-1.457031-.660156-2.421875-2.082031-2.5-3.683593-.074219-1.597657.753906-3.105469 2.140625-3.902344l7.527344-4.332031c1.652344-.957032 3.742187-.699219 5.109375.632812 1.371093 1.332032 1.6875 3.410156.777343 5.089844l-4.804687 8.894531 25.328125-14.558593c1.769531-1.023438 4.015625-.648438 5.355469.894531 1.339843 1.542969 1.398437 3.820312.140625 5.429687l-12.960938 16.527344 27.246094-15.71875c1.847656-1.066406 4.199219-.601562 5.507812 1.085938 1.304688 1.691406 1.160157 4.085937-.335937 5.605468l-4.046875 4.078125 1.46875-.851562c1.316406-.761719 2.941406-.765625 4.257812-.007813 1.320313.761719 2.136719 2.164063 2.140626 3.683594v10.242188c1.816406.222656 3.289062 1.578124 3.65625 3.371093.371093 1.792969-.445313 3.621094-2.023438 4.546875l-3.75 2.167969c-1.320312.746094-2.941406.734375-4.253906-.035156-1.3125-.765625-2.113282-2.175781-2.109375-3.695313v-9.164062l-22.5625 13.019531c-1.847657 1.066406-4.203125.605469-5.507813-1.085937-1.304687-1.6875-1.160156-4.082032.335938-5.601563l4.046875-4.089844-18.835938 10.871094c-.660156.375-1.414062.5625-2.175781.539063zm0 0" fill="#a9b0bb"/><path d="m438.683594 504.628906c-1.808594 0-3.421875-1.144531-4.023438-2.851562-.601562-1.707032-.058594-3.609375 1.355469-4.742188l9.386719-7.597656-25.269532 14.585938c-1.832031 1.046874-4.15625.597656-5.464843-1.058594-1.308594-1.660156-1.210938-4.023438.234375-5.5625l19.816406-20.898438-47.675781 27.519532c-1.925781 1.078124-4.351563.515624-5.605469-1.300782-1.25-1.816406-.910156-4.285156.78125-5.699218l10.453125-8.53125-26.863281 15.53125c-1.855469 1.058593-4.210938.574218-5.503906-1.125-1.296876-1.703126-1.128907-4.101563.386718-5.609376l19.003906-18.644531-43.972656 25.378907c-1.929687 1.125-4.398437.574218-5.664062-1.261719-1.269532-1.839844-.90625-4.34375.832031-5.746094l10.242187-8.277344-26.453124 15.285157c-1.886719 1.414062-4.558594 1.03125-5.972657-.855469-1.414062-1.882813-1.035156-4.558594.851563-5.972657l18.347656-17.441406-40.527344 23.40625c-1.882812 1.128906-4.3125.640625-5.617187-1.121094-1.308594-1.765624-1.0625-4.234374.566406-5.703124l17.066406-16-17.226562 10.035156c-1.886719 1.144531-4.332031.664062-5.644531-1.105469-1.316407-1.773437-1.0625-4.253906.582031-5.722656l4.148437-3.941407c-1.753906.53125-3.652344-.117187-4.714844-1.609374-1.0625-1.492188-1.054687-3.496094.019532-4.980469l3.894531-5.324219c-.644531-.371094-1.175781-.90625-1.546875-1.554688-.566406-.980468-.722656-2.144531-.429688-3.242187.292969-1.09375 1.007813-2.027344 1.992188-2.59375l10.101562-5.820313c1.746094-1 3.957032-.644531 5.300782.855469 1.34375 1.496094 1.457031 3.730469.273437 5.359375l-.734375 1.003906 12.542969-7.167968c1.886719-1.164063 4.351563-.691406 5.671875 1.085937 1.320312 1.78125 1.058594 4.277344-.601562 5.742188l-3.847657 3.636719 18.074219-10.464844c1.882812-1.109375 4.296875-.617188 5.597656 1.140625 1.296875 1.757812 1.058594 4.214843-.554687 5.6875l-17.066407 15.992187 39.507813-22.808594c1.886719-1.1875 4.367187-.726562 5.699219 1.0625 1.328125 1.789063 1.058594 4.296876-.621094 5.761719l-18.339844 17.433594 41.976563-24.234375c1.925781-1.105469 4.378906-.546875 5.636719 1.285156 1.257812 1.828125.902343 4.316406-.816407 5.722656l-10.238281 8.300782 26.519531-15.308594c1.859375-1.058594 4.214844-.574219 5.507813 1.125 1.292968 1.703125 1.128906 4.101562-.386719 5.609375l-19.003906 18.636719 43.980469-25.386719c1.925781-1.097656 4.371093-.542969 5.628906 1.28125 1.257812 1.824219.910156 4.304687-.796875 5.714844l-10.4375 8.492187 26.855469-15.496094c1.832031-1.050781 4.15625-.597656 5.464843 1.058594 1.308594 1.65625 1.207031 4.019532-.234375 5.5625l-19.824218 20.90625 47.710937-27.539062c1.925781-1.089844 4.367187-.523438 5.621094 1.304687 1.25 1.828125.894531 4.308594-.816407 5.710938l-9.386718 7.578125 13.371094-7.679688c1.875-.996094 4.195312-.457031 5.445312 1.257813 1.25 1.714843 1.050781 4.089843-.472656 5.570312l-8.746094 7.824219 5.265625-3.039062c1.601563-.921876 3.613281-.707032 4.984375.53125 1.375 1.238281 1.792969 3.21875 1.039062 4.90625l-5.367187 11.917968c1.792969-.371094 3.617187.457032 4.515625 2.050782 1.179688 2.039062.484375 4.644531-1.554688 5.828124l-9.972656 5.75c-1.601562.921876-3.617187.707032-4.988281-.53125-1.371094-1.238281-1.789063-3.214843-1.039063-4.902343l5.191407-11.648438-29.613281 17.066407c-1.875.992187-4.195313.457031-5.445313-1.257813s-1.050781-4.089844.472656-5.570313l8.71875-7.789062-25.417969 14.617188c-.644531.386718-1.382812.597656-2.136718.605468zm0 0" fill="#cad0d7"/><path d="m288.636719 470.792969c-1.839844 0-3.46875-1.175781-4.050781-2.917969-.578126-1.742188.019531-3.660156 1.488281-4.761719l43.257812-32.015625-43.691406 25.222656c-1.9375 1.148438-4.433594.597657-5.703125-1.261718s-.875-4.382813.898438-5.769532l34.3125-27.417968-24.441407 14.105468c-1.882812 1.128907-4.3125.640626-5.621093-1.121093-1.304688-1.765625-1.058594-4.234375.570312-5.703125l18.132812-16.992188-8.34375 4.824219c-1.742187.992187-3.941406.636719-5.28125-.855469-1.351562-1.476562-1.496093-3.695312-.34375-5.332031l7.894532-11.222656c-1.402344-.703125-2.308594-2.121094-2.355469-3.6875-.042969-1.570313.773437-3.035157 2.132813-3.820313l10.105468-5.828125c1.730469-.996093 3.921875-.65625 5.273438.816407 1.347656 1.476562 1.492187 3.6875.347656 5.328124l-5.265625 7.53125 23.714844-13.652343c1.882812-1.125 4.316406-.640625 5.621093 1.125 1.304688 1.761719 1.058594 4.230469-.570312 5.703125l-18.148438 16.996094 41.257813-23.824219c1.929687-1.09375 4.378906-.527344 5.628906 1.304687 1.253907 1.832032.890625 4.320313-.832031 5.71875l-34.289062 27.367188 59.667968-34.449219c1.953125-1.113281 4.4375-.515625 5.671875 1.367187 1.238281 1.878907.800781 4.394532-.996093 5.75l-43.273438 32.042969 67.847656-39.167969c1.988282-1.117187 4.503906-.46875 5.710938 1.464844 1.203125 1.9375.671875 4.476563-1.203125 5.769532l-6.488281 4.328124 20.0625-11.570312c1.976562-1.121094 4.484374-.5 5.703124 1.414062 1.222657 1.914063.730469 4.449219-1.121093 5.769532l-29.925781 20.992187 48.835937-28.160156c1.96875-1.160156 4.503906-.566406 5.746094 1.351563 1.246093 1.917968.757812 4.472656-1.101563 5.800781l-39.085937 28.328125 52.542969-30.335938c1.941406-1.09375 4.398437-.503906 5.636718 1.347656 1.242188 1.855469.84375 4.351563-.910156 5.726563l-41.234375 31.574219 42.554687-24.566406c1.972657-1.082032 4.441407-.453126 5.652344 1.441406 1.207032 1.894531.742188 4.402344-1.066406 5.734375l-1.851562 1.304687c1.976562-.804687 4.242187-.027344 5.308593 1.824219 1.0625 1.851563.59375 4.203125-1.09375 5.507813l-11.164062 8.53125 9.089843-5.238282c1.925782-1.105468 4.378907-.546875 5.636719 1.28125 1.257813 1.832032.902344 4.320313-.816406 5.722656l-4.933594 4.003907 2.5625-1.46875c1.859375-1.074219 4.230469-.59375 5.527344 1.117187 1.300781 1.710938 1.125 4.121094-.40625 5.625l-4.882813 4.769532 2.296876-1.296876c1.605468-.894531 3.601562-.664062 4.960937.578126 1.355469 1.242187 1.761719 3.214843 1.011719 4.890624l-2.816406 6.136719c2.0625-1.042969 4.578124-.253906 5.675781 1.777344 1.101562 2.03125.386719 4.566406-1.613281 5.722656l-11.394532 6.578125c-1.605468.898438-3.601562.664063-4.960937-.578125-1.355469-1.242187-1.761719-3.210937-1.011719-4.890625l2.816406-6.132812-20.148437 11.59375c-1.859375 1.074218-4.226563.597656-5.527344-1.113282-1.300781-1.710937-1.125-4.121093.410156-5.625l4.871094-4.753906-19.976563 11.519532c-1.925781 1.085937-4.359374.519531-5.609374-1.300782-1.253907-1.824218-.90625-4.296875.796874-5.707031l4.921876-3.992187-19.097657 11.023437c-1.945312 1.125-4.433593.546875-5.679687-1.324219-1.25-1.871094-.832032-4.390625.953125-5.757812l11.171875-8.53125-27.136719 15.65625c-1.976563 1.121094-4.480469.5-5.703125-1.414063-1.222656-1.914062-.726562-4.453125 1.121094-5.769531l1.484375-1.042969-14.292969 8.253907c-1.945312 1.09375-4.402344.507812-5.640625-1.347657s-.839844-4.351562.914063-5.726562l41.230468-31.574219-67.070312 38.683594c-1.96875 1.160156-4.503906.5625-5.746094-1.351563-1.246094-1.917969-.757812-4.476562 1.105469-5.800781l39.0625-28.3125-61.507813 35.507812c-1.972656 1.117188-4.480468.496094-5.703125-1.417968-1.21875-1.914063-.726562-4.449219 1.121094-5.769532l29.933594-21-48.878907 28.21875c-1.996093 1.1875-4.574218.558594-5.800781-1.414062-1.226562-1.972656-.648437-4.5625 1.296875-5.828125l6.503906-4.34375-20.113281 11.605469c-.648437.378906-1.382812.578125-2.132812.578125zm0 0" fill="#e4e8eb"/><path d="m302.289062 402.476562c-1.886718 0-3.550781-1.234374-4.09375-3.042968-.542968-1.808594.167969-3.757813 1.746094-4.792969l54.816406-36-55.464843 32.042969c-2 1.082031-4.5.40625-5.679688-1.539063-1.179687-1.945312-.625-4.476562 1.257813-5.75l5.027344-3.199219-.605469.339844c-1.96875 1.125-4.476563.511719-5.703125-1.398437-1.226563-1.90625-.746094-4.441407 1.09375-5.769531l64.300781-45.761719-59.734375 34.464843c-1.945312 1.101563-4.410156.511719-5.652344-1.347656-1.238281-1.859375-.832031-4.363281.933594-5.734375l51.199219-39.082031-46.488281 26.835938c-1.910157 1.070312-4.320313.523437-5.578126-1.265626-1.257812-1.792968-.957031-4.246093.695313-5.679687l34.476563-29.117187-29.59375 17.066406c-1.816407 1.039062-4.113282.605468-5.429688-1.019532s-1.261719-3.964843.128906-5.523437l18.9375-20.984375-13.652344 7.867188c-1.625.9375-3.667968.707031-5.039062-.570313-1.375-1.277344-1.753906-3.296875-.9375-4.984375l4.710938-9.703125c-1.542969-.058594-2.960938-.851563-3.820313-2.132813-1.179687-2.039062-.484375-4.648437 1.550781-5.828124l9.632813-5.554688c1.621093-.933594 3.664062-.703125 5.03125.570312 1.371093 1.273438 1.753906 3.289063.945312 4.976563l-4.3125 8.890625 25.039063-14.421875c1.816406-1.035156 4.113281-.601563 5.429687 1.023437 1.316407 1.625 1.261719 3.960938-.132812 5.523438l-18.941407 20.992188 47.710938-27.539063c1.910156-1.085937 4.332031-.546875 5.597656 1.253906 1.269532 1.796875.960938 4.261719-.710937 5.691407l-34.480469 29.109374 62.472656-36.054687c1.945313-1.125 4.433594-.542969 5.679688 1.328125 1.25 1.871094.832031 4.386719-.953125 5.753906l-51.199219 39.066406 79.957031-46.148437c1.96875-1.121094 4.476563-.507813 5.703125 1.398437 1.226563 1.910157.746094 4.445313-1.097656 5.769532l-64.253906 45.738281 91.679687-52.90625c2.003907-1.082031 4.503907-.40625 5.683594 1.539063 1.179687 1.945312.625 4.476562-1.261719 5.75l-5.195312 3.308593 15.238281-8.789062c1.992187-1.082031 4.484375-.417969 5.671875 1.511719 1.191406 1.929687.664062 4.449218-1.199219 5.742187l-54.871093 35.996094 53.667968-30.984375c1.988282-1.132813 4.515625-.496094 5.730469 1.441406 1.210937 1.941406.679687 4.492188-1.207031 5.785156l-55.058594 37.203125 50.613281-29.214843c1.984375-1.132813 4.515625-.496094 5.726563 1.441406 1.214844 1.941406.683594 4.492187-1.207032 5.785156l-32.425781 21.878906 27.921875-16.109375c1.984375-1.101562 4.484375-.453125 5.6875 1.472657 1.199219 1.921874.683594 4.453124-1.171875 5.753906l-9.917969 6.640625 5.394532-3.117188c1.972656-1.136719 4.492187-.523437 5.722656 1.394531 1.230469 1.917969.734375 4.464844-1.125 5.78125l-18.363281 13.023438 13.789062-7.960938c1.914063-1.128906 4.371094-.601562 5.652344 1.214844 1.28125 1.8125.957031 4.304688-.746094 5.730469l-27.390625 23.355469 22.570313-13.03125c1.859375-1.058594 4.214843-.574219 5.507812 1.125 1.292969 1.703125 1.128907 4.101562-.386719 5.609375l-13.21875 13.011719 8.125-4.691407c1.71875-.996093 3.894532-.671875 5.25.78125 1.355469 1.453125 1.53125 3.644531.421876 5.292969l-4.367188 6.484375c1.800781-.351563 3.625.46875 4.554688 2.050781 1.179687 2.039063.480468 4.648438-1.558594 5.828125l-14.414063 8.320313c-1.71875.992187-3.898437.667968-5.253906-.785156-1.355469-1.449219-1.527344-3.644532-.421875-5.292969l4.089844-6.082031-21.136719 12.167968c-1.859375 1.058594-4.214844.578125-5.507813-1.125-1.296874-1.703125-1.128906-4.101562.386719-5.609375l13.210938-12.960937-34.261719 19.78125c-1.910156 1.082031-4.328125.542968-5.59375-1.25-1.265625-1.792969-.964844-4.253906.695312-5.6875l27.441407-23.355469-52.546875 30.335937c-1.976563 1.136719-4.496094.523438-5.722656-1.394531-1.230469-1.917969-.734376-4.464843 1.121093-5.785156l18.40625-13.039063-35.070312 20.242188c-1.988281 1.117188-4.503907.46875-5.707031-1.464844-1.207032-1.9375-.675782-4.476562 1.203124-5.769531l9.8125-6.597656-23.996093 13.859375c-1.988281 1.132812-4.515625.496094-5.730469-1.445313-1.214844-1.9375-.679688-4.492187 1.207031-5.785156l32.425781-21.902344-50.515624 29.164063c-1.988282 1.136718-4.515626.496094-5.730469-1.441406-1.214844-1.941407-.679688-4.492188 1.207031-5.785157l55.140625-37.230469-77.070313 44.492188c-.648437.363281-1.382812.550781-2.125.539062zm0 0" fill="#4fc0e8"/><path d="m376.117188 470.742188c-1.636719 0-3.132813-.9375-3.84375-2.414063-.714844-1.480469-.515626-3.234375.507812-4.515625l12.945312-16.210938-24.660156 14.242188c-1.632812.960938-3.707031.734375-5.089844-.5625-1.382812-1.300781-1.742187-3.355469-.882812-5.046875l7.679688-15.273437c-.957032-.339844-1.761719-1.007813-2.269532-1.886719-.570312-.980469-.722656-2.148438-.429687-3.242188.296875-1.097656 1.015625-2.027343 2-2.59375l7.523437-4.335937c1.636719-.96875 3.714844-.738282 5.097656.5625 1.386719 1.300781 1.742188 3.363281.878907 5.054687l-6.4375 12.800781 31.941406-18.390624c1.777344-1.027344 4.035156-.648438 5.371094.910156 1.339843 1.554687 1.382812 3.84375.097656 5.445312l-12.953125 16.214844 22.8125-13.167969c1.84375-1.0625 4.191406-.605469 5.5 1.078125 1.304688 1.679688 1.171875 4.070313-.3125 5.597656l-2.382812 2.449219c1.339843-.609375 2.898437-.480469 4.121093.332031 1.226563.8125 1.945313 2.199219 1.90625 3.667969l-.230469 8.480469c1.769532.300781 3.164063 1.675781 3.488282 3.441406.324218 1.769532-.496094 3.546875-2.046875 4.453125l-3.746094 2.167969c-1.347656.765625-3.003906.742188-4.328125-.0625s-2.109375-2.261719-2.046875-3.8125l.203125-7.335938-19.523438 11.261719c-1.84375 1.050781-4.175781.589844-5.480468-1.085937-1.300782-1.671875-1.179688-4.050782.292968-5.578125l2.320313-2.398438-15.886719 9.15625c-.644531.386719-1.382812.59375-2.136718.597657zm0 0" fill="#a9b0bb"/><g fill="#e3b692"><path d="m339.859375 94.089844c-1.675781 0-3.195313-.980469-3.886719-2.507813-.695312-1.523437-.425781-3.316406.679688-4.574219l7.894531-8.976562-14.875 8.582031c-1.839844 1.0625-4.183594.609375-5.496094-1.066406-1.308593-1.671875-1.183593-4.058594.289063-5.589844l16.214844-16.722656-15.828126 9.113281c-1.824218 1.035156-4.125.59375-5.4375-1.039062-1.3125-1.632813-1.242187-3.976563.164063-5.53125l18.140625-19.765625-12.875 7.449219c-1.703125 1.003906-3.867188.707031-5.238281-.714844-1.367188-1.417969-1.585938-3.59375-.523438-5.257813l7.644531-12.347656c-2.0625.714844-4.332031-.238281-5.257812-2.214844-.929688-1.976562-.21875-4.332031 1.648438-5.464843l13.925781-8.046876c1.703125-1.007812 3.875-.71875 5.25.707032 1.371093 1.421875 1.589843 3.601562.519531 5.265625l-7.550781 12.210937 22.3125-12.882812c1.816406-.980469 4.074219-.519532 5.363281 1.089844 1.285156 1.613281 1.234375 3.917968-.121094 5.472656l-18.167968 19.769531 18.089843-10.382813c1.839844-1.050781 4.171875-.589843 5.476563 1.078126 1.304687 1.671874 1.1875 4.046874-.28125 5.578124l-16.210938 16.722657 10.972656-6.332031c1.808594-1.035157 4.097657-.617188 5.421876.992187 1.324218 1.609375 1.289062 3.941406-.078126 5.511719l-7.894531 8.984375 1.050781-.605469c1.320313-.839844 3-.886719 4.367188-.125 1.367188.765625 2.207031 2.21875 2.1875 3.785156-.023438 1.566406-.902344 2.996094-2.289062 3.722656l-23.507813 13.574219c-.640625.359375-1.359375.546875-2.09375.539063zm0 0"/><path d="m303.355469 94.507812c-1.675781-.003906-3.195313-.984374-3.882813-2.511718-.691406-1.523438-.421875-3.3125.683594-4.570313l1.652344-1.886719-9.460938 5.46875c-1.796875 1.042969-4.078125.640626-5.410156-.949218-1.335938-1.589844-1.332031-3.90625.007812-5.492188l16.351563-19.421875-20.738281 11.945313c-1.921875 1.082031-4.351563.519531-5.601563-1.296875-1.25-1.816407-.914062-4.285157.78125-5.699219l2.558594-2.097656c-1.785156.109375-3.449219-.90625-4.167969-2.542969-.722656-1.636719-.34375-3.546875.941406-4.789063l17.121094-16.519531-12.035156 6.9375c-1.824219 1.046875-4.144531.605469-5.457031-1.042969-1.3125-1.648437-1.226563-4.007812.203125-5.554687l15.835937-17.066406-10.582031 6.101562c-1.726562.992188-3.910156.660157-5.261719-.808593-1.351562-1.464844-1.507812-3.667969-.375-5.308594l6.277344-9.121094c-1.613281.125-3.152344-.707031-3.933594-2.125-1.171875-2.039062-.476562-4.640625 1.554688-5.820312l13.941406-7.996094c1.730469-.992188 3.914063-.65625 5.265625.808594 1.347656 1.464843 1.507812 3.667968.375 5.308593l-5.691406 8.253907 18.773437-10.847657c1.832031-1.074219 4.171875-.636719 5.496094 1.023438 1.320313 1.65625 1.222656 4.035156-.230469 5.582031l-15.847656 17.066406 17.570312-10.207031c1.867188-1.105469 4.269532-.636719 5.578126 1.09375 1.3125 1.730469 1.113281 4.167969-.457032 5.664063l-17.132812 16.554687 12.011718-6.925781c1.925782-1.082032 4.351563-.519532 5.605469 1.296875 1.25 1.816406.910157 4.285156-.78125 5.699219l-2.851562 2.3125c1.308593-.023438 2.558593.535156 3.414062 1.527343 1.335938 1.585938 1.335938 3.90625 0 5.496094l-16.332031 19.421875 10.945312-6.316406c1.808594-1.023438 4.089844-.601563 5.40625 1.003906 1.320313 1.605469 1.289063 3.929688-.070312 5.5l-5.367188 6.09375c.804688.367188 1.472657.976562 1.910157 1.746094 1.179687 2.039062.484375 4.648437-1.554688 5.828125l-14.90625 8.613281c-.648437.378906-1.382812.574219-2.132812.570312zm0 0"/><path d="m251.027344 93.628906c-1.660156 0-3.171875-.960937-3.871094-2.46875-.699219-1.507812-.460938-3.285156.613281-4.554687l12.75-15.101563-15.480469 8.941406c-1.90625 1.09375-4.328124.5625-5.601562-1.226562s-.980469-4.253906.675781-5.695312l5.378907-4.65625c-1.65625-.074219-3.117188-1.097657-3.753907-2.625-.636719-1.527344-.332031-3.285157.78125-4.511719l14.738281-16.28125-17.75 10.242187c-1.902343 1.089844-4.320312.558594-5.59375-1.226562-1.273437-1.78125-.988281-4.242188.664063-5.6875l3.914063-3.414063c-1.683594.460938-3.476563-.148437-4.53125-1.542969-1.050782-1.390624-1.148438-3.285156-.246094-4.777343l7.679687-12.441407c-2.070312.753907-4.375-.191406-5.316406-2.183593-.945313-1.992188-.214844-4.375 1.679687-5.5l13.929688-8.046875c1.699219-1.007813 3.871094-.714844 5.246094.707031 1.371094 1.421875 1.589844 3.601563.519531 5.269531l-7.59375 12.292969 22.367187-12.910156c1.90625-1.113281 4.34375-.585938 5.625 1.210937s.980469 4.273438-.695312 5.710938l-3.328125 2.894531 2.722656-1.597656c1.820313-1.046875 4.132813-.613281 5.449219 1.019531 1.320312 1.636719 1.253906 3.984375-.15625 5.542969l-14.738281 16.289062 10.300781-5.972656c1.898438-1.074219 4.304688-.539063 5.570312 1.238281 1.269532 1.78125.988282 4.226563-.648437 5.671875l-3.617187 3.132813c1.777343-.351563 3.582031.460937 4.503906 2.019531.917968 1.5625.75 3.535156-.417969 4.917969l-12.796875 15.121094 7.054688-4.0625c2.027343-1.058594 4.527343-.332032 5.671874 1.648437 1.144532 1.976563.523438 4.507813-1.40625 5.734375l-28.160156 16.265625c-.640625.390625-1.378906.605469-2.132812.613281zm0 0"/><path d="m218.039062 90.234375c-1.648437-.003906-3.148437-.957031-3.851562-2.445313-.703125-1.492187-.488281-3.253906.558594-4.527343l3.855468-4.703125-12.953124 7.484375c-1.898438 1.101562-4.324219.582031-5.605469-1.199219s-1-4.246094.648437-5.695312l1.066406-.9375-1.1875.679687c-1.84375 1.066406-4.1875.609375-5.496093-1.070313-1.308594-1.679687-1.179688-4.066406.300781-5.59375l16.152344-16.621093-14.695313 8.472656c-1.855469 1.058594-4.210937.578125-5.507812-1.125-1.292969-1.703125-1.128907-4.101563.390625-5.609375l10.765625-10.578125-5.648438 3.257813c-1.734375.996093-3.925781.652343-5.273437-.824219-1.347656-1.476563-1.488282-3.691407-.339844-5.328125l5.972656-8.464844c-1.921875-.015625-3.597656-1.3125-4.089844-3.167969-.496093-1.859375.3125-3.816406 1.972657-4.785156l13.925781-8.046875c1.738281-1.003906 3.9375-.660156 5.289062.820312 1.351563 1.484376 1.484376 3.703126.328126 5.339844l-5.1875 7.324219 17.917968-10.328125c1.863282-1.074219 4.230469-.59375 5.53125 1.117188 1.296875 1.710937 1.121094 4.121093-.410156 5.625l-10.785156 10.589843 12.167968-7.023437c1.84375-1.0625 4.1875-.605469 5.496094 1.074218 1.308594 1.675782 1.179688 4.0625-.300781 5.589844l-16.144531 16.617188 11.835937-6.828125c1.898438-1.082031 4.308594-.558594 5.582031 1.21875 1.273438 1.773437 1 4.222656-.632812 5.675781l-2.976562 2.621094c1.300781-.015625 2.542968.53125 3.410156 1.5 1.324218 1.585937 1.324218 3.886718 0 5.46875l-6.117188 7.453125c1.660156.449219 2.890625 1.855469 3.113282 3.5625.222656 1.707031-.601563 3.378906-2.089844 4.242187l-14.890625 8.601563c-.636719.371093-1.359375.566406-2.097657.566406zm0 0"/></g><path d="m202.414062 95.164062c-1.925781-.003906-3.605468-1.300781-4.105468-3.160156s.308594-3.824218 1.972656-4.792968l42.871094-24.746094c1.863281-1.089844 4.246094-.613282 5.550781 1.105468s1.121094 4.144532-.429687 5.644532l-5.285157 5.121094c.925781.339843 1.699219 1 2.1875 1.859374 1.171875 2.035157.476563 4.640626-1.554687 5.820313l-21.503906 12.40625c-1.863282 1.089844-4.246094.617187-5.550782-1.105469-1.304687-1.71875-1.121094-4.140625.429688-5.644531l.734375-.722656-13.199219 7.628906c-.640625.378906-1.371094.582031-2.117188.585937zm0 0" fill="#efc7a4"/><path d="m233.40625 231.5625c-1.878906-.003906-3.539062-1.238281-4.078125-3.042969-.539063-1.800781.164063-3.746093 1.730469-4.78125l12.800781-8.464843-25.460937 14.691406c-1.992188 1.21875-4.589844.609375-5.835938-1.367188-1.242188-1.972656-.671875-4.578125 1.285156-5.851562l55.773438-38.152344-55.722656 32.164062c-1.992188 1.097657-4.5.433594-5.691407-1.503906-1.191406-1.941406-.652343-4.476562 1.230469-5.757812l3.960938-2.5625c-2.023438.910156-4.40625.121094-5.480469-1.816406-1.078125-1.9375-.492188-4.378907 1.347656-5.613282l12.878906-8.65625-9.824219 5.667969c-1.9375 1.132813-4.417968.570313-5.679687-1.285156s-.871094-4.371094.894531-5.753907l39.515625-31.257812-41.835937 24.097656c-1.902344 1.070313-4.300782.535156-5.566406-1.238281-1.269532-1.773437-.996094-4.214844.632812-5.664063l27.902344-24.261718-33.945313 19.625c-1.878906 1.0625-4.257812.554687-5.535156-1.1875-1.277344-1.738282-1.054687-4.160156.519531-5.636719l16.785156-15.359375-22.1875 12.796875c-1.878906 1.050781-4.246093.535156-5.515624-1.203125-1.273438-1.734375-1.058594-4.144531.507812-5.621094l6.320312-5.769531-9.386718 5.394531c-1.878906 1.074219-4.269532.570313-5.554688-1.175781-1.285156-1.742187-1.058594-4.175781.53125-5.652344l5.289063-4.871093-8.089844 4.667968c-1.878906 1.074219-4.269531.570313-5.554687-1.175781-1.285157-1.746094-1.058594-4.175781.527343-5.652344l.667969-.613281-2.390625 1.371094c-1.796875 1.042968-4.082031.636718-5.414063-.960938-1.328124-1.59375-1.316406-3.914062.03125-5.496094l11.382813-13.390624-15.632813 9.019531c-1.933593 1.140625-4.417968.589843-5.6875-1.261719-1.269531-1.851562-.886718-4.371094.875-5.761719l43.136719-34.644531-43.914062 25.34375c-1.964844 1.117188-4.457031.511719-5.6875-1.382812-1.230469-1.894532-.773438-4.417969 1.046875-5.757813l7.105468-5.171875-.484374.28125c-1.835938 1.046875-4.160157.597656-5.46875-1.0625-1.308594-1.660156-1.203126-4.03125.246093-5.566406l17.917969-18.867188c-2.007812.234375-3.902344-.976562-4.542969-2.894531-.636719-1.917969.160157-4.019531 1.90625-5.035156l23.152344-13.371094c1.835937-1.0625 4.171875-.613281 5.484375 1.050781 1.3125 1.664063 1.207031 4.042969-.253906 5.578125l-17.101563 18.007813 45.578125-26.285156c1.960938-1.113282 4.457032-.507813 5.6875 1.386718 1.230469 1.890625.773438 4.417969-1.046875 5.757813l-7.160156 5.195312 21.386719-12.339843c1.925781-1.089844 4.367187-.523438 5.621094 1.304687 1.25 1.828125.894531 4.308594-.816407 5.710937l-50.707031 40.730469c1.339844.460938 2.367188 1.554688 2.734375 2.921875.371094 1.371094.035156 2.832032-.890625 3.90625l-11.410156 13.328125 14.242187-8.21875c1.882813-1.078125 4.273438-.574219 5.558594 1.171875s1.054687 4.179688-.53125 5.65625l-.683594.628906 8.269531-4.769531c1.882813-1.078125 4.269532-.570312 5.554688 1.171875 1.285156 1.746094 1.058594 4.179688-.527344 5.65625l-5.292968 4.863282 10.105468-5.792969c1.878906-1.046875 4.242188-.53125 5.515625 1.203125 1.273438 1.734375 1.054688 4.144531-.507812 5.621094l-6.3125 5.761718 21.902343-12.636718c1.882813-1.0625 4.257813-.554688 5.539063 1.1875 1.277344 1.738281 1.054687 4.160156-.519531 5.636718l-16.785156 15.359375 38.527343-22.238281c1.898438-1.070312 4.300781-.535156 5.566407 1.238281 1.269531 1.773438.992187 4.21875-.632813 5.667969l-27.90625 24.257812 54.121094-31.222656c1.933593-1.109375 4.398437-.539062 5.648437 1.304688 1.253906 1.847656.875 4.347656-.871094 5.734375l-39.542968 31.269531 66.449218-38.402344c1.996094-1.25 4.628907-.640625 5.878907 1.355469 1.25 2 .640625 4.632813-1.355469 5.882813l-12.800781 8.609374 27.492187-15.882812c2.007813-1.234375 4.636719-.605469 5.871094 1.402344 1.234375 2.007812.609375 4.636718-1.398438 5.871094l-3.566406 2.320312 16.671875-9.625c1.988281-1.15625 4.53125-.527344 5.753907 1.417969 1.222656 1.945312.6875 4.507812-1.210938 5.800781l-55.808594 38.1875 52.050782-30.066406c1.996093-1.113282 4.515624-.460938 5.714843 1.484375 1.199219 1.941406.65625 4.488281-1.234375 5.769531l-12.859375 8.535156 6.972657-4.019531c1.945312-1.101563 4.414062-.511719 5.652343 1.347656s.832031 4.363281-.933593 5.734375l-45.902344 35.167969 21.914062-12.648437c1.953125-1.09375 4.414063-.496094 5.648438 1.367187 1.234375 1.867187.816406 4.367187-.953125 5.734375l-7.269531 5.460938c1.425781-.046876 2.785156.609374 3.632812 1.757812 1.285156 1.761719 1.03125 4.210938-.589844 5.671875l-5.808594 5.242187.453126-.257812c1.757812-1 3.976562-.625 5.3125.894531 1.335937 1.523438 1.417968 3.773438.199218 5.386719l-3.5 4.574219c1.558594-.015625 3.007813.796875 3.804688 2.132812 1.179687 2.039063.484375 4.648438-1.550782 5.828125l-15.703124 9.046875c-1.757813 1.007813-3.984376.636719-5.324219-.886719-1.339844-1.523437-1.421875-3.777343-.195313-5.394531l2.6875-3.507812-16.972656 9.789062c-1.878906 1.019531-4.21875.492188-5.480469-1.230469-1.261719-1.726562-1.050781-4.117187.488281-5.597656l5.828126-5.273437-20.972657 12.101562c-1.953125 1.09375-4.417969.496094-5.648437-1.367187-1.234375-1.867188-.816406-4.367188.953125-5.734375l4.054687-3.046875-17.605468 10.148437c-1.949219 1.125-4.433594.542969-5.683594-1.328125s-.828125-4.386718.957031-5.753906l45.949219-35.167969-73.207032 42.25c-.644531.386719-1.378906.59375-2.132812.605469zm0 0" fill="#efc7a4"/><path d="m507.796875 465.46875c.042969-.214844.042969-.433594 0-.648438-5.648437-22.628906-11.304687-45.257812-16.964844-67.882812v-58.222656c0-14.039063 5.265625-39.875-.101562-53.09375-7.519531-18.542969-48.308594-15.8125-76.800781-13.277344v-28c0-11.367188 1.773437-24.242188-5.359376-34.003906-12.433593-16.992188-42.207031-12.542969-62.0625-11.792969 2.570313-9.339844 6.75-18.160156 12.355469-26.0625 8.871094-12.761719 13.242188-28.109375 12.433594-43.628906h9.6875c24.371094 0 45.371094-3.074219 49.808594-31.171875v-.136719c0-.207031.085937-.386719.109375-.589844.027344-.203125-.058594-.195312-.050782-.316406.007813-.117187.101563-.410156 0-.628906-8.234374-29.347657-34.707031-26.214844-59.75-25.824219 1.027344-10.648438 1.105469-21.371094.238282-32.035156-1.988282-19.769532-27.304688-22.75-42.546875-15.121094 0-.230469 0-.484375 0-.707031 0-.222657-.136719-.417969-.171875-.65625.042968-.191407.0625-.386719.070312-.582031-3.242187-23.847657-41.3125-28.398438-52.5-7.730469-.160156.308593-.261718.648437-.417968.964843-10.363282-5.058593-22.507813-4.925781-32.757813.359376-3.734375 1.894531-6.816406 4.867187-8.839844 8.53125-9.558593-4.566407-20.566406-5.027344-30.472656-1.277344-15.496094 5.621094-15.597656 18.566406-15.460937 32.082031-12.242188 1.46875-23.648438 6.964844-32.429688 15.617187-17.570312-.179687-18.097656-2.363281-30.652344-17.066406-9.644531-11.234375-22.480468-19.269531-36.800781-23.039062-25.171875-6.433594-51.894531.074218-71.289063 17.355468-12.511718 11.265626-25.601562 27.964844-3.609374 31.359376 12.058593.886718 24.164062.886718 36.222656 0 13.96875 0 16.972656-1.183594 19.0625 13.65625 1.164062 8.257812 2.253906 24.96875-4.75 29.011718-7.210938 4.136719-27.367188 0-36.226563 0-10.671875-.035156-28.917969-2.5-26.160156 13.292969 4.800781 27.957031 49.996094 40.175781 73.078125 37.34375 13.023438-1.613281 25.457031-6.386719 36.214844-13.910156 12.417968-8.730469 19.78125-26.878907 34.988281-27.988281 6.753906 9.320312 14.636719 17.769531 23.464844 25.15625 16.164062 14.507812 26.835937 24.746093 33.160156 43.589843h-29.984375c-12.484375 0-27.84375-2.136719-39.851562 2.328125-28.542969 10.613282-22.109376 48.800782-21.289063 74.316406-.367187-.027343-.734375-.027343-1.101563 0-20.199218-.8125-76.867187-10.539062-89.984374 6.492188-8.789063 11.410156-2.707032 41.816406-2.707032 54.769531v62.53125c-5.6875 22.753907-11.375 45.511719-17.066406 68.265625-.042969.3125-.007812.628906.105469.921875 0 .050781-.054688.09375-.054688.144531 0 16.648438-4.554687 28.75 11.792969 34.792969 15.363281 5.691407 43.574219 0 59.683594 0h143.941406c1.292969-.164062 2.558594-.488281 3.769531-.964843 1.285157-.121094 2.554688-.386719 3.78125-.785157 15.359375-6.375 11.539063-19.941406 11.273438-34.859375.097656-.496094.078125-1.003906-.050781-1.492187l-17.066407-68.214844v-58.242187c0-1.707032.085938-3.652344.21875-5.726563h72.535157c.042968 1.109375.121093 2.289063.121093 3.285156v62.671875c.03125.183594.074219.367188.136719.542969-5.519531 22.113281-11.039062 44.191406-16.554688 66.238281-.378906.488282-.585937 1.085938-.597656 1.707032 0 16.859374-4.695312 30.976562 12.5 37.546874 13.515625 5.1875 38.808594 0 53.101563 0h151.699219c.675781-.015624 1.34375-.125 1.988281-.335937.984375-.011719 1.957031-.203125 2.875-.5625 16.570312-6.824219 12.160156-22.03125 12.160156-37.894531-.019531-.136719-.054687-.269532-.09375-.402344zm-206.320313-62.53125h113.289063c.285156.019531.570313.019531.855469 0h63.539062c4.949219 19.832031 9.902344 39.660156 14.863282 59.484375h-63.503907c-1.035156-10.1875-3.625-20.15625-7.679687-29.558594-5.4375-8.738281-24.277344-5.019531-32.847656-5.019531-8.925782 0-25.171876-3.273438-30.777344 5.871094-4.152344 9.082031-6.804688 18.777344-7.851563 28.707031h-67.925781c2.75-6.527344 13.671875-43.734375 18.039062-59.484375zm68.695313 33.859375c4.898437-.316406 9.8125-.300781 14.710937.042969 8.140626-.917969 16.359376-.917969 24.5 0 .558594.15625 1.128907.273437 1.707032.359375-.230469.074219-.378906.339843.125 1.089843 1.210937 2.984376 1.996094 6.125 2.332031 9.328126l3.703125 14.804687h-53.597656c1.175781-8.765625 3.363281-17.363281 6.519531-25.625zm77.191406-153.328125-61.753906 61.832031c-5.429687 5.429688 6.492187 7.316407 10.304687 3.5l65.1875-65.1875c21.699219 1.035157 17.246094 12.757813 17.246094 35.046875v74.863282h-50.074218l27.445312-27.441407c.882812-.976562 1.207031-2.335937.863281-3.605469-.347656-1.269531-1.316406-2.273437-2.570312-2.667968-3.125-1.019532-6.554688-.101563-8.746094 2.347656l-31.371094 31.367188h-62.597656l19.011719-19.019532c.890625-.921875 1.234375-2.246094.902344-3.484375-.332032-1.238281-1.292969-2.214843-2.523438-2.566406-3.121094-.964844-6.523438-.054687-8.738281 2.347656l-22.734375 22.722657h-13.25c-6.945313.644531-13.917969.929687-20.890625.855468.050781-.570312.074219-1.136718.066406-1.707031-.152344-6.460937 0-12.945313 0-19.40625v-9.617187l32.785156-32.785157c5.019531-5.015625-7.074219-4.632812-9.863281-1.84375l-22.921875 22.921875v-27.417968c0-7.414063-3.609375-28.824219 0-35.292969 6.964844-12.511719 40.234375-5.761719 54.90625-5.761719h12.378906l-19.011719 19.011719c-.890624.925781-1.230468 2.25-.902343 3.488281.332031 1.242188 1.289062 2.214844 2.523437 2.570312 3.121094.957032 6.511719.050782 8.738282-2.335937l22.734374-22.734375zm-28.917969-184.507812c-3.832031 23.65625-27.121093 24.671874-47.726562 23.542968-1.214844-1.386718-3.039062-2.078125-4.867188-1.851562-.066406 0-.101562 0-.167968 0h-78.210938c-3.496094 0-8.164062.359375-13.445312.804687h-14.617188c-10.644531.851563-21.332031 1.09375-32 .722657-.359375-.050782-.746094-.09375-1.09375-.160157-.351562-.070312-.769531-.144531-1.160156-.203125-5.53125-.730468-10.695312-3.175781-14.761719-6.992187-19.152343-21.101563 9.273438-17.203125 20.027344-21.332031 3.375-1.285157 6.550781-3.046876 9.4375-5.222657 5.765625 3.996094 12.738281 5.863281 19.726563 5.28125 7.40625.214844 14.546874-2.75 19.628906-8.140625 1.316406 1.578125 2.832031 2.980469 4.503906 4.175782.417969.3125.855469.605468 1.28125.894531.425781.289062.9375.621093 1.441406.851562 10.269532 6.152344 23.296875 5.191407 32.554688-2.394531 1.230468-.371094 2.4375-.8125 3.617187-1.316406.589844.171875 1.296875.351562 2.175781.539062l.511719.144532c4.328125 3.246093 9.523438 5.125 14.925781 5.390624 5.53125 1.78125 11.582032.832032 16.300782-2.558593.777344-.570313 1.480468-1.242188 2.082031-1.996094 1.402344-.835937 2.734375-1.785156 3.984375-2.839844 3.164062-2.773437 5.539062-6.332031 6.878906-10.320312 16.9375-3.746094 45.226563 11.511719 48.972656 22.980469zm-59.496093-57.496094c0 8.53125.1875 17.136718 0 25.683594-.023438 2.179687-.167969 4.359374-.433594 6.519531l-29.175781-1.371094c-.136719-.625-.230469-1.265625-.332032-1.902344 1.542969-11.300781 1.679688-22.75.398438-34.082031 4.53125-15.847656 27.699219-13.109375 29.542969 5.152344zm-72.875-18.832032c1.382812-7.460937 8.050781-12.761718 15.628906-12.429687 7.578125.335937 13.753906 6.199219 14.476563 13.75v18.417969c-.980469 8.929687-.980469 17.9375 0 26.871094v.074218c-.109376 1.375-.296876 2.96875-.597657 4.609375-15.410156 6.636719-24.746093 6.878907-28.160156.851563-.578125-1.726563-1.011719-3.496094-1.296875-5.296875 1.007812-13.265625.941406-26.589844-.195312-39.84375-.050782-.460938-.179688-.851563-.253907-1.304688-.15625-1.910156-.023437-3.832031.398438-5.699219zm-33.542969-5.460937c4.59375-1.097656 9.4375-.222656 13.363281 2.40625s6.574219 6.777344 7.3125 11.441406c.066407 3.679688.308594 7.3125.308594 10.617188 0 8.898437-.632813 18.105469-.054687 27.03125-.039063.574219-.09375 1.179687-.152344 1.800781l-24.480469 7.1875c.46875-.976562.871094-1.984375 1.203125-3.015625.441406-1.371094.800781-2.769531 1.074219-4.1875.78125-2.113281 1.03125-4.382813.734375-6.613281-.195313-2.496094-1.214844-4.851563-2.902344-6.699219.222656.203125-.851562-.308594-2.117188-.90625-1.089843-.746094-2.269531-1.351563-3.515624-1.800781v-16.332032c0-8.121093-.996094-18.328124 9.226562-20.929687zm-48.84375 11.945313c3.414062-3.347657 8.320312-4.679688 12.960938-3.515626 7.152343.617188 12.933593 6.085938 13.941406 13.191407-.179688 4.53125 0 9.191406.222656 13.652343-3.558594-.132812-7.210938-.09375-10.675781-.09375-6.707031 0-13.242188 0-19.539063.378907-.324218-7.535157-1.5625-17.949219 3.089844-23.589844zm-95.226562 118.210937c-25.285157 22.457031-63.984376 20.164063-86.441407-5.117187-3.652343-3.875-10.691406-11.15625-8.535156-12.726563 4.355469-.496094 8.75-.496094 13.101563 0 12.800781 0 30.335937 3.414063 42.582031-.851563 15.863281-5.597656 12.117187-20.914062 12.097656-35.082031-.085937-42.066406-37.792969-12.492187-63.113281-23.875-6.824219-3.0625-19.292969 12.066407 3.464844-13.722656 10.582031-11.785156 25.527343-18.726563 41.363281-19.207031 16.65625-1.386719 33.113281 4.40625 45.226562 15.921875 6.03125 5.53125 9.207031 13.65625 14.8125 18.902343 7.027344 5.863282 16.253907 8.382813 25.285157 6.902344-1.074219 1.707032-2.046876 3.414063-3.730469 6.570313-.179688.429687-.324219.804687-.492188 1.222656-2.132812 4.070313-3.707031 8.40625-4.6875 12.894531-2.222656 7.265625-2.097656 15.046875.367188 22.234375-15.863281 2.261719-15.273438 11.589844-31.300781 25.933594zm61.894531-7.269531c-13.109375-13.492188-18.902344-19.710938-16.871094-39.253906 2.515625-24.199219 23.535156-36.625 46.804687-39.390626 18.875-2.25 61.601563 1.820313 18.421876 23.835938-4.425782.851562-9.28125 1.707031-14.027344 2.796875-5.367188-.859375-10.863282.359375-15.359375 3.414063-1.601563 1.203124-3.105469 2.535156-4.496094 3.976562-6.164063 4.386719-8.414063 10.761719-2.339844 20.617188 4.695313 7.613281 15.53125 11.09375 27.8125 12.585937.894531.222656 1.746094.410156 2.558594.589844 6.007813 6.226562 9.398437 14.515625 9.480469 23.167969.066406 2.882812 12.457031.777343 12.355468-3.3125-.195312-6.160157-1.914062-12.175782-5-17.507813 41.496094 4.324219 87.519532-1.289063 128.921876-1.820313-.855469 17.066407-6.75 27.15625-14.351563 43.316407-11.316406 24.082031-4.722656.246093-11.09375 26.453125-.992187 4.078125 2.25 13.695312 0 16.84375-11.5625 16.171875-67.261719 6.664062-88.6875 6.664062-20.726563 0-21.589844 4.175782-26.785156-15.683594-.503907-1.917968-.933594-3.710937-1.332031-5.453124 1.296874-1.421876 1.40625-2.78125-.753907-3.265626-1.367187-11.136718-6.0625-21.605468-13.472656-30.03125-9.386719-10.554687-21.949219-18.4375-31.785156-28.566406zm-140.367188 147.976562c5.710938-11.09375 38.828125-5.632812 53.121094-5.632812h16.152344l-20.742188 20.746094c-1.914062 1.917968-1.238281 3.976562 1.269531 4.734374 3.125.660157 6.375-.210937 8.746094-2.34375l23.152344-23.136718h68.753906c6.78125-1.214844 13.761719-.675782 20.273438 1.570312-1.066406.257813-2.054688.773438-2.875 1.503906-22.753906 22.753907-45.511719 45.511719-68.265625 68.265626-5.445313 5.445312 6.460937 7.484374 10.339843 3.601562l66.339844-66.339844c.640625 9.316406.339844 18.667969-.90625 27.921875v75.621094h-53.46875l31.078125-31.066406c1.894531-1.90625-1.707031-1.707031-2.824219-1.65625-2.992187.085937-5.886718 1.082031-8.300781 2.847656l-29.867187 29.867187h-65.851563l20.90625-20.90625c1.859375-1.859374 1.347657-3.71875-1.179687-4.402343-3.113282-.585938-6.328125.273437-8.738282 2.335937l-22.96875 22.980469h-11.324218c-7.714844.902344-15.484375 1.222656-23.246094.964844-.105469-.132813-.226562-.25-.359375-.355469 3.414063-1.835938.855469-17.792969.855469-22.25v-9.019531l32.902344-32.902344c5.121093-5.121094-6.988282-5.019531-9.929688-2.082031l-23.042969 22.972656v-27.660156c0-8.402344-3.914062-28.578125 0-36.179688zm-9.480469 147.625c2.816407-11.261718 5.636719-22.53125 8.457032-33.808594h176.878906l15.128906 60.503907h-63.605468l-3.574219-14.285157c-1.09375-4.386718-1.503907-13.109374-5.054688-16.496093-6.058593-5.785157-25.148437-2.148438-32.503906-2.148438-8.464844 0-23.890625-2.664062-29.863281 5.1875-4.535156 8.605469-7.246094 18.054688-7.964844 27.757813h-6.917969c-3.730469 0-12.203125.949218-21.769531 1.792968h-36.480469c-.917969-.246093-1.804687-.59375-2.644531-1.042968 5.75 1.886718 8.515625-21.851563 9.914062-27.441406zm76.304688 1.222656c-.089844-.636718-.332031-1.238281-.699219-1.765624 1.09375 0 2.195313.109374 3.175781.109374h17.144532c5.421875-.414062 10.871094-.414062 16.296875 0 4.753906.757813 3.867187-.121093 5.726562 4.265626 2.6875 7.414062 4.660157 15.066406 5.886719 22.855468h-53.894531l2.429687-9.746094c2.097656-5.007812 3.421875-10.300781 3.933594-15.703124zm-64.484375 61.414063c-19.535156-2.421875-19.628906-10.488281-19.457031-27.714844h210.601562c.648438 9.503907-1.058594 19.023438-4.964844 27.714844h-117.964843c-22.71875 1.359375-45.496094 1.359375-68.214844 0zm186.027344-171.085937c1.246093-13.933594 3.414062-31.75-.683594-41.589844-5.214844-12.417969-14.019531-10.242188-25.675781-10.539063-22.726563-.503906-45.5-.171875-68.269532-.058593-.671874-21.429688-7.4375-64.660157 18.679688-69.53125 19.242188-3.59375 41.941406-.554688 62.03125-.09375.246094.988281.546875 1.859374.777344 2.902343 2.371094 10.589844-1.914063 15.992188 8.207031 22.144531 16.214844 9.871094 55.773437 1.613282 73.855469 1.613282 17.597656 0 49.492187 7.789062 58.105468-12.351563 1.0625-4.847656 1.164063-9.863281.296876-14.753906 21.265624-1.074219 51.457031-3.734375 55.542968 20.652344 1.667969 15.878906 1.816406 31.878906.453125 47.785156-4.191406.351563-7.808593.589844-10.503906.589844-19.628906 0-87.089844-12.484375-99.054687 9.429687-5.675782 10.410156-3.167969 29.558594-2.039063 43.769532zm85.160156 169.34375c-10.808594-1.882813-10.769531 4.003906-17.527344-7.746094-3.410156-5.972656 1.605469-17.023438-.996093-19.378906h28.253906c5.707031.5625 10.90625 1.097656 14.378906 1.097656h25.242188c1.1875.246094 2.410156.246094 3.597656 0h53.222656c3.773438 0 7.5625.054687 11.34375.070312 1.679688.566406 3.503906.566406 5.1875 0 18.890625.136719 37.808594.359375 56.675781-.101562 4.875-.71875 9.820313-.824219 14.722657-.316406-2.9375.101562-.855469 21.171874-5.835938 26.34375h-119.972656c-21.65625.03125-46.949219 3.746093-68.257813.03125zm0 0" fill="#262626"/></svg>