<svg height="503pt" viewBox="-14 0 503 503.35576" width="503pt" xmlns="http://www.w3.org/2000/svg"><path d="m156.300781 443.773438c-1.835937 0-3.46875-1.175782-4.046875-2.917969-.582031-1.742188.015625-3.660157 1.488282-4.761719l22.789062-17.117188-29.949219 17.28125c-1.910156 1.082032-4.328125.542969-5.59375-1.25-1.265625-1.792968-.964843-4.253906.695313-5.6875l26.152344-22.28125-21.253907 12.261719c-1.78125 1.015625-4.03125.621094-5.363281-.941406-1.328125-1.558594-1.359375-3.84375-.074219-5.441406l14.34375-17.671875-8.90625 5.117187c-1.488281.859375-3.34375.742188-4.710937-.296875-1.367188-1.035156-1.976563-2.792968-1.554688-4.453125l2.375-9.261719c-.816406-.359374-1.492187-.972656-1.929687-1.746093-1.175781-2.039063-.480469-4.640625 1.550781-5.820313l4.269531-2.46875c1.484375-.859375 3.339844-.742187 4.710938.292969 1.367187 1.035156 1.984375 2.789063 1.558593 4.453125l-1.757812 6.828125 20.140625-11.625c1.78125-1.023437 4.039063-.632813 5.375.929687 1.332031 1.566407 1.363281 3.855469.070313 5.453126l-14.355469 17.675781 41.746093-24.101563c1.90625-1.082031 4.328126-.542968 5.59375 1.25 1.265626 1.792969.964844 4.253906-.695312 5.6875l-26.164062 22.289063 50.695312-29.269531c1.953125-1.09375 4.414062-.496094 5.648438 1.371093 1.234374 1.863281.816406 4.363281-.953126 5.730469l-22.808593 17.136719 42.042969-24.269531c1.964843-1.113282 4.460937-.496094 5.683593 1.402343 1.226563 1.898438.757813 4.421875-1.066406 5.757813l-12.621094 9.050781 28.160157-16.210937c1.953124-1.128907 4.449218-.539063 5.691406 1.34375 1.242187 1.882812.804687 4.410156-1 5.761718l-22.382813 16.746094 41.363281-23.894531c1.964844-1.148438 4.480469-.550781 5.722657 1.355469 1.242187 1.90625.769531 4.453124-1.074219 5.785156l-17.152344 12.511718 34.132813-19.6875c1.960937-1.105468 4.445312-.5 5.671875 1.386719 1.230468 1.882813.78125 4.402344-1.019532 5.746094l-17.503906 12.800781 19.578125-11.296875c1.960938-1.132812 4.464844-.535156 5.707031 1.359375 1.238282 1.898438.777344 4.433594-1.046874 5.773438l-6.28125 4.601562 1.65625-.957031c1.847656-1.015625 4.164062-.527344 5.445312 1.148437 1.28125 1.679688 1.140625 4.042969-.328125 5.558594l-17.195313 17.175782 12.117188-6.996094c1.65625-.957032 3.742188-.695313 5.113281.632812 1.371094 1.332032 1.6875 3.414063.777344 5.09375l-5.359375 9.949219c2.074219-.917969 4.507812-.050781 5.53125 1.976563 1.027344 2.023437.285156 4.496093-1.683594 5.628906l-12.664062 7.300781c-1.652344.957031-3.742188.699219-5.109375-.632813-1.371094-1.332031-1.6875-3.410156-.777344-5.089843l5.375-9.882813-27.125 15.648438c-1.851563 1.019531-4.167969.527344-5.449219-1.148438-1.28125-1.679687-1.140625-4.039062.328125-5.558594l17.183594-17.167968-41.425781 23.894531c-1.964844 1.132813-4.46875.535156-5.707032-1.363281-1.242187-1.894532-.78125-4.429688 1.046876-5.773438l6.289062-4.605468-20.378906 11.765624c-1.960938 1.105469-4.441406.5-5.671875-1.382812-1.226563-1.886719-.78125-4.402344 1.023437-5.75l17.535156-12.800781-34.679687 19.984375c-1.964844 1.148437-4.484375.550781-5.726563-1.355469-1.242187-1.90625-.769531-4.453125 1.074219-5.785156l17.152344-12.511719-34.132813 19.6875c-1.953124 1.128906-4.449218.539062-5.691406-1.34375-1.246094-1.882812-.808594-4.410156 1-5.765625l22.347656-16.730469-41.371093 23.890625c-1.964844 1.113281-4.460938.496094-5.683594-1.402343-1.226563-1.898438-.757813-4.421876 1.066406-5.757813l12.621094-9.050781-28.117187 16.210937c-.632813.382813-1.359376.589844-2.097657.597657zm0 0" fill="#a9b0bb"/><path d="m254.828125 503.261719c-1.847656.023437-3.503906-1.140625-4.101563-2.890625-.59375-1.75 0-3.683594 1.480469-4.792969l4.8125-3.71875-18.695312 10.792969c-1.847657 1.054687-4.183594.589844-5.484375-1.089844-1.300782-1.675781-1.171875-4.054688.304687-5.582031l19.539063-20.019531-46.199219 26.691406c-1.847656 1.066406-4.195313.605468-5.503906-1.082032-1.304688-1.683593-1.167969-4.074218.324219-5.597656l19.449218-19.730468-45.84375 26.410156c-1.875.996094-4.195312.460937-5.445312-1.253906-1.25-1.714844-1.050782-4.089844.472656-5.570313l16.503906-14.816406-37.546875 21.675781c-1.84375 1.0625-4.183593.609375-5.496093-1.066406-1.308594-1.675782-1.1875-4.058594.289062-5.589844l19.628906-20.273438-46.636718 26.894532c-1.914063 1.09375-4.34375.550781-5.609376-1.25-1.265624-1.804688-.949218-4.277344.730469-5.703125l13.054688-10.980469-30.636719 17.6875c-1.878906 1.078125-4.269531.574219-5.554688-1.171875-1.285156-1.746094-1.058593-4.179687.53125-5.65625l17.246094-15.921875-19.628906 11.308594c-1.699219 1-3.863281.703125-5.234375-.71875-1.371094-1.417969-1.585937-3.59375-.523437-5.257813l9.941406-16.03125-4.183594 2.40625c-2.023438 1.058594-4.527344.332031-5.671875-1.644531-1.144531-1.980469-.523437-4.511719 1.40625-5.738281l18.910156-10.820313c1.699219-1 3.863281-.703125 5.234375.714844 1.371094 1.421875 1.585938 3.597656.523438 5.257812l-9.957032 15.984376 38.101563-21.957032c1.882813-1.078125 4.269531-.570312 5.554687 1.171875 1.285157 1.746094 1.058594 4.179688-.527343 5.65625l-17.265625 15.9375 39.425781-22.757812c1.914063-1.109375 4.359375-.574219 5.632813 1.238281 1.273437 1.808594.949218 4.292969-.742188 5.71875l-13.089844 10.957031 31.121094-17.921875c1.839844-1.050781 4.171875-.589844 5.476562 1.082032 1.304688 1.667968 1.183594 4.042968-.28125 5.574218l-19.625 20.265625 46.667969-26.921875c1.875-1.007812 4.207031-.476562 5.460938 1.246094 1.257812 1.71875 1.050781 4.101562-.476563 5.582031l-16.515625 14.820313 37.546875-21.683594c1.847656-1.050781 4.1875-.582031 5.488282 1.097656 1.300781 1.679688 1.167968 4.0625-.316407 5.585938l-19.4375 19.730468 45.753907-26.453124c1.847656-1.066407 4.195312-.605469 5.5 1.074218 1.308593 1.683594 1.175781 4.070313-.308594 5.597656l-19.535156 20.019532 46.25-26.617188c1.945312-1.109375 4.410156-.527344 5.660156 1.328125 1.246094 1.855469.847656 4.359375-.914063 5.738281l-4.804687 3.71875 18.6875-10.785156c1.878906-1.019531 4.21875-.492187 5.480468 1.230469 1.261719 1.726563 1.054688 4.117187-.488281 5.597656l-16.734375 15.050781 38-21.878906c1.855469-1.042968 4.195313-.558594 5.484375 1.136719 1.292969 1.691406 1.136719 4.078125-.363281 5.589844l-19.097656 18.875 39.765625-22.964844c1.910156-1.105469 4.351562-.570313 5.625 1.234375 1.273437 1.804688.957031 4.285156-.726563 5.710938l-10.804687 9.191406 17.382812-10.035156c1.859375-1.058594 4.210938-.578126 5.507813 1.125 1.292968 1.703124 1.128906 4.101562-.386719 5.609374l-10.113281 9.964844 5-2.882812c1.644531-.949219 3.71875-.695313 5.085937.625 1.371094 1.316406 1.703125 3.378906.820313 5.058594l-4.113282 7.808593c1.851563.175781 3.371094 1.53125 3.761719 3.351563.390625 1.816406-.441406 3.679687-2.054687 4.601562l-9.585938 5.519532c-1.644531.960937-3.730468.710937-5.105468-.613282-1.371094-1.320312-1.703126-3.394531-.804688-5.078125l3.410156-6.496093-21.058594 12.160156c-1.859374 1.058594-4.214843.578125-5.507812-1.125-1.292969-1.699219-1.128906-4.097656.386719-5.605469l10.121093-9.96875-28.945312 16.699219c-1.90625 1.085937-4.328125.546875-5.59375-1.246094s-.964844-4.253906.695312-5.691406l10.796876-9.1875-27.972657 16.125c-1.855469 1.046875-4.199219.5625-5.488281-1.132813-1.289062-1.691406-1.132812-4.078125.367188-5.589843l19.097656-18.875-44.375 25.597656c-1.875 1.023437-4.21875.496094-5.480469-1.230469-1.261719-1.722656-1.050781-4.113281.492187-5.59375l16.714844-15.070313-37.980468 21.894532c-.644532.390625-1.382813.601562-2.132813.609375zm0 0" fill="#a9b0bb"/><path d="m197.953125 469.117188c-1.839844 0-3.46875-1.175782-4.050781-2.917969-.578125-1.742188.019531-3.660157 1.488281-4.761719l3.347656-2.558594-16.71875 9.640625c-1.835937 1.0625-4.171875.613281-5.484375-1.050781s-1.207031-4.039062.253906-5.578125l19.753907-20.769531-47.46875 27.398437c-1.9375 1.109375-4.398438.542969-5.652344-1.304687-1.253906-1.84375-.871094-4.34375.871094-5.734375l7.449219-5.878907-22.398438 12.917969c-1.933594 1.101563-4.386719.535157-5.640625-1.304687s-.878906-4.332032.851563-5.726563l7.535156-5.972656-22.527344 13.003906c-1.84375 1.050781-4.175781.589844-5.480469-1.085937-1.300781-1.671875-1.175781-4.046875.292969-5.578125l21.53125-22.074219c-1.851562-.171875-3.375-1.515625-3.777344-3.328125s.414063-3.675781 2.019532-4.609375l22.261718-12.816406c1.84375-1.050782 4.175782-.589844 5.480469 1.085937 1.304687 1.671875 1.179687 4.050781-.292969 5.578125l-19.53125 20.035156 46.257813-26.699218c1.933593-1.101563 4.390625-.535156 5.640625 1.304687 1.253906 1.839844.882812 4.332031-.851563 5.726563l-7.527343 5.972656 22.527343-13.003906c1.9375-1.132813 4.421875-.570313 5.679688 1.285156 1.261719 1.855469.871093 4.371094-.890625 5.753906l-7.433594 5.871094 22.390625-12.910156c1.835937-1.046875 4.160156-.597656 5.46875 1.0625 1.308594 1.664062 1.203125 4.03125-.246094 5.566406l-19.746093 20.773438 47.523437-27.453126c1.945313-1.117187 4.421875-.535156 5.667969 1.328126 1.246094 1.863281.839844 4.371093-.933594 5.746093l-3.363281 2.558594 16.726562-9.648437c1.882813-1.109376 4.300781-.617188 5.597657 1.140624 1.300781 1.757813 1.058593 4.210938-.554688 5.683594l-17.757812 16.503906 40.414062-23.328124c1.832031-1.0625 4.164062-.621094 5.480469 1.039062 1.316406 1.65625 1.21875 4.03125-.230469 5.574219l-19.839844 21.074219 47.785156-27.585938c1.90625-1.09375 4.328126-.566406 5.601563 1.226562 1.273437 1.789063.980469 4.253907-.679687 5.691407l-14.785157 12.800781 20.726563-11.945312c1.789062-1.03125 4.0625-.632813 5.394531.949218 1.328125 1.578125 1.335937 3.886719.015625 5.476563l-13.261719 15.90625 21.648438-12.492188c1.746093-1.003906 3.953125-.652343 5.300781.84375 1.34375 1.496094 1.460938 3.730469.28125 5.359375l-5.972656 8.242188 11.40625-6.578125c1.351562-.777344 3.015625-.757813 4.347656.050781 1.328125.808594 2.113281 2.277344 2.046875 3.832031l-.394531 8.824219 6.519531-3.757812c1.789063-1.03125 4.058594-.636719 5.394531.941406l4.214844 5c2.082031-.707032 4.359375.285156 5.261719 2.292968.902343 2.003907.128906 4.367188-1.78125 5.453126l-2.363281 1.359374c-1.789063 1.03125-4.0625.632813-5.390626-.949218l-4.15625-4.921875-10.171874 5.863281c-1.355469.769531-3.015626.753906-4.351563-.042969-1.332031-.8125-2.113281-2.285156-2.042969-3.839843l.394532-8.824219-22.074219 12.695312c-1.746094 1.007813-3.953125.65625-5.300781-.835937-1.347657-1.496094-1.46875-3.726563-.289063-5.359375l5.972656-8.25-25.019531 14.445312c-1.789062 1.039063-4.066406.644531-5.402344-.9375-1.332031-1.585937-1.332031-3.898437 0-5.488281l13.261719-15.90625-38.699219 22.332031c-1.902344 1.09375-4.320312.5625-5.59375-1.222656-1.273437-1.785156-.988281-4.242187.660156-5.6875l14.796876-12.800781-34.183594 19.710937c-1.832032 1.050781-4.152344.601563-5.464844-1.050781-1.308594-1.65625-1.214844-4.019531.226562-5.5625l19.832032-21.074219-47.960938 27.6875c-1.882812 1.109375-4.296875.617188-5.597656-1.140625-1.296875-1.757812-1.058594-4.210937.554688-5.683594l17.769531-16.511718-40.433594 23.335937c-.652344.390625-1.398437.597657-2.15625.597657zm0 0" fill="#cad0d7"/><path d="m39.503906 400.859375c-1.882812 0-3.546875-1.238281-4.085937-3.046875-.539063-1.804688.171875-3.75 1.75-4.785156l4.964843-3.269532-15.265624 8.789063c-1.960938 1.121094-4.453126.523437-5.691407-1.363281-1.234375-1.890625-.789062-4.414063 1.023438-5.761719l51.71875-38.203125-59.875 34.558594c-1.945313 1.117187-4.421875.539062-5.671875-1.324219-1.246094-1.863281-.839844-4.375.933594-5.75l42.847656-32.921875-42.105469 24.3125c-1.953125 1.101562-4.425781.503906-5.660156-1.367188-1.234375-1.871093-.808594-4.382812.976562-5.742187l17.65625-13.132813-12.980469 7.441407c-1.859374 1.074219-4.230468.597656-5.53125-1.113281-1.296874-1.710938-1.121093-4.121094.410157-5.625l20.703125-20.300782-15.597656 9.035156c-1.628907.945313-3.679688.714844-5.058594-.570312-1.375-1.28125-1.746094-3.3125-.917969-5.003906l8.304687-16.867188c-1.28125-.792968-2.050781-2.199218-2.027343-3.707031.027343-1.507813.847656-2.886719 2.15625-3.632813l5.972656-3.457031c1.628906-.949219 3.6875-.71875 5.0625.566407 1.378906 1.289062 1.75 3.328124.910156 5.015624l-6.527343 13.234376 32.632812-18.773438c1.859375-1.074219 4.226562-.59375 5.527344 1.117188 1.300781 1.710937 1.125 4.121093-.410156 5.625l-20.683594 20.273437 46.839844-27.015625c1.953124-1.101562 4.425781-.503906 5.660156 1.367188 1.234375 1.875.808594 4.382812-.976563 5.742187l-17.628906 13.148437 35.105469-20.265624c1.945312-1.117188 4.421875-.535157 5.671875 1.328124 1.246093 1.863282.835937 4.371094-.933594 5.746094l-42.863281 32.886719 69.316406-40.011719c1.957031-1.121094 4.453125-.523437 5.6875 1.363282 1.238281 1.886718.789062 4.414062-1.019531 5.761718l-51.707031 38.160156 78.507812-45.328124c1.992188-1.082032 4.484375-.421876 5.671875 1.507812 1.191406 1.929688.664063 4.453125-1.199219 5.746094l-4.984375 3.265625 18.261719-10.527344c1.988281-1.15625 4.53125-.527344 5.753906 1.417969 1.222656 1.945312.6875 4.507812-1.214844 5.800781l-31.921874 21.90625 50.347656-29.082031c1.972656-1.105469 4.46875-.472656 5.683594 1.4375 1.210937 1.910156.71875 4.4375-1.121094 5.753906l-38.917969 27.085938 59.390625-34.289063c1.960938-1.105469 4.441406-.496094 5.671875 1.386719 1.230469 1.886718.78125 4.402344-1.019531 5.75l-52.054688 38.066406 78.300782-45.226562c1.988281-1.132813 4.515624-.496094 5.730468 1.441406 1.214844 1.941406.679688 4.492187-1.207031 5.785156l-27.078125 18.347656 44.316406-25.601562c1.960938-1.117188 4.457032-.507813 5.6875 1.386718 1.230469 1.890626.769532 4.417969-1.046875 5.757813l-51.199219 37.273437 76.953126-44.425781c1.960937-1.105469 4.441406-.5 5.671874 1.386719 1.230469 1.886719.78125 4.402344-1.019531 5.746094l-52.992187 38.90625 79.75-46.082032c1.960937-1.105468 4.445312-.5 5.671875 1.386719 1.230469 1.886719.78125 4.402344-1.019531 5.746094l-52.53125 38.46875 79-45.609375c1.960937-1.121094 4.453124-.523438 5.691406 1.363281 1.238281 1.890625.789062 4.414063-1.023438 5.761719l-54.210937 40.105469 81.757812-47.195313c1.992188-1.15625 4.539063-.519531 5.757813 1.433594s.667968 4.519531-1.242188 5.800781l-24.109375 16.214844 40.6875-23.484375c1.988281-1.132812 4.515625-.496094 5.730469 1.445312 1.214844 1.9375.679688 4.488282-1.207031 5.78125l-25.300781 17.066407 42.128906-24.320313c1.988281-1.113281 4.503906-.46875 5.707031 1.46875 1.207031 1.933594.675781 4.476563-1.203125 5.769532l-21.808594 14.644531 25.753906-14.839844c1.945313-1.109375 4.421876-.523437 5.664063 1.347656 1.238281 1.867188.824219 4.375-.957031 5.742188l-48.273438 36.515625 48.566406-28.035156c1.925782-1.089844 4.367188-.523438 5.617188 1.304687 1.253906 1.828125.898438 4.308594-.8125 5.710937l-34.324219 27.554688 29.527344-17.066406c1.898437-1.105469 4.328125-.582032 5.609375 1.203125 1.28125 1.785156.996094 4.253906-.660156 5.699219l-18.628906 16.34375 13.652343-7.894532c1.761719-1.007812 3.988281-.640625 5.328125.882813 1.339844 1.523437 1.421875 3.78125.195313 5.398437l-9.574219 12.570313c1.726562-.234375 3.425781.589843 4.316406 2.089843 1.179688 2.039063.480469 4.648438-1.5625 5.828126l-16.417968 9.480468c-1.753907.953125-3.9375.5625-5.25-.941406-1.316407-1.503906-1.410157-3.71875-.226563-5.332031l9.105469-11.945313-32.796875 18.875c-1.894531 1.082032-4.304688.558594-5.578125-1.21875-1.277344-1.773437-1.003906-4.222656.628906-5.675781l18.621094-16.332031-40.25 23.226562c-1.929688 1.089844-4.371094.523438-5.621094-1.300781-1.253906-1.828125-.898438-4.308594.816406-5.714844l34.304688-27.535156-59.863282 34.550781c-1.9375 1.035156-4.347656.429688-5.5625-1.402344-1.21875-1.828124-.84375-4.285156.859376-5.671874l48.28125-36.515626-75.585938 43.589844c-1.984375 1.101563-4.484375.453125-5.6875-1.472656s-.6875-4.453125 1.171875-5.753906l21.785156-14.628906-37.828125 21.855468c-1.984375 1.117188-4.492187.476563-5.703125-1.449218-1.210937-1.929688-.695312-4.46875 1.171875-5.769532l25.261719-17.066406-42.070313 24.285156c-1.988281 1.132813-4.515624.496094-5.730468-1.445312-1.214844-1.9375-.679688-4.488282 1.207031-5.78125l24.105469-16.214844-40.660156 23.441406c-1.957032 1.121094-4.453126.523438-5.691407-1.363281-1.234375-1.890625-.789062-4.414063 1.023438-5.761719l54.203125-40.0625-81.738282 47.1875c-1.960937 1.082032-4.421874.46875-5.640624-1.40625-1.222657-1.875-.785157-4.375.996093-5.726562l52.539063-38.46875-79.007813 45.601562c-1.960937 1.132813-4.46875.535156-5.707031-1.359375-1.238281-1.898437-.78125-4.433593 1.046875-5.773437l52.984375-38.886719-79.710938 46.019531c-1.960937 1.117188-4.457031.511719-5.6875-1.382812-1.230468-1.894532-.773437-4.417969 1.046876-5.757813l51.242187-37.234375-76.929687 44.375c-1.984376 1.117188-4.492188.476563-5.703126-1.449218-1.210937-1.929688-.695312-4.46875 1.171876-5.769532l27.113281-18.382812-44.332031 25.601562c-1.960938 1.105469-4.441407.5-5.671876-1.386718-1.230468-1.882813-.78125-4.398438 1.019532-5.746094l52.054687-38.058594-78.285156 45.191406c-1.96875 1.066406-4.433594.429688-5.632813-1.460937-1.203124-1.894531-.738281-4.394531 1.066407-5.722657l38.957031-27.101562-59.375 34.285156c-1.980469 1.101563-4.476562.460938-5.683594-1.457031-1.210937-1.917969-.707031-4.445313 1.144532-5.753906l31.9375-21.800781-50.355469 29.011718c-.644531.386719-1.378907.59375-2.132813.605469zm0 0" fill="#cad0d7"/><path d="m25.816406 332.839844c-1.910156.003906-3.59375-1.261719-4.113281-3.101563-.523437-1.835937.242187-3.796875 1.871094-4.800781l178.472656-109.960938-192 110.859376c-2.027344 1.199218-4.644531.527343-5.84375-1.503907-1.199219-2.027343-.527344-4.644531 1.5-5.84375l93.789063-56.824219-89.445313 51.636719c-2.015625 1.09375-4.539063.398438-5.710937-1.578125-1.167969-1.972656-.5625-4.519531 1.367187-5.761718l66.238281-40.105469-61.894531 35.746093c-2.011719 1.105469-4.535156.425782-5.714844-1.542968-1.183593-1.96875-.59375-4.519532 1.328125-5.769532l178.835938-111.6875-174.449219 100.746094c-2.015625 1.113282-4.554687.425782-5.730469-1.554687-1.179687-1.976563-.570312-4.535157 1.371094-5.777344l87.894531-53.886719-83.535156 48.214844c-2.015625 1.132812-4.566406.457031-5.753906-1.527344-1.1875-1.988281-.578125-4.558594 1.378906-5.796875l109.941406-68.1875-105.566406 60.953125c-2.003906 1.101563-4.523437.425782-5.707031-1.53125-1.183594-1.957031-.613282-4.5 1.296875-5.765625l138.316406-87.832031-133.914063 77.3125c-2.015624 1.132812-4.570312.457031-5.757812-1.53125-1.1875-1.984375-.574219-4.554688 1.378906-5.792969l55-34.074219-50.621094 29.21875c-2.007812 1.085938-4.511718.402344-5.6875-1.550781-1.175781-1.957031-.605468-4.488281 1.292969-5.753906l61.671875-38.585937-57.277344 33.066406c-2.011718 1.105468-4.535156.425781-5.71875-1.542969-1.179687-1.96875-.589843-4.519531 1.332032-5.769531l28.730468-17.921875-24.34375 14.089843c-2.003906 1.140626-4.550781.484376-5.75-1.484374-1.203124-1.96875-.625-4.535157 1.304688-5.792969l79.921875-51.773438-75.476563 43.570313c-1.984374 1.101562-4.484374.453125-5.6875-1.472656-1.199218-1.921876-.6875-4.453126 1.171876-5.753907l87.042968-58.742187-82.527344 47.648437c-1.976562 1.121094-4.480468.496094-5.703124-1.417969-1.222657-1.914062-.726563-4.449218 1.121093-5.765624l75.152344-52.644532-70.570313 40.730469c-1.980468 1.136719-4.5.515625-5.722656-1.410156-1.226562-1.925781-.71875-4.472657 1.148438-5.785157l46.566406-32.460937-41.976562 24.238281c-1.984376 1.113282-4.492188.476563-5.703126-1.453125-1.210937-1.925781-.695312-4.464843 1.171876-5.769531l14.578124-9.949219-10.046874 5.804688c-1.921876 1.117187-4.386719.570312-5.652344-1.261719s-.910156-4.332031.816406-5.738281l36.199219-29.761719-31.378907 18.097656c-1.851562 1.015625-4.164062.527344-5.445312-1.148437-1.28125-1.679688-1.144531-4.042969.324219-5.558594l21.078125-21.121094-15.957032 9.210938c-1.8125 1.035156-4.109374.605469-5.425781-1.011719-1.320312-1.617188-1.273437-3.953125.109375-5.519531l7.398438-8.308594c-1.605469-.515625-2.757813-1.921875-2.941406-3.597656-.183594-1.675781.632812-3.300781 2.089843-4.152344l16.535157-9.523437c1.8125-1.035157 4.109374-.609376 5.425781 1.011718 1.320312 1.617188 1.273437 3.953125-.109375 5.515625l-4.410156 4.960938 21.066406-12.136719c1.851562-1.015625 4.167968-.527344 5.449218 1.152344 1.277344 1.675781 1.140626 4.039062-.328124 5.554687l-21.085938 21.09375 48.207031-27.800781c1.917969-1.09375 4.359375-.539062 5.617188 1.28125 1.257812 1.816406.917969 4.292969-.78125 5.707031l-36.214844 29.707031 63.683594-36.695312c1.980469-1.074219 4.453125-.425781 5.648437 1.480469 1.199219 1.90625.710938 4.414062-1.117187 5.730469l-14.574219 9.914062 29.714844-17.125c1.972656-1.09375 4.453125-.460938 5.664062 1.441406 1.210938 1.902344.734375 4.417969-1.09375 5.742188l-46.582031 32.503906 68.761719-39.6875c1.972656-1.105469 4.464844-.484375 5.683594 1.421875 1.21875 1.902344.738281 4.429687-1.09375 5.753906l-75.09375 52.609375 103.5625-59.785156c1.980468-1.085938 4.464843-.4375 5.667968 1.476562 1.199219 1.914063.695313 4.433594-1.144531 5.742188l-87.042969 58.761719 114.261719-65.980469c2-1.117188 4.523437-.457031 5.722656 1.496094 1.195313 1.953125.636719 4.5-1.265625 5.773437l-79.949218 51.796875 102.304687-59.066406c2.011719-1.105469 4.539063-.425781 5.71875 1.542969s.589844 4.519531-1.332031 5.769531l-28.6875 17.835938 43.605468-25.171876c2.007813-1.128906 4.550782-.457031 5.738282 1.519532 1.1875 1.972656.597656 4.53125-1.335938 5.785156l-61.773437 38.644531 79.597656-45.925781c2.011719-1.105469 4.539063-.425781 5.71875 1.542969s.59375 4.519531-1.332031 5.769531l-54.953125 34.050781 71.679687-41.363281c1.996094-1.054688 4.472656-.371094 5.640625 1.5625 1.171875 1.933594.632813 4.445312-1.230469 5.726562l-138.289062 87.773438 164.710938-95.0625c2.007812-1.105469 4.535156-.425781 5.714843 1.542969 1.179688 1.96875.59375 4.519531-1.332031 5.769531l-109.96875 68.171875 130.800781-75.484375c1.308594-.78125 2.933594-.800781 4.265625-.058594 1.332032.742188 2.164063 2.140625 2.183594 3.664063.023438 1.523437-.769531 2.945312-2.082031 3.726562l-87.890625 53.84375 105.992187-61.175781c2.003907-1.054688 4.480469-.363281 5.648438 1.578125 1.164062 1.941406.609375 4.457031-1.261719 5.726563l-178.929688 111.785156 206.226563-119.089844c2.011719-1.0625 4.503906-.355469 5.664063 1.605469 1.15625 1.957031.570312 4.484375-1.328126 5.734375l-66.039062 39.925781 80.722656-46.582031c2.019532-1.097656 4.542969-.402344 5.710938 1.574218 1.167968 1.976563.566406 4.523438-1.367188 5.765626l-94.011718 56.96875 102.109374-58.949219c2.015626-1.136719 4.570313-.457031 5.757813 1.527343 1.1875 1.984376.574219 4.554688-1.378906 5.792969l-178.449219 109.933594 182.042969-105.101563c2.019531-1.152343 4.59375-.472656 5.78125 1.527344 1.1875 2.003906.550781 4.585938-1.429688 5.808594l-113.546875 69.1875 110.636719-63.863281c2.023437-1.125 4.574219-.433594 5.75 1.5625 1.175781 1.992187.546875 4.5625-1.414063 5.785156l-7.101562 4.269531 2.773438-1.589844c2.011718-1.074218 4.515624-.375 5.679687 1.585938s.582031 4.492188-1.328125 5.746094l-80.101562 48.878906 75.765624-43.742188c2.011719-1.109374 4.539063-.425781 5.71875 1.542969 1.179688 1.96875.59375 4.515625-1.332031 5.769531l-141.976562 88.667969 137.617187-79.445312c2-1.082031 4.5-.40625 5.679688 1.539062 1.179687 1.945313.625 4.476563-1.257813 5.75l-154.457031 98.464844 150.042969-86.585937c2.011719-1.125 4.550781-.453126 5.738281 1.519531 1.191406 1.972656.597656 4.535156-1.335938 5.785156l-100.691406 63.324219 96.296875-55.578125c2.011719-1.105469 4.539063-.425781 5.71875 1.542969 1.179688 1.96875.59375 4.519531-1.332031 5.773437l-51.003906 31.734375 46.636718-26.921875c2.007813-1.148437 4.566407-.488281 5.765626 1.492187 1.199218 1.980469.601562 4.554688-1.347657 5.800782l-69.664062 44.085937 65.253906-37.675781c1.296875-.804688 2.921875-.855469 4.265625-.132812 1.34375.71875 2.199219 2.101562 2.246094 3.625.050781 1.523437-.71875 2.957031-2.015625 3.761718l-101.195313 67.121094 96.722656-55.832031c2.003907-1.085938 4.503907-.40625 5.683594 1.539062 1.179688 1.945313.625 4.476563-1.261718 5.75l-23.800782 15.109375 19.390625-11.195312c2.007813-1.230469 4.636719-.601563 5.871094 1.410156 1.230469 2.007812.601563 4.636719-1.410156 5.871094l-36.230469 23.5 31.785156-18.347656c1.976563-1.089844 4.460938-.449219 5.664063 1.460937 1.207031 1.90625.71875 4.425781-1.117188 5.742187l-57.460937 39.558594 52.90625-30.546875c1.976562-1.136719 4.5-.515625 5.722656 1.410157 1.226562 1.925781.71875 4.472656-1.148438 5.78125l-39.851562 27.863281 35.285156-20.359375c1.933594-1.125 4.410156-.566406 5.667969 1.28125 1.261719 1.851562.878906 4.359375-.871094 5.75l-42.429687 33.738281 37.683594-21.75c1.9375-1.117187 4.410156-.546875 5.664062 1.304687 1.253906 1.851563.863281 4.359376-.894531 5.742188l-17.066407 13.433594 12.347657-7.125c1.871093-1.125 4.289062-.660156 5.605469 1.078125 1.316406 1.742187 1.105468 4.195312-.484376 5.6875l-13.320312 12.800781 8.25-4.761719c1.640625-.9375 3.699219-.691406 5.066406.613281 1.367188 1.300782 1.714844 3.34375.855469 5.027344l-4.957031 9.648438c2.070312-.59375 4.257812.449218 5.101562 2.429687s.082032 4.28125-1.78125 5.363281l-11.589844 6.605469c-1.636718.9375-3.695312.6875-5.0625-.613281-1.367187-1.300781-1.714843-3.347656-.859374-5.027344l4.855468-9.457031-26.179687 15.113281c-1.867188 1.125-4.285157.660156-5.601563-1.082031-1.316406-1.738281-1.109375-4.191406.480469-5.683594l13.304687-12.800781-33.84375 19.609375c-1.9375 1.09375-4.386718.515625-5.632812-1.324219-1.246094-1.84375-.867188-4.335937.871094-5.722656l17.136718-13.449219-35.535156 20.480469c-1.929687 1.101562-4.386718.53125-5.640625-1.304688-1.25-1.839843-.878906-4.332031.855469-5.726562l42.453125-33.707031-70.648437 40.78125c-1.976563 1.132812-4.5.511719-5.722657-1.414063-1.226562-1.921875-.71875-4.472656 1.148438-5.78125l39.878906-27.878906-60.792969 35.089844c-1.984375 1.132812-4.507812.503906-5.726562-1.429688-1.21875-1.929687-.699219-4.480468 1.179687-5.78125l57.453125-39.550781-81.066406 46.777344c-2.003906 1.167969-4.570312.519531-5.78125-1.453125-1.210938-1.976563-.625-4.558594 1.316406-5.816406l36.269532-23.527344-53.359376 30.808594c-2 1.082031-4.5.40625-5.679687-1.539063-1.183594-1.945313-.628906-4.476563 1.257813-5.75l23.636718-15.011719-38.652344 22.316406c-2 1.15625-4.554687.515626-5.769531-1.445312-1.214843-1.964844-.648437-4.539062 1.277344-5.808594l101.179687-67.132812-128.851562 74.421875c-2.011719 1.160156-4.582031.5-5.785156-1.484375-1.207032-1.988282-.601563-4.578125 1.363281-5.820313l69.789063-44.152343-89.183594 51.445312c-2.011719 1.109375-4.535156.425781-5.71875-1.539062-1.179688-1.96875-.589844-4.519532 1.332031-5.773438l50.867187-31.648438-67.515624 38.980469c-1.304688.789063-2.929688.820313-4.265626.082031-1.335937-.734374-2.175781-2.125-2.207031-3.652343-.027343-1.523438.757813-2.945313 2.0625-3.734375l100.691407-63.316406-122.351563 70.636718c-2.007813 1.148438-4.566406.488282-5.765625-1.492187s-.601562-4.554688 1.347656-5.804688l154.453125-98.449219-183.210937 105.765626c-2.015625 1.160156-4.589844.492187-5.789063-1.5-1.199219-1.996094-.578125-4.582032 1.394531-5.816407l141.984376-88.660156-166.28125 95.992187c-2.023438 1.203126-4.644532.539063-5.847657-1.488281-1.203125-2.027343-.539062-4.644531 1.488281-5.851562l80.164063-48.910157-97.425781 56.257813c-2.03125 1.199219-4.648438.519531-5.847656-1.511719-1.195313-2.03125-.519532-4.644531 1.511718-5.84375l7.210938-4.335937-20.265625 11.699219c-2.027344 1.207031-4.644531.539062-5.851563-1.488282-1.203125-2.027344-.535156-4.644531 1.488282-5.847656l113.539062-69.222656-132.644531 76.578125c-.644531.378906-1.382813.578125-2.132813.578125zm0 0" fill="#4fc0e8"/><path d="m86.054688 332.839844c-1.75 0-3.320313-1.074219-3.964844-2.699219-.640625-1.628906-.222656-3.484375 1.054687-4.679687l22.304688-20.867188-35.675781 20.566406c-1.792969 1.023438-4.054688.617188-5.382813-.960937-1.324219-1.578125-1.332031-3.875-.019531-5.464844l5.972656-7.203125c-1.613281.125-3.152344-.707031-3.933594-2.121094-1.179687-2.039062-.484375-4.648437 1.554688-5.832031l18.046875-10.410156c1.789062-1.011719 4.042969-.605469 5.363281.96875 1.324219 1.570312 1.339844 3.859375.039062 5.449219l-5.121093 6.179687 47.113281-27.195313c1.882812-1.128906 4.3125-.644531 5.621094 1.121094 1.304687 1.765625 1.058594 4.230469-.570313 5.703125l-22.316406 20.875 70.777344-40.84375c1.953125-1.117187 4.4375-.527343 5.679687 1.347657 1.242188 1.875.8125 4.394531-.976562 5.753906l-22.683594 17.066406 41.8125-24.167969c1.917969-1.082031 4.34375-.53125 5.601562 1.277344 1.261719 1.808594.9375 4.273437-.746093 5.695313l-33.015625 27.433593 59.648437-34.429687c1.90625-1.0625 4.304688-.519532 5.566407 1.261718 1.257812 1.78125.972656 4.226563-.667969 5.667969l-34.210938 29.207031 62.679688-36.113281c1.933593-1.074219 4.371093-.488281 5.609375 1.347657 1.234375 1.835937.863281 4.3125-.855469 5.703124l-28.050781 21.878907 47.785156-27.570313c1.933594-1.101562 4.390625-.535156 5.640625 1.304688 1.253906 1.839844.882813 4.332031-.851563 5.726562l-28.066406 22.332032 41.285156-23.835938c1.902344-1.105469 4.335938-.585938 5.617188 1.207031s.988281 4.265625-.675781 5.707031l-27.019531 23.578126 42.121093-24.3125c1.894531-1.09375 4.308594-.578126 5.59375 1.195312 1.28125 1.769531 1.015625 4.226562-.617187 5.683594l-20.847656 18.59375 34.304687-19.796875c1.882813-1.09375 4.285156-.59375 5.574219 1.15625 1.292968 1.75 1.058594 4.195312-.539063 5.667969l-15.855469 14.671874 28.046876-16.214843c1.867187-1.089844 4.25-.617188 5.554687 1.105469 1.304687 1.71875 1.117187 4.144531-.433594 5.644531l-11.621093 11.296875 22.648437-13.054688c1.882813-1.144531 4.328125-.667968 5.644531 1.105469 1.3125 1.769531 1.058594 4.25-.585937 5.71875l-5.316407 4.992187 11.308594-6.527343c1.769532-1.007813 4.007813-.625 5.34375.921875 1.332032 1.542968 1.382813 3.816406.125 5.417968l-5.863281 7.417969 5.402344-3.117187c1.488281-.855469 3.347656-.738282 4.714843.300781 1.367188 1.039063 1.976563 2.796875 1.546876 4.460937l-1.78125 6.886719c1.441406.675781 2.386718 2.09375 2.453124 3.683594.070313 1.589844-.753906 3.082031-2.128906 3.878906l-4.226562 2.441407c-1.484375.855468-3.339844.738281-4.707032-.300782-1.367187-1.035156-1.980468-2.792968-1.554687-4.453125l1.136719-4.421875-15.925782 9.191406c-1.769531 1.007813-4.011718.625-5.34375-.921874-1.332031-1.542969-1.382812-3.8125-.125-5.417969l5.863282-7.417969-23.894532 13.773438c-1.882812 1.148437-4.332031.667968-5.644531-1.105469-1.3125-1.769531-1.058593-4.25.585938-5.71875l5.316406-4.992188-20.480469 11.808594c-1.863281 1.089844-4.25.617187-5.554687-1.105469-1.304688-1.71875-1.117188-4.144531.433593-5.644531l11.628907-11.296875-31.289063 18.0625c-1.882812 1.09375-4.285156.597656-5.578125-1.15625-1.292969-1.75-1.058593-4.195312.542969-5.667969l15.855469-14.679687-37.230469 21.539062c-1.894531 1.09375-4.308594.578125-5.59375-1.195312-1.28125-1.769532-1.015625-4.226563.617188-5.683594l20.847656-18.59375-44.167969 25.5c-1.90625 1.109375-4.339844.585938-5.621094-1.207031s-.984375-4.265625.679688-5.707031l27.023437-23.585938-52.90625 30.515625c-1.933594 1.101563-4.386718.535156-5.640625-1.304687-1.25-1.839844-.878906-4.332032.855469-5.726563l28.066406-22.347656-50.859375 29.40625c-1.9375 1.09375-4.390625.515625-5.636719-1.328125-1.242187-1.84375-.863281-4.332032.875-5.722656l28.03125-21.921876-50.21875 29.015626c-1.90625 1.082031-4.328124.542968-5.59375-1.25-1.265624-1.792969-.964843-4.253907.695313-5.6875l34.203125-29.203126-62.636719 36.164063c-1.921875 1.128906-4.386719.589844-5.660156-1.238281s-.925781-4.328125.796875-5.742188l33.007812-27.449218-59.691406 34.457031c-1.949218 1.09375-4.414062.496093-5.648437-1.367188-1.230469-1.867187-.816407-4.367187.957031-5.734375l22.679688-17.066406-41.8125 24.160156c-.671876.398438-1.4375.601563-2.21875.585938zm0 0" fill="#ffd67b"/><path d="m236.964844 298.382812c-1.792969 0-3.398438-1.125-4.007813-2.8125-.613281-1.691406-.101562-3.582031 1.277344-4.730468l18.628906-15.515625-35.285156 20.363281c-1.960937 1.132812-4.46875.535156-5.707031-1.363281-1.238282-1.894531-.777344-4.429688 1.046875-5.769531l14.328125-10.550782-23.738282 13.714844c-1.957031 1.140625-4.464843.550781-5.710937-1.34375-1.246094-1.890625-.796875-4.425781 1.023437-5.773438l19.175782-14.277343-26.324219 15.199219c-1.914063 1.09375-4.34375.550781-5.609375-1.253907-1.265625-1.804687-.949219-4.273437.726562-5.699219l24.535157-20.652343-29.441407 17c-1.835937 1.046875-4.164062.59375-5.472656-1.070313-1.304687-1.664062-1.195312-4.035156.257813-5.570312l18.722656-19.515625-11.828125 6.828125c-1.542969.878906-3.476562.707031-4.839844-.433594-1.367187-1.140625-1.882812-3.007812-1.292968-4.6875l5.023437-13.839844c-.640625-.378906-1.171875-.917968-1.542969-1.5625-1.179687-2.039062-.484375-4.648437 1.554688-5.828125l4.734375-2.730469c1.546875-.886718 3.480469-.71875 4.851562.425782 1.367188 1.140625 1.886719 3.011718 1.292969 4.691406l-3.925781 10.761719 27.578125-15.929688c1.84375-1.078125 4.195312-.628906 5.511718 1.046875 1.316407 1.675782 1.191407 4.066406-.289062 5.597656l-18.6875 19.5 45.398438-26.214843c1.917968-1.136719 4.386718-.609375 5.671874 1.21875 1.28125 1.824219.941407 4.328125-.78125 5.746093l-24.542968 20.660157 47.933594-27.675781c1.957031-1.140626 4.460937-.550782 5.707031 1.34375 1.246093 1.890624.796875 4.425781-1.023438 5.773437l-19.199219 14.285156 27.175782-15.683593c1.964844-1.132813 4.46875-.535157 5.707031 1.359374 1.238281 1.898438.78125 4.433594-1.046875 5.773438l-14.316406 10.488281 11.519531-6.640625c1.914063-1.078125 4.332031-.527344 5.59375 1.273438 1.257813 1.800781.941406 4.265625-.730469 5.691406l-18.613281 15.503906 15.96875-9.214844c1.820313-1.046874 4.132813-.613281 5.449219 1.023438 1.316406 1.640625 1.246094 3.992188-.167969 5.546875l-8.902344 9.769531.164063-.085937c2.027344-1.058594 4.527344-.332031 5.671875 1.648437 1.144531 1.976563.523437 4.507813-1.40625 5.734375l-23.945313 13.824219c-1.820312 1.046875-4.132812.613281-5.449218-1.027344-1.316407-1.636718-1.246094-3.988281.167968-5.542968l8.902344-9.804688-35.339844 20.480469c-.652344.359375-1.386718.539062-2.132812.527343zm0 0" fill="#efc7a4"/><path d="m236.847656 264.105469c-1.785156 0-3.378906-1.109375-4-2.785157-.621094-1.671874-.136718-3.554687 1.21875-4.714843l34.59375-29.800781-50.007812 28.871093c-1.96875 1.121094-4.476563.507813-5.703125-1.402343-1.226563-1.90625-.746094-4.441407 1.097656-5.765626l32.425781-23.09375-37.546875 21.691407c-1.976562 1.105469-4.472656.472656-5.683593-1.4375-1.214844-1.910157-.722657-4.4375 1.117187-5.753907l37.699219-26.234374-45.320313 26.148437c-1.996093 1.136719-4.535156.484375-5.742187-1.472656-1.203125-1.957031-.640625-4.515625 1.273437-5.789063l14.105469-9.277344-18.339844 10.566407c-1.980468 1.101562-4.476562.460937-5.683594-1.457031-1.207031-1.917969-.703124-4.445313 1.144532-5.753907l44.226562-30.054687-48.800781 28.160156c-1.980469 1.152344-4.519531.53125-5.75-1.40625-1.226563-1.933594-.703125-4.496094 1.183594-5.796875l52.746093-36.597656-53.238281 30.71875c-1.988281 1.152343-4.53125.527343-5.753906-1.417969s-.6875-4.511719 1.210937-5.800781l29.1875-19.890625-26.453124 15.273437c-1.972657 1.125-4.476563.507813-5.703126-1.398437-1.230468-1.910156-.746093-4.445313 1.09375-5.769532l28.269532-20.113281-33.996094 19.625c-1.921875 1.113281-4.378906.566407-5.644531-1.257812-1.265625-1.828125-.917969-4.320313.796875-5.730469l38.65625-31.785156-39.867188 23.039062c-1.882812 1.09375-4.285156.59375-5.578125-1.15625-1.289062-1.75-1.054687-4.195312.542969-5.671875l24.746094-22.902343-25.375 14.679687c-1.5625.894531-3.515625.71875-4.886719-.441406-1.375-1.164063-1.871094-3.0625-1.242187-4.75l5.121093-13.652344-.734375.417969c-1.324218.839844-3 .890625-4.367187.125-1.371094-.761719-2.210938-2.214844-2.1875-3.78125.019531-1.570313.898437-2.996094 2.289062-3.722656l11.039063-6.375c1.558594-.890626 3.511718-.710938 4.878906.449218 1.371094 1.160156 1.867188 3.054688 1.242188 4.738282l-5.121094 13.652343 48.144531-27.792969c1.882813-1.09375 4.285156-.59375 5.578125 1.15625 1.289062 1.753907 1.058594 4.195313-.542969 5.671876l-24.746093 22.902343 51.601562-29.789062c1.917969-1.070313 4.332031-.511719 5.585938 1.292969 1.25 1.804687.925781 4.265624-.75 5.6875l-38.679688 31.777343 67.242188-38.828125c1.96875-1.121094 4.476562-.507812 5.703124 1.398438 1.226563 1.910156.746094 4.445312-1.09375 5.769531l-28.316406 20.132813 47.371094-27.308594c1.984375-1.113282 4.492188-.476563 5.703125 1.453125 1.210937 1.925781.695313 4.464843-1.171875 5.765625l-29.152344 19.875 42.914063-24.746094c1.980469-1.136719 4.503906-.515625 5.726562 1.40625 1.230469 1.929688.71875 4.488281-1.160156 5.796875l-52.820313 36.691406 61.082032-35.34375c1.980468-1.101562 4.476562-.464843 5.683594 1.453125 1.207031 1.917969.703124 4.445313-1.144532 5.757813l-44.125 29.984375 44.578125-25.667969c1.996094-1.136719 4.535157-.484375 5.742188 1.472656 1.203125 1.957031.640625 4.515625-1.273438 5.789063l-14.207031 9.34375 5.84375-3.371094c1.976562-1.101562 4.472656-.472656 5.6875 1.441406 1.210938 1.910156.71875 4.4375-1.121094 5.753906l-37.664062 26.171876 27.851562-16.085938c1.96875-1.125 4.476563-.507812 5.703125 1.398438 1.226563 1.910156.746094 4.445312-1.09375 5.769531l-32.480469 23.117187 11.445313-6.605468c1.902344-1.09375 4.328125-.5625 5.601563 1.226562 1.273437 1.789062.980468 4.253906-.679688 5.695312l-34.585938 29.796876 18.878907-10.894532c2.023437-1.0625 4.527343-.335937 5.667969 1.644532 1.144531 1.980468.527343 4.507812-1.402344 5.734374l-58.171875 33.585938c-.648438.378906-1.382813.578125-2.132813.574219zm0 0" fill="#f4d0b5"/><path d="m162.632812 130.601562c-1.933593 0-3.621093-1.296874-4.121093-3.164062-.5-1.863281.316406-3.832031 1.988281-4.796875l4.042969-2.332031c2.027343-1.058594 4.527343-.332032 5.671875 1.644531 1.144531 1.980469.523437 4.511719-1.40625 5.738281l-4.042969 2.328125c-.648437.378907-1.382813.578125-2.132813.582031zm0 0" fill="#f4d0b5"/><path d="m162 93.90625c-1.816406-.046875-3.402344-1.238281-3.957031-2.96875-.550781-1.730469.054687-3.621094 1.507812-4.710938l26.609375-18.773437-29.167968 16.804687c-1.949219 1.132813-4.449219.554688-5.699219-1.324218s-.820313-4.40625.980469-5.769532l31.574218-23.984374-21.113281 12.183593c-1.863281 1.089844-4.246094.617188-5.550781-1.105469-1.304688-1.71875-1.121094-4.144531.429687-5.644531l21.640625-21.027343c-1.5625-.011719-3.011718-.816407-3.855468-2.132813-1.171876-2.039063-.472657-4.640625 1.5625-5.820313l26.316406-15.195312c1.863281-1.089844 4.246094-.617188 5.550781 1.105469 1.304687 1.71875 1.121094 4.140625-.433594 5.644531l-20.1875 19.625 49.851563-28.765625c1.949218-1.132813 4.445312-.554687 5.695312 1.324219 1.253906 1.878906.824219 4.40625-.976562 5.765625l-31.574219 24.007812 52.371094-30.261719c1.96875-1.105468 4.464843-.484374 5.683593 1.421876s.738282 4.429687-1.09375 5.753906l-26.632812 18.773437 36.242188-20.871093c1.976562-1.105469 4.46875-.472657 5.683593 1.4375 1.210938 1.910156.722657 4.4375-1.121093 5.757812l-14.660157 10.238281 19.628907-11.308593c1.953124-1.101563 4.425781-.503907 5.660156 1.367187 1.234375 1.875.808594 4.382813-.976563 5.742187l-25.429687 19.039063 30.550781-17.722656c1.898437-1.085938 4.308594-.558594 5.582031 1.214843 1.273438 1.777344 1 4.226563-.632812 5.679688l-28.269532 24.8125 32.972657-19.035156c1.925781-1.089844 4.367187-.527344 5.617187 1.300781 1.253906 1.828125.898438 4.308594-.816406 5.710937l-7.21875 5.804688 7.160156-4.132812c1.734375-1.003907 3.933594-.664063 5.289063.816406 1.351562 1.480468 1.492187 3.699218.335937 5.339844l-11.332031 15.964843 11.511719-6.640625c1.695312-.957031 3.828125-.640625 5.179687.765625 1.347657 1.410157 1.566407 3.554688.535157 5.207031l-1.550782 2.417969c1.609375-.125 3.140625.707031 3.914063 2.125 1.179687 2.035157.484375 4.644531-1.550781 5.828125l-12.800782 7.386719c-1.699218.960937-3.832031.644531-5.179687-.765625-1.347657-1.40625-1.570313-3.550781-.539063-5.207031l1.007813-1.5625-13.15625 7.589843c-1.734375.992188-3.929688.648438-5.277344-.828124-1.347656-1.476563-1.488281-3.691407-.339844-5.328126l11.324219-15.964843-38.398438 22.1875c-1.929687 1.089843-4.371093.523437-5.621093-1.304688-1.253907-1.824219-.898438-4.304687.816406-5.710937l7.132813-5.757813-22.1875 12.800781c-1.898438 1.101563-4.328126.582032-5.609376-1.203124-1.28125-1.789063-.996093-4.257813.660157-5.703126l28.261719-24.839843-55.046876 31.785156c-1.953124 1.128906-4.449218.539063-5.691406-1.34375-1.246094-1.882813-.808594-4.410156.996094-5.761719l25.449219-19.054687-45.398438 26.203125c-1.976562 1.105468-4.46875.472656-5.683593-1.4375-1.210938-1.910156-.722657-4.4375 1.117187-5.753906l14.695313-10.242188-30.234376 17.453125c-.648437.375-1.382812.578125-2.132812.578125zm0 0" fill="#f2a149"/><path d="m246.046875 127.785156c-1.734375.003906-3.296875-1.042968-3.957031-2.644531-.65625-1.601563-.28125-3.445313.953125-4.660156l10.425781-10.292969-29.492188 17c-1.859374 1.074219-4.226562.59375-5.527343-1.117188-1.300781-1.710937-1.125-4.121093.410156-5.625l10.238281-10.015624-29.011718 16.757812c-1.816407 1.046875-4.125.621094-5.445313-1.007812-1.320313-1.628907-1.265625-3.976563.136719-5.539063l12.246094-13.652344-34.953126 20.199219c-1.796874 1.039062-4.082031.636719-5.414062-.957031-1.328125-1.589844-1.320312-3.910157.019531-5.496094l12.628907-14.929687-35.753907 20.632812c-1.757812 1.035156-4.007812.675781-5.359375-.855469-1.34375-1.542969-1.398437-3.824219-.136718-5.433593l12.160156-15.523438-19.257813 11.09375c-1.730469.992188-3.914062.652344-5.261719-.816406-1.351562-1.464844-1.503906-3.671875-.371093-5.3125l5.121093-7.335938c-1.617187.117188-3.152343-.714844-3.933593-2.132812-1.175781-2.039063-.480469-4.640625 1.550781-5.820313l14.039062-8.097656c1.726563-.984375 3.902344-.644531 5.25.816406 1.347657 1.460938 1.503907 3.660157.382813 5.300781l-4.480469 6.449219 21.765625-12.542969c1.769531-1.023437 4.015625-.644531 5.359375.894532 1.339844 1.542968 1.398438 3.820312.136719 5.429687l-12.167969 15.53125 37.898438-21.855469c1.796875-1.039062 4.078125-.636718 5.410156.957032s1.324219 3.910156-.019531 5.496094l-12.664063 14.882812 37.0625-21.335938c1.816406-1.046874 4.121094-.621093 5.445313 1.007813 1.320312 1.628906 1.261719 3.976563-.136719 5.539063l-12.253906 13.652343 34.917968-20.199219c1.859376-1.074218 4.230469-.59375 5.527344 1.117188 1.300782 1.710938 1.125 4.121094-.40625 5.625l-10.242187 10.019531 29.011719-16.761719c1.859374-1.042968 4.199218-.558593 5.488281 1.136719 1.289062 1.691407 1.132812 4.078125-.367188 5.589844l-10.417969 10.289063 29.542969-17.015626c1.785157-1.023437 4.042969-.625 5.375.941407 1.332031 1.570312 1.351563 3.867187.050781 5.460937l-12.714843 15.445313 36.914062-21.335938c1.761719-1.019531 3.996094-.65625 5.339844.867188 1.347656 1.523437 1.429687 3.785156.199219 5.40625l-12.3125 16.214843 20.148437-11.625c1.722657-.984374 3.902344-.648437 5.25.8125 1.347657 1.460938 1.507813 3.65625.390625 5.296876l-5.121094 7.441406c1.621094-.121094 3.164063.707031 3.957032 2.125 1.179687 2.039062.488281 4.648437-1.550782 5.828125l-13.976562 8.066406c-1.726562.984375-3.90625.648437-5.253906-.8125s-1.507813-3.65625-.386719-5.300781l4.546875-6.585938-22.03125 12.714844c-1.757812 1.003906-3.976562.632812-5.316406-.882812-1.335938-1.515626-1.425782-3.761719-.214844-5.378907l12.304688-16.214843-38.988282 22.476562c-1.785156 1.023438-4.046875.628906-5.375-.941406-1.332031-1.570313-1.355468-3.863282-.050781-5.457032l12.703125-15.445312-37.851562 21.84375c-.648438.382812-1.382813.589844-2.132813.597656zm0 0" fill="#fab153"/><path d="m229.644531 93.820312c-1.699219.003907-3.238281-1.003906-3.914062-2.5625-.679688-1.558593-.367188-3.371093.789062-4.613281l14.371094-15.359375-26.042969 15.003906c-1.894531 1.0625-4.285156.53125-5.554687-1.230468-1.269531-1.765625-1.007813-4.203125.605469-5.65625l18.945312-16.742188-13.996094 8.070313c-1.886718 1.167969-4.347656.695312-5.671875-1.085938-1.320312-1.777343-1.058593-4.273437.601563-5.742187l24.75-23.542969-19.6875 11.402344c-1.859375 1.058593-4.214844.578125-5.507813-1.125s-1.128906-4.101563.386719-5.609375l20.046875-19.777344-14.925781 8.609375c-1.578125.910156-3.558594.722656-4.933594-.472656-1.375-1.195313-1.84375-3.128907-1.160156-4.820313l5.804687-14.335937c-2.074219.570312-4.246093-.488281-5.070312-2.472657-.828125-1.984374-.046875-4.273437 1.816406-5.34375l9.625-5.519531c1.582031-.894531 3.554687-.703125 4.933594.476563 1.378906 1.195312 1.84375 3.132812 1.160156 4.820312l-5.707031 14.109375 32.964844-19.074219c1.855468-1.042968 4.195312-.558593 5.484374 1.132813 1.289063 1.695313 1.132813 4.082031-.367187 5.59375l-20.070313 19.796875 21.929688-12.648438c1.886719-1.164062 4.351562-.695312 5.671875 1.085938 1.320313 1.777344 1.058594 4.273438-.601563 5.742188l-24.746093 23.527343 19.710937-11.386719c1.902344-1.117187 4.339844-.605468 5.628906 1.183594 1.289063 1.789063 1 4.265625-.660156 5.710938l-18.878906 16.691406 14.03125-8.121094c1.828125-1.046875 4.144531-.605468 5.457031 1.042969 1.3125 1.644531 1.226563 4.003906-.203125 5.550781l-14.375 15.429688 9.171875-5.289063c1.738281-.992187 3.929688-.640625 5.273438.84375s1.472656 3.703125.316406 5.332031l-3.304687 4.601563c1.914062.046875 3.558593 1.359375 4.027343 3.214844.472657 1.851562-.347656 3.789062-2.003906 4.746093l-14.097656 8.140626c-1.738281 1-3.9375.652343-5.285157-.835938-1.347656-1.484375-1.476562-3.710938-.3125-5.34375l2.433594-3.371094-16.726562 9.652344c-.648438.378906-1.382813.578125-2.132813.570312zm0 0" fill="#ffba6e"/><g fill="#262626"><path d="m474.636719 126.394531c0-15.789062 4.964843-41.710937-2.003907-56.917969-10.667968-23.289062-45.585937-16.296874-65.8125-16.296874h-88.300781c-9.527343-19.804688-27.292969-34.402344-48.5625-39.914063.101563-4.296875-2.007812-8.347656-5.589843-10.722656-7.535157-4.507813-22.453126-1.648438-30.507813-1.648438-8.421875 0-19.558594-1.203125-25.171875 6.699219-1.136719 1.765625-1.867188 3.765625-2.132812 5.851562-20.601563 6.191407-37.816407 20.460938-47.71875 39.554688-41.574219-.855469-89.773438-7.851562-129.339844 1.492188-38.496094 9.085937-28.015625 54.671874-28.015625 85.332031v198.402343c0 34.3125-.417969 59.613282 40.167969 60.945313 32.050781 1.039063 64.144531 1.492187 96.261718 1.636719v29.945312c-19.421875 7.089844-38.664062 22.414063-55.976562 32.5-1.964844.726563-3.652344 1.871094-3.652344 3.507813 0 22.957031-2.902344 33.1875 19.949219 35.347656 29.78125 2.804687 61.175781 0 91.042969 0h191.292968c.695313-.035156 1.382813-.164063 2.046875-.386719.953125-.085937 1.890625-.308594 2.78125-.65625 16.9375-7.023437 12.457031-20.820312 12.457031-37.613281 0-.460937-.40625-.710937-.917968-.855469-17.921875-10.359375-38.683594-27.160156-58.710938-33.238281v-29.863281c20.066406-.167969 40.113282-.261719 60.152344-.292969 22.714844 0 62.378906 6.828125 74.238281-19.359375 5.546875-12.289062 2.058594-32.136719 2.058594-44.894531v-208.554688zm-104.917969-68.558593c20.617188 0 48.488281-5.519532 68.359375 0 39.945313 11.09375 24.203125 89.710937 24.203125 119.757812v148.582031h-47.359375c0-12.800781 0-23.664062-13.339844-29.976562-7.917969-3.074219-16.042969-5.59375-24.3125-7.542969l-74.042969-22.8125c1.894532-11.765625-3.898437-26.527344-5.742187-37.542969 0-.164062-.230469-.257812-.382813-.367187 9.339844-9.707032 14.894532-22.441406 15.648438-35.894532 13.824219-4.035156 13.484375-11.269531 18.527344-28.449218 5.390625-18.347656 8.625-34.550782-11.886719-32.777344l.460937-4.488281c10.640626 0 23.117188-.851563 29.667969-8.121094 18.015625-20.011719-4.359375-28.683594-20.019531-30.566406-1.601562-10.257813-4.535156-20.261719-8.726562-29.757813zm-222.96875 33.613281c.855469 2.65625 6.675781 2.296875 9.992188.230469 16.625-1.171876 33.3125-1.078126 49.921874.28125.980469.738281 2.183594 1.121093 3.414063 1.085937h50.765625c1.789062 0 3.558594-.355469 5.210938-1.042969h11.777343c10.128907 0 30.089844-3.933594 39.859375-.128906.339844.355469.78125.589844 1.261719.675781 7.878906 4.394531 17.066406 24.003907 11.195313 28.859375-1.808594 1.492188-6.621094.394532-10.359376 0-1.585937-1.960937-7.003906-1.296875-9.964843.625-12.671875.972656-26.453125-.640625-38.792969-.640625h-103.722656c-1.496094-.253906-3.027344-.207031-4.503906.136719-1.867188.160156-3.746094.113281-5.601563-.136719-6.355469-1.109375-21-25.601562-16.554687-29.40625 1.921874-.847656 4.066406-1.039062 6.101562-.539062zm12.417969 44.808593c1.945312 0 10.511719-1.050781 10.1875-4.15625-.191407-1.988281-.394531-3.980468-.605469-5.972656h138.914062c-.289062 2.800782-.574218 5.597656-.851562 8.398438-.367188 3.546875 5.972656 3.300781 9.742188 1.328125 18.554687 2.699219-.5625 51.824219-8.632813 53.242187-1.640625.28125-7.261719 1.433594-7.339844 3.90625-.851562 24.277344-12.082031 36.472656-32.425781 48.164063-14.933594 8.53125-24.671875 20.820312-46.566406 8.421875-23.785156-13.464844-45.023438-30.847656-46.011719-59.894532-.207031-.421874-.625-.699218-1.09375-.726562-15.0625-2.621094-31-52.710938-15.359375-52.710938zm34.507812 105.175782c22.683594 15.648437 41.40625 29.992187 68.199219 12.976562 8.492188-5.171875 16.710938-10.78125 24.628906-16.800781 2.609375 10.417969 7.175782 24.421875 5.167969 32.5625-6.613281 26.886719-55.191406 24.210937-75.6875 19.03125-10.242187-2.5625-28.785156-9.695313-31.4375-22.019531-.554687-9.808594.863281-19.628906 4.164063-28.882813 1.644531 1.007813 3.320312 2.023438 4.921874 3.132813zm-18.03125 35.085937c13.59375 21.828125 53.078125 21.871094 74.640625 19.457031 15.71875-1.757812 40.109375-7.039062 49.742188-21.800781l54 16.628907c10.605468 3.269531 22.058594 5.703124 32.324218 9.960937 10.648438 3.648437 17.335938 14.199219 16.09375 25.386719h-328.867187c0-11.949219.179687-21.054688 11.878906-26.496094 10.90625-4.171875 22.078125-7.613281 33.441407-10.300781l54.945312-16.929688c.441406 1.429688 1.046875 2.804688 1.800781 4.09375zm140.75-189.660156c-15.359375-.855469-30.90625-1.28125-46.558593-1.476563v-60.902343c0-.800781 0-1.648438.070312-2.5 26.597656 11.167969 40.992188 36.429687 46.488281 64.878906zm-94.285156-79.136719c7.207031-1.050781 14.527344-1.050781 21.734375 0 13.023438 0 13.652344 6.652344 13.652344 17.535156v60.03125c-13.050782-.050781-26.078125.046876-39.089844.296876.09375-.175782.179688-.355469.246094-.542969 3.160156-9.566407 0-25.398438 0-35.457031-.652344-11.8125-.652344-23.652344 0-35.464844.480468-4.34375-.324219-4.753906 3.457031-6.398438zm-15.972656 13.226563c.058593 1.933593.144531 3.828125.144531 5.570312v59.273438c-15.558594.382812-31.035156.851562-46.277344 1.484375h-.785156c4.964844-28.910156 18.6875-56.140625 46.917969-66.328125zm-192.300781 59.808593c8.03125-32.734374 42.53125-22.921874 67.558593-22.921874h74.957031c-4.402343 9.472656-7.535156 19.484374-9.320312 29.773437-7.558594-.242187-14.90625 2.519531-20.433594 7.679687-22.238281 24.746094 12.96875 30.414063 29.402344 30.839844l.582031 5.734375c-17.066406 2.132813-18.695312 10.949219-11.828125 34.476563 1.871094 6.414062 1.347656 16.144531 5.316406 21.671875 2.902344 4.046875 10.820313 4.480469 13.210938 7.894531 5.835938 8.335938 2.457031 21.921875 10.453125 31.386719 1.445313 1.683593 3.070313 3.210937 4.847656 4.546875-1.84375 10.820312-7.296875 24.960937-5.667969 36.472656l-74.4375 22.886719c-7.699218 1.890625-15.265624 4.28125-22.652343 7.160156-13.007813 5.972656-14.429688 15.503906-14.585938 27.816406h-49.492187c-.496094.03125-.988282.117188-1.46875.257813-.503906-32.675782 3.601562-67.515625 3.601562-97.648438v-95.742187c-.042968-15.480469-3.761718-37.113281-.042968-52.285157zm143.410156 345.507813c-2.613282-.03125-5.222656-.21875-7.816406-.554687.984374-5.035157.375-18.125.699218-24.457032.746094.074219 1.445313.136719 2.460938.3125 19.625 3.414063 42.996094 0 62.921875 0h110.082031c-.09375 8.347656-.332031 16.734375.050781 25.046875l-2.117187-.347656c-19.625-3.414063-43.015625 0-62.925782 0h-63.144531c-12.375-.90625-24.800781-.921875-37.179687-.042969-1.007813.023438-2.023438-.027344-3.03125.03125zm-15.851563 9.128906c.75.195313 1.523438.292969 2.300781.296875h187.734376c.257812-.03125.515624-.074218.769531-.136718 15.59375 7.984374 30.699219 16.894531 45.226562 26.6875h-246.886719c-10.746093-.0625-21.855468-.804688-32.5625 0h-3.269531c12.269531-8.59375 27.128907-14.253907 39.621094-22.394532 1.738281-1.101562 4.402344-2.898437 7.066406-4.453125zm-21.90625 60.980469c-26.285156 0-28.65625-2.269531-28.835937-28.398438h293.632812l.648438.324219c.109375.40625.296875.789063.554687 1.125 2.273438 9.097657 1.039063 18.71875-3.457031 26.949219zm334.992188-112.640625c-11.46875 14.761719-19.25 10.800781-37.90625 10.800781h-78.855469c-1.074219-1.640625-2.972656-2.542968-4.921875-2.335937-.148437 0-.230469-.050781-.378906-.050781h-187.730469c-2.007812.140624-3.898438.988281-5.34375 2.386718h-44.304688c-30.804687 0-73.316406 10.285156-81.203124-28.910156-2.15625-11.421875-3.347657-23.003906-3.566407-34.628906h51.90625c1.347657.253906 2.726563.253906 4.074219 0h336.824219c1.605469 2.050781 6.324219 1.621094 9.304687 0h49.902344v12.800781c0 16.691406 2.628906 26.488281-7.800781 39.910156zm0 0"/><path d="m257.421875 358.800781h-34.136719c-2.558594 0-7.039062.757813-8.113281 3.539063-.988281 2.5625.851563 4.265625 3.523437 4.265625h34.132813c2.5625 0 7.042969-.757813 8.117187-3.539063 1.007813-2.542968-.863281-4.265625-3.523437-4.265625zm0 0"/></g></svg>